%TF.GenerationSoftware,KiCad,Pcbnew,(6.0.8)*%
%TF.CreationDate,2022-10-22T10:51:26-05:00*%
%TF.ProjectId,jtag_sniff_pcb,6a746167-5f73-46e6-9966-665f7063622e,rev?*%
%TF.SameCoordinates,Original*%
%TF.FileFunction,Legend,Bot*%
%TF.FilePolarity,Positive*%
%FSLAX46Y46*%
G04 Gerber Fmt 4.6, Leading zero omitted, Abs format (unit mm)*
G04 Created by KiCad (PCBNEW (6.0.8)) date 2022-10-22 10:51:26*
%MOMM*%
%LPD*%
G01*
G04 APERTURE LIST*
%ADD10C,0.150000*%
%ADD11C,0.120000*%
%ADD12R,1.700000X1.700000*%
%ADD13O,1.700000X1.700000*%
%ADD14C,3.000000*%
G04 APERTURE END LIST*
D10*
X138162023Y-69302380D02*
X137828690Y-70302380D01*
X137495357Y-69302380D01*
X137162023Y-70302380D02*
X137162023Y-69635714D01*
X137162023Y-69826190D02*
X137114404Y-69730952D01*
X137066785Y-69683333D01*
X136971547Y-69635714D01*
X136876309Y-69635714D01*
X136162023Y-70254761D02*
X136257261Y-70302380D01*
X136447738Y-70302380D01*
X136542976Y-70254761D01*
X136590595Y-70159523D01*
X136590595Y-69778571D01*
X136542976Y-69683333D01*
X136447738Y-69635714D01*
X136257261Y-69635714D01*
X136162023Y-69683333D01*
X136114404Y-69778571D01*
X136114404Y-69873809D01*
X136590595Y-69969047D01*
X135828690Y-69635714D02*
X135447738Y-69635714D01*
X135685833Y-70302380D02*
X135685833Y-69445238D01*
X135638214Y-69350000D01*
X135542976Y-69302380D01*
X135447738Y-69302380D01*
X141193809Y-80176666D02*
X140717619Y-80176666D01*
X141289047Y-80462380D02*
X140955714Y-79462380D01*
X140622380Y-80462380D01*
X140336666Y-80414761D02*
X140193809Y-80462380D01*
X139955714Y-80462380D01*
X139860476Y-80414761D01*
X139812857Y-80367142D01*
X139765238Y-80271904D01*
X139765238Y-80176666D01*
X139812857Y-80081428D01*
X139860476Y-80033809D01*
X139955714Y-79986190D01*
X140146190Y-79938571D01*
X140241428Y-79890952D01*
X140289047Y-79843333D01*
X140336666Y-79748095D01*
X140336666Y-79652857D01*
X140289047Y-79557619D01*
X140241428Y-79510000D01*
X140146190Y-79462380D01*
X139908095Y-79462380D01*
X139765238Y-79510000D01*
X139336666Y-79938571D02*
X139003333Y-79938571D01*
X138860476Y-80462380D02*
X139336666Y-80462380D01*
X139336666Y-79462380D01*
X138860476Y-79462380D01*
X138098571Y-79938571D02*
X137955714Y-79986190D01*
X137908095Y-80033809D01*
X137860476Y-80129047D01*
X137860476Y-80271904D01*
X137908095Y-80367142D01*
X137955714Y-80414761D01*
X138050952Y-80462380D01*
X138431904Y-80462380D01*
X138431904Y-79462380D01*
X138098571Y-79462380D01*
X138003333Y-79510000D01*
X137955714Y-79557619D01*
X137908095Y-79652857D01*
X137908095Y-79748095D01*
X137955714Y-79843333D01*
X138003333Y-79890952D01*
X138098571Y-79938571D01*
X138431904Y-79938571D01*
X136860476Y-80462380D02*
X137193809Y-79986190D01*
X137431904Y-80462380D02*
X137431904Y-79462380D01*
X137050952Y-79462380D01*
X136955714Y-79510000D01*
X136908095Y-79557619D01*
X136860476Y-79652857D01*
X136860476Y-79795714D01*
X136908095Y-79890952D01*
X136955714Y-79938571D01*
X137050952Y-79986190D01*
X137431904Y-79986190D01*
X136431904Y-80462380D02*
X136431904Y-79462380D01*
X135860476Y-80462380D02*
X136289047Y-79890952D01*
X135860476Y-79462380D02*
X136431904Y-80033809D01*
X137495357Y-84542380D02*
X136923928Y-84542380D01*
X137209642Y-85542380D02*
X137209642Y-84542380D01*
X136590595Y-85542380D02*
X136590595Y-84542380D01*
X136352500Y-84542380D01*
X136209642Y-84590000D01*
X136114404Y-84685238D01*
X136066785Y-84780476D01*
X136019166Y-84970952D01*
X136019166Y-85113809D01*
X136066785Y-85304285D01*
X136114404Y-85399523D01*
X136209642Y-85494761D01*
X136352500Y-85542380D01*
X136590595Y-85542380D01*
X135590595Y-85542380D02*
X135590595Y-84542380D01*
X139066785Y-88082380D02*
X139400119Y-87606190D01*
X139638214Y-88082380D02*
X139638214Y-87082380D01*
X139257261Y-87082380D01*
X139162023Y-87130000D01*
X139114404Y-87177619D01*
X139066785Y-87272857D01*
X139066785Y-87415714D01*
X139114404Y-87510952D01*
X139162023Y-87558571D01*
X139257261Y-87606190D01*
X139638214Y-87606190D01*
X138638214Y-87558571D02*
X138304880Y-87558571D01*
X138162023Y-88082380D02*
X138638214Y-88082380D01*
X138638214Y-87082380D01*
X138162023Y-87082380D01*
X137781071Y-88034761D02*
X137638214Y-88082380D01*
X137400119Y-88082380D01*
X137304880Y-88034761D01*
X137257261Y-87987142D01*
X137209642Y-87891904D01*
X137209642Y-87796666D01*
X137257261Y-87701428D01*
X137304880Y-87653809D01*
X137400119Y-87606190D01*
X137590595Y-87558571D01*
X137685833Y-87510952D01*
X137733452Y-87463333D01*
X137781071Y-87368095D01*
X137781071Y-87272857D01*
X137733452Y-87177619D01*
X137685833Y-87130000D01*
X137590595Y-87082380D01*
X137352500Y-87082380D01*
X137209642Y-87130000D01*
X136781071Y-87558571D02*
X136447738Y-87558571D01*
X136304880Y-88082380D02*
X136781071Y-88082380D01*
X136781071Y-87082380D01*
X136304880Y-87082380D01*
X136019166Y-87082380D02*
X135447738Y-87082380D01*
X135733452Y-88082380D02*
X135733452Y-87082380D01*
X137955714Y-89670000D02*
X138050952Y-89622380D01*
X138193809Y-89622380D01*
X138336666Y-89670000D01*
X138431904Y-89765238D01*
X138479523Y-89860476D01*
X138527142Y-90050952D01*
X138527142Y-90193809D01*
X138479523Y-90384285D01*
X138431904Y-90479523D01*
X138336666Y-90574761D01*
X138193809Y-90622380D01*
X138098571Y-90622380D01*
X137955714Y-90574761D01*
X137908095Y-90527142D01*
X137908095Y-90193809D01*
X138098571Y-90193809D01*
X137479523Y-90622380D02*
X137479523Y-89622380D01*
X136908095Y-90622380D01*
X136908095Y-89622380D01*
X136431904Y-90622380D02*
X136431904Y-89622380D01*
X136193809Y-89622380D01*
X136050952Y-89670000D01*
X135955714Y-89765238D01*
X135908095Y-89860476D01*
X135860476Y-90050952D01*
X135860476Y-90193809D01*
X135908095Y-90384285D01*
X135955714Y-90479523D01*
X136050952Y-90574761D01*
X136193809Y-90622380D01*
X136431904Y-90622380D01*
X138733452Y-74382380D02*
X138162023Y-74382380D01*
X138447738Y-75382380D02*
X138447738Y-74382380D01*
X137257261Y-75382380D02*
X137590595Y-74906190D01*
X137828690Y-75382380D02*
X137828690Y-74382380D01*
X137447738Y-74382380D01*
X137352500Y-74430000D01*
X137304880Y-74477619D01*
X137257261Y-74572857D01*
X137257261Y-74715714D01*
X137304880Y-74810952D01*
X137352500Y-74858571D01*
X137447738Y-74906190D01*
X137828690Y-74906190D01*
X136876309Y-75334761D02*
X136733452Y-75382380D01*
X136495357Y-75382380D01*
X136400119Y-75334761D01*
X136352500Y-75287142D01*
X136304880Y-75191904D01*
X136304880Y-75096666D01*
X136352500Y-75001428D01*
X136400119Y-74953809D01*
X136495357Y-74906190D01*
X136685833Y-74858571D01*
X136781071Y-74810952D01*
X136828690Y-74763333D01*
X136876309Y-74668095D01*
X136876309Y-74572857D01*
X136828690Y-74477619D01*
X136781071Y-74430000D01*
X136685833Y-74382380D01*
X136447738Y-74382380D01*
X136304880Y-74430000D01*
X136019166Y-74382380D02*
X135447738Y-74382380D01*
X135733452Y-75382380D02*
X135733452Y-74382380D01*
X138066785Y-76922380D02*
X137495357Y-76922380D01*
X137781071Y-77922380D02*
X137781071Y-76922380D01*
X137162023Y-77922380D02*
X137162023Y-76922380D01*
X136923928Y-76922380D01*
X136781071Y-76970000D01*
X136685833Y-77065238D01*
X136638214Y-77160476D01*
X136590595Y-77350952D01*
X136590595Y-77493809D01*
X136638214Y-77684285D01*
X136685833Y-77779523D01*
X136781071Y-77874761D01*
X136923928Y-77922380D01*
X137162023Y-77922380D01*
X135971547Y-76922380D02*
X135781071Y-76922380D01*
X135685833Y-76970000D01*
X135590595Y-77065238D01*
X135542976Y-77255714D01*
X135542976Y-77589047D01*
X135590595Y-77779523D01*
X135685833Y-77874761D01*
X135781071Y-77922380D01*
X135971547Y-77922380D01*
X136066785Y-77874761D01*
X136162023Y-77779523D01*
X136209642Y-77589047D01*
X136209642Y-77255714D01*
X136162023Y-77065238D01*
X136066785Y-76970000D01*
X135971547Y-76922380D01*
X138114404Y-82002380D02*
X137542976Y-82002380D01*
X137828690Y-83002380D02*
X137828690Y-82002380D01*
X137209642Y-83002380D02*
X137209642Y-82002380D01*
X136876309Y-82716666D01*
X136542976Y-82002380D01*
X136542976Y-83002380D01*
X136114404Y-82954761D02*
X135971547Y-83002380D01*
X135733452Y-83002380D01*
X135638214Y-82954761D01*
X135590595Y-82907142D01*
X135542976Y-82811904D01*
X135542976Y-82716666D01*
X135590595Y-82621428D01*
X135638214Y-82573809D01*
X135733452Y-82526190D01*
X135923928Y-82478571D01*
X136019166Y-82430952D01*
X136066785Y-82383333D01*
X136114404Y-82288095D01*
X136114404Y-82192857D01*
X136066785Y-82097619D01*
X136019166Y-82050000D01*
X135923928Y-82002380D01*
X135685833Y-82002380D01*
X135542976Y-82050000D01*
X138019166Y-71842380D02*
X137447738Y-71842380D01*
X137733452Y-72842380D02*
X137733452Y-71842380D01*
X136542976Y-72747142D02*
X136590595Y-72794761D01*
X136733452Y-72842380D01*
X136828690Y-72842380D01*
X136971547Y-72794761D01*
X137066785Y-72699523D01*
X137114404Y-72604285D01*
X137162023Y-72413809D01*
X137162023Y-72270952D01*
X137114404Y-72080476D01*
X137066785Y-71985238D01*
X136971547Y-71890000D01*
X136828690Y-71842380D01*
X136733452Y-71842380D01*
X136590595Y-71890000D01*
X136542976Y-71937619D01*
X136114404Y-72842380D02*
X136114404Y-71842380D01*
X135542976Y-72842380D02*
X135971547Y-72270952D01*
X135542976Y-71842380D02*
X136114404Y-72413809D01*
%TO.C,J2*%
X142728380Y-72819380D02*
X142728380Y-73390809D01*
X143728380Y-73105095D02*
X142728380Y-73105095D01*
X143442666Y-73676523D02*
X143442666Y-74152714D01*
X143728380Y-73581285D02*
X142728380Y-73914619D01*
X143728380Y-74247952D01*
X143728380Y-75152714D02*
X143252190Y-74819380D01*
X143728380Y-74581285D02*
X142728380Y-74581285D01*
X142728380Y-74962238D01*
X142776000Y-75057476D01*
X142823619Y-75105095D01*
X142918857Y-75152714D01*
X143061714Y-75152714D01*
X143156952Y-75105095D01*
X143204571Y-75057476D01*
X143252190Y-74962238D01*
X143252190Y-74581285D01*
X142776000Y-76105095D02*
X142728380Y-76009857D01*
X142728380Y-75867000D01*
X142776000Y-75724142D01*
X142871238Y-75628904D01*
X142966476Y-75581285D01*
X143156952Y-75533666D01*
X143299809Y-75533666D01*
X143490285Y-75581285D01*
X143585523Y-75628904D01*
X143680761Y-75724142D01*
X143728380Y-75867000D01*
X143728380Y-75962238D01*
X143680761Y-76105095D01*
X143633142Y-76152714D01*
X143299809Y-76152714D01*
X143299809Y-75962238D01*
X143204571Y-76581285D02*
X143204571Y-76914619D01*
X143728380Y-77057476D02*
X143728380Y-76581285D01*
X142728380Y-76581285D01*
X142728380Y-77057476D01*
X142728380Y-77343190D02*
X142728380Y-77914619D01*
X143728380Y-77628904D02*
X142728380Y-77628904D01*
%TO.C,J4*%
X116290380Y-72819380D02*
X116290380Y-73390809D01*
X117290380Y-73105095D02*
X116290380Y-73105095D01*
X117004666Y-73676523D02*
X117004666Y-74152714D01*
X117290380Y-73581285D02*
X116290380Y-73914619D01*
X117290380Y-74247952D01*
X117290380Y-75152714D02*
X116814190Y-74819380D01*
X117290380Y-74581285D02*
X116290380Y-74581285D01*
X116290380Y-74962238D01*
X116338000Y-75057476D01*
X116385619Y-75105095D01*
X116480857Y-75152714D01*
X116623714Y-75152714D01*
X116718952Y-75105095D01*
X116766571Y-75057476D01*
X116814190Y-74962238D01*
X116814190Y-74581285D01*
X116338000Y-76105095D02*
X116290380Y-76009857D01*
X116290380Y-75867000D01*
X116338000Y-75724142D01*
X116433238Y-75628904D01*
X116528476Y-75581285D01*
X116718952Y-75533666D01*
X116861809Y-75533666D01*
X117052285Y-75581285D01*
X117147523Y-75628904D01*
X117242761Y-75724142D01*
X117290380Y-75867000D01*
X117290380Y-75962238D01*
X117242761Y-76105095D01*
X117195142Y-76152714D01*
X116861809Y-76152714D01*
X116861809Y-75962238D01*
X116766571Y-76581285D02*
X116766571Y-76914619D01*
X117290380Y-77057476D02*
X117290380Y-76581285D01*
X116290380Y-76581285D01*
X116290380Y-77057476D01*
X116290380Y-77343190D02*
X116290380Y-77914619D01*
X117290380Y-77628904D02*
X116290380Y-77628904D01*
D11*
%TO.C,J2*%
X143276000Y-70922000D02*
X143276000Y-72192000D01*
X144546000Y-70922000D02*
X143276000Y-70922000D01*
%TO.C,J4*%
X118108000Y-70922000D02*
X116838000Y-70922000D01*
X116838000Y-70922000D02*
X116838000Y-72192000D01*
%TD*%
%LPC*%
D12*
%TO.C,J3*%
X133350000Y-69860000D03*
D13*
X133350000Y-72400000D03*
X133350000Y-74940000D03*
X133350000Y-77480000D03*
X133350000Y-80020000D03*
X133350000Y-82560000D03*
X133350000Y-85100000D03*
X133350000Y-87640000D03*
X133350000Y-90180000D03*
%TD*%
D14*
%TO.C,H3*%
X112395000Y-70485000D03*
%TD*%
D12*
%TO.C,J1*%
X122936000Y-97028000D03*
D13*
X122936000Y-99568000D03*
X125476000Y-97028000D03*
X125476000Y-99568000D03*
X128016000Y-97028000D03*
X128016000Y-99568000D03*
X130556000Y-97028000D03*
X130556000Y-99568000D03*
X133096000Y-97028000D03*
X133096000Y-99568000D03*
%TD*%
D14*
%TO.C,H4*%
X152400000Y-70485000D03*
%TD*%
D12*
%TO.C,J2*%
X145816000Y-73462000D03*
D13*
X145816000Y-76002000D03*
X145816000Y-78542000D03*
X145816000Y-81082000D03*
X145816000Y-83622000D03*
X145816000Y-86162000D03*
X145816000Y-88702000D03*
X148356000Y-73462000D03*
X148356000Y-76002000D03*
X148356000Y-78542000D03*
X148356000Y-81082000D03*
X148356000Y-83622000D03*
X148356000Y-86162000D03*
X148356000Y-88702000D03*
%TD*%
D14*
%TO.C,H2*%
X152400000Y-99695000D03*
%TD*%
%TO.C,H1*%
X112395000Y-99695000D03*
%TD*%
D12*
%TO.C,J4*%
X119378000Y-73462000D03*
D13*
X119378000Y-76002000D03*
X119378000Y-78542000D03*
X119378000Y-81082000D03*
X119378000Y-83622000D03*
X119378000Y-86162000D03*
X119378000Y-88702000D03*
X121918000Y-73462000D03*
X121918000Y-76002000D03*
X121918000Y-78542000D03*
X121918000Y-81082000D03*
X121918000Y-83622000D03*
X121918000Y-86162000D03*
X121918000Y-88702000D03*
%TD*%
M02*
