M48
; DRILL file {KiCad (6.0.8)} date Sat 22 Oct 2022 10:51:43 AM CDT
; FORMAT={-:-/ absolute / metric / decimal}
; #@! TF.CreationDate,2022-10-22T10:51:43-05:00
; #@! TF.GenerationSoftware,Kicad,Pcbnew,(6.0.8)
; #@! TF.FileFunction,Plated,1,2,PTH
FMAT,2
METRIC
; #@! TA.AperFunction,Plated,PTH,ViaDrill
T1C0.400
; #@! TA.AperFunction,Plated,PTH,ComponentDrill
T2C1.000
%
G90
G05
T1
X123.825Y-72.287
X125.095Y-74.827
X126.365Y-77.367
X127.635Y-79.907
X128.905Y-82.447
X130.175Y-84.987
X131.445Y-87.63
T2
X119.378Y-73.462
X119.378Y-76.002
X119.378Y-78.542
X119.378Y-81.082
X119.378Y-83.622
X119.378Y-86.162
X119.378Y-88.702
X121.918Y-73.462
X121.918Y-76.002
X121.918Y-78.542
X121.918Y-81.082
X121.918Y-83.622
X121.918Y-86.162
X121.918Y-88.702
X122.936Y-97.028
X122.936Y-99.568
X125.476Y-97.028
X125.476Y-99.568
X128.016Y-97.028
X128.016Y-99.568
X130.556Y-97.028
X130.556Y-99.568
X133.096Y-97.028
X133.096Y-99.568
X133.35Y-69.86
X133.35Y-72.4
X133.35Y-74.94
X133.35Y-77.48
X133.35Y-80.02
X133.35Y-82.56
X133.35Y-85.1
X133.35Y-87.64
X133.35Y-90.18
X145.816Y-73.462
X145.816Y-76.002
X145.816Y-78.542
X145.816Y-81.082
X145.816Y-83.622
X145.816Y-86.162
X145.816Y-88.702
X148.356Y-73.462
X148.356Y-76.002
X148.356Y-78.542
X148.356Y-81.082
X148.356Y-83.622
X148.356Y-86.162
X148.356Y-88.702
T0
M30
