%TF.GenerationSoftware,KiCad,Pcbnew,(6.0.8)*%
%TF.CreationDate,2022-10-22T10:51:26-05:00*%
%TF.ProjectId,jtag_sniff_pcb,6a746167-5f73-46e6-9966-665f7063622e,rev?*%
%TF.SameCoordinates,Original*%
%TF.FileFunction,Legend,Top*%
%TF.FilePolarity,Positive*%
%FSLAX46Y46*%
G04 Gerber Fmt 4.6, Leading zero omitted, Abs format (unit mm)*
G04 Created by KiCad (PCBNEW (6.0.8)) date 2022-10-22 10:51:26*
%MOMM*%
%LPD*%
G01*
G04 APERTURE LIST*
%ADD10C,0.150000*%
%ADD11C,0.120000*%
%ADD12R,1.700000X1.700000*%
%ADD13O,1.700000X1.700000*%
%ADD14C,3.000000*%
G04 APERTURE END LIST*
D10*
X119027380Y-99559904D02*
X119027380Y-100036095D01*
X118027380Y-100036095D01*
X119027380Y-99083714D02*
X118979761Y-99178952D01*
X118932142Y-99226571D01*
X118836904Y-99274190D01*
X118551190Y-99274190D01*
X118455952Y-99226571D01*
X118408333Y-99178952D01*
X118360714Y-99083714D01*
X118360714Y-98940857D01*
X118408333Y-98845619D01*
X118455952Y-98798000D01*
X118551190Y-98750380D01*
X118836904Y-98750380D01*
X118932142Y-98798000D01*
X118979761Y-98845619D01*
X119027380Y-98940857D01*
X119027380Y-99083714D01*
X118360714Y-97893238D02*
X119170238Y-97893238D01*
X119265476Y-97940857D01*
X119313095Y-97988476D01*
X119360714Y-98083714D01*
X119360714Y-98226571D01*
X119313095Y-98321809D01*
X118979761Y-97893238D02*
X119027380Y-97988476D01*
X119027380Y-98178952D01*
X118979761Y-98274190D01*
X118932142Y-98321809D01*
X118836904Y-98369428D01*
X118551190Y-98369428D01*
X118455952Y-98321809D01*
X118408333Y-98274190D01*
X118360714Y-98178952D01*
X118360714Y-97988476D01*
X118408333Y-97893238D01*
X119027380Y-97417047D02*
X118360714Y-97417047D01*
X118027380Y-97417047D02*
X118075000Y-97464666D01*
X118122619Y-97417047D01*
X118075000Y-97369428D01*
X118027380Y-97417047D01*
X118122619Y-97417047D01*
X118979761Y-96512285D02*
X119027380Y-96607523D01*
X119027380Y-96798000D01*
X118979761Y-96893238D01*
X118932142Y-96940857D01*
X118836904Y-96988476D01*
X118551190Y-96988476D01*
X118455952Y-96940857D01*
X118408333Y-96893238D01*
X118360714Y-96798000D01*
X118360714Y-96607523D01*
X118408333Y-96512285D01*
X120351666Y-101226571D02*
X120351666Y-100750380D01*
X120637380Y-101321809D02*
X119637380Y-100988476D01*
X120637380Y-100655142D01*
X119970714Y-100321809D02*
X120637380Y-100321809D01*
X120065952Y-100321809D02*
X120018333Y-100274190D01*
X119970714Y-100178952D01*
X119970714Y-100036095D01*
X120018333Y-99940857D01*
X120113571Y-99893238D01*
X120637380Y-99893238D01*
X120637380Y-98988476D02*
X120113571Y-98988476D01*
X120018333Y-99036095D01*
X119970714Y-99131333D01*
X119970714Y-99321809D01*
X120018333Y-99417047D01*
X120589761Y-98988476D02*
X120637380Y-99083714D01*
X120637380Y-99321809D01*
X120589761Y-99417047D01*
X120494523Y-99464666D01*
X120399285Y-99464666D01*
X120304047Y-99417047D01*
X120256428Y-99321809D01*
X120256428Y-99083714D01*
X120208809Y-98988476D01*
X120637380Y-98369428D02*
X120589761Y-98464666D01*
X120494523Y-98512285D01*
X119637380Y-98512285D01*
X119970714Y-98083714D02*
X120637380Y-97845619D01*
X119970714Y-97607523D02*
X120637380Y-97845619D01*
X120875476Y-97940857D01*
X120923095Y-97988476D01*
X120970714Y-98083714D01*
X119970714Y-97321809D02*
X119970714Y-96798000D01*
X120637380Y-97321809D01*
X120637380Y-96798000D01*
X120589761Y-96036095D02*
X120637380Y-96131333D01*
X120637380Y-96321809D01*
X120589761Y-96417047D01*
X120494523Y-96464666D01*
X120113571Y-96464666D01*
X120018333Y-96417047D01*
X119970714Y-96321809D01*
X119970714Y-96131333D01*
X120018333Y-96036095D01*
X120113571Y-95988476D01*
X120208809Y-95988476D01*
X120304047Y-96464666D01*
X120637380Y-95559904D02*
X119970714Y-95559904D01*
X120161190Y-95559904D02*
X120065952Y-95512285D01*
X120018333Y-95464666D01*
X119970714Y-95369428D01*
X119970714Y-95274190D01*
X145153333Y-70937380D02*
X145153333Y-69937380D01*
X145153333Y-70413571D02*
X145724761Y-70413571D01*
X145724761Y-70937380D02*
X145724761Y-69937380D01*
X146200952Y-70556428D02*
X146962857Y-70556428D01*
X147439047Y-69937380D02*
X147439047Y-70746904D01*
X147486666Y-70842142D01*
X147534285Y-70889761D01*
X147629523Y-70937380D01*
X147820000Y-70937380D01*
X147915238Y-70889761D01*
X147962857Y-70842142D01*
X148010476Y-70746904D01*
X148010476Y-69937380D01*
X148486666Y-70937380D02*
X148486666Y-69937380D01*
X148724761Y-69937380D01*
X148867619Y-69985000D01*
X148962857Y-70080238D01*
X149010476Y-70175476D01*
X149058095Y-70365952D01*
X149058095Y-70508809D01*
X149010476Y-70699285D01*
X148962857Y-70794523D01*
X148867619Y-70889761D01*
X148724761Y-70937380D01*
X148486666Y-70937380D01*
X149486666Y-70937380D02*
X149486666Y-69937380D01*
X118483333Y-70937380D02*
X118483333Y-69937380D01*
X118483333Y-70413571D02*
X119054761Y-70413571D01*
X119054761Y-70937380D02*
X119054761Y-69937380D01*
X119530952Y-70556428D02*
X120292857Y-70556428D01*
X120769047Y-69937380D02*
X120769047Y-70746904D01*
X120816666Y-70842142D01*
X120864285Y-70889761D01*
X120959523Y-70937380D01*
X121150000Y-70937380D01*
X121245238Y-70889761D01*
X121292857Y-70842142D01*
X121340476Y-70746904D01*
X121340476Y-69937380D01*
X121816666Y-70937380D02*
X121816666Y-69937380D01*
X122054761Y-69937380D01*
X122197619Y-69985000D01*
X122292857Y-70080238D01*
X122340476Y-70175476D01*
X122388095Y-70365952D01*
X122388095Y-70508809D01*
X122340476Y-70699285D01*
X122292857Y-70794523D01*
X122197619Y-70889761D01*
X122054761Y-70937380D01*
X121816666Y-70937380D01*
X122816666Y-70937380D02*
X122816666Y-69937380D01*
X125175476Y-92992380D02*
X125175476Y-91992380D01*
X125175476Y-92468571D02*
X125746904Y-92468571D01*
X125746904Y-92992380D02*
X125746904Y-91992380D01*
X126223095Y-92611428D02*
X126985000Y-92611428D01*
X127461190Y-91992380D02*
X127461190Y-92801904D01*
X127508809Y-92897142D01*
X127556428Y-92944761D01*
X127651666Y-92992380D01*
X127842142Y-92992380D01*
X127937380Y-92944761D01*
X127985000Y-92897142D01*
X128032619Y-92801904D01*
X128032619Y-91992380D01*
X128508809Y-92992380D02*
X128508809Y-91992380D01*
X128746904Y-91992380D01*
X128889761Y-92040000D01*
X128985000Y-92135238D01*
X129032619Y-92230476D01*
X129080238Y-92420952D01*
X129080238Y-92563809D01*
X129032619Y-92754285D01*
X128985000Y-92849523D01*
X128889761Y-92944761D01*
X128746904Y-92992380D01*
X128508809Y-92992380D01*
X129508809Y-92992380D02*
X129508809Y-91992380D01*
X131270714Y-92992380D02*
X130699285Y-92992380D01*
X130985000Y-92992380D02*
X130985000Y-91992380D01*
X130889761Y-92135238D01*
X130794523Y-92230476D01*
X130699285Y-92278095D01*
X132127857Y-92325714D02*
X132127857Y-92992380D01*
X131889761Y-91944761D02*
X131651666Y-92659047D01*
X132270714Y-92659047D01*
X133413571Y-92992380D02*
X133413571Y-91992380D01*
X133794523Y-91992380D01*
X133889761Y-92040000D01*
X133937380Y-92087619D01*
X133985000Y-92182857D01*
X133985000Y-92325714D01*
X133937380Y-92420952D01*
X133889761Y-92468571D01*
X133794523Y-92516190D01*
X133413571Y-92516190D01*
X134413571Y-92992380D02*
X134413571Y-91992380D01*
X134889761Y-92992380D02*
X134889761Y-91992380D01*
X135461190Y-92992380D01*
X135461190Y-91992380D01*
X137032619Y-92468571D02*
X137175476Y-92516190D01*
X137223095Y-92563809D01*
X137270714Y-92659047D01*
X137270714Y-92801904D01*
X137223095Y-92897142D01*
X137175476Y-92944761D01*
X137080238Y-92992380D01*
X136699285Y-92992380D01*
X136699285Y-91992380D01*
X137032619Y-91992380D01*
X137127857Y-92040000D01*
X137175476Y-92087619D01*
X137223095Y-92182857D01*
X137223095Y-92278095D01*
X137175476Y-92373333D01*
X137127857Y-92420952D01*
X137032619Y-92468571D01*
X136699285Y-92468571D01*
X137699285Y-92992380D02*
X137699285Y-92325714D01*
X137699285Y-92516190D02*
X137746904Y-92420952D01*
X137794523Y-92373333D01*
X137889761Y-92325714D01*
X137985000Y-92325714D01*
X138699285Y-92944761D02*
X138604047Y-92992380D01*
X138413571Y-92992380D01*
X138318333Y-92944761D01*
X138270714Y-92849523D01*
X138270714Y-92468571D01*
X138318333Y-92373333D01*
X138413571Y-92325714D01*
X138604047Y-92325714D01*
X138699285Y-92373333D01*
X138746904Y-92468571D01*
X138746904Y-92563809D01*
X138270714Y-92659047D01*
X139604047Y-92992380D02*
X139604047Y-92468571D01*
X139556428Y-92373333D01*
X139461190Y-92325714D01*
X139270714Y-92325714D01*
X139175476Y-92373333D01*
X139604047Y-92944761D02*
X139508809Y-92992380D01*
X139270714Y-92992380D01*
X139175476Y-92944761D01*
X139127857Y-92849523D01*
X139127857Y-92754285D01*
X139175476Y-92659047D01*
X139270714Y-92611428D01*
X139508809Y-92611428D01*
X139604047Y-92563809D01*
X140080238Y-92992380D02*
X140080238Y-91992380D01*
X140175476Y-92611428D02*
X140461190Y-92992380D01*
X140461190Y-92325714D02*
X140080238Y-92706666D01*
X141032619Y-92992380D02*
X140937380Y-92944761D01*
X140889761Y-92897142D01*
X140842142Y-92801904D01*
X140842142Y-92516190D01*
X140889761Y-92420952D01*
X140937380Y-92373333D01*
X141032619Y-92325714D01*
X141175476Y-92325714D01*
X141270714Y-92373333D01*
X141318333Y-92420952D01*
X141365952Y-92516190D01*
X141365952Y-92801904D01*
X141318333Y-92897142D01*
X141270714Y-92944761D01*
X141175476Y-92992380D01*
X141032619Y-92992380D01*
X142223095Y-92325714D02*
X142223095Y-92992380D01*
X141794523Y-92325714D02*
X141794523Y-92849523D01*
X141842142Y-92944761D01*
X141937380Y-92992380D01*
X142080238Y-92992380D01*
X142175476Y-92944761D01*
X142223095Y-92897142D01*
X142556428Y-92325714D02*
X142937380Y-92325714D01*
X142699285Y-91992380D02*
X142699285Y-92849523D01*
X142746904Y-92944761D01*
X142842142Y-92992380D01*
X142937380Y-92992380D01*
X120651666Y-94554761D02*
X120556428Y-94602380D01*
X120365952Y-94602380D01*
X120270714Y-94554761D01*
X120223095Y-94507142D01*
X120175476Y-94411904D01*
X120175476Y-94126190D01*
X120223095Y-94030952D01*
X120270714Y-93983333D01*
X120365952Y-93935714D01*
X120556428Y-93935714D01*
X120651666Y-93983333D01*
X121461190Y-94554761D02*
X121365952Y-94602380D01*
X121175476Y-94602380D01*
X121080238Y-94554761D01*
X121032619Y-94459523D01*
X121032619Y-94078571D01*
X121080238Y-93983333D01*
X121175476Y-93935714D01*
X121365952Y-93935714D01*
X121461190Y-93983333D01*
X121508809Y-94078571D01*
X121508809Y-94173809D01*
X121032619Y-94269047D01*
X121937380Y-93935714D02*
X121937380Y-94935714D01*
X121937380Y-93983333D02*
X122032619Y-93935714D01*
X122223095Y-93935714D01*
X122318333Y-93983333D01*
X122365952Y-94030952D01*
X122413571Y-94126190D01*
X122413571Y-94411904D01*
X122365952Y-94507142D01*
X122318333Y-94554761D01*
X122223095Y-94602380D01*
X122032619Y-94602380D01*
X121937380Y-94554761D01*
X123270714Y-94602380D02*
X123270714Y-94078571D01*
X123223095Y-93983333D01*
X123127857Y-93935714D01*
X122937380Y-93935714D01*
X122842142Y-93983333D01*
X123270714Y-94554761D02*
X123175476Y-94602380D01*
X122937380Y-94602380D01*
X122842142Y-94554761D01*
X122794523Y-94459523D01*
X122794523Y-94364285D01*
X122842142Y-94269047D01*
X122937380Y-94221428D01*
X123175476Y-94221428D01*
X123270714Y-94173809D01*
X123651666Y-93935714D02*
X123842142Y-94602380D01*
X124032619Y-94126190D01*
X124223095Y-94602380D01*
X124413571Y-93935714D01*
X124794523Y-94602380D02*
X124794523Y-93935714D01*
X124794523Y-93602380D02*
X124746904Y-93650000D01*
X124794523Y-93697619D01*
X124842142Y-93650000D01*
X124794523Y-93602380D01*
X124794523Y-93697619D01*
X125651666Y-94554761D02*
X125556428Y-94602380D01*
X125365952Y-94602380D01*
X125270714Y-94554761D01*
X125223095Y-94459523D01*
X125223095Y-94078571D01*
X125270714Y-93983333D01*
X125365952Y-93935714D01*
X125556428Y-93935714D01*
X125651666Y-93983333D01*
X125699285Y-94078571D01*
X125699285Y-94173809D01*
X125223095Y-94269047D01*
X126270714Y-94602380D02*
X126175476Y-94554761D01*
X126127857Y-94459523D01*
X126127857Y-93602380D01*
X127365952Y-93554761D02*
X126508809Y-94840476D01*
X127699285Y-94602380D02*
X127699285Y-93602380D01*
X127937380Y-93602380D01*
X128080238Y-93650000D01*
X128175476Y-93745238D01*
X128223095Y-93840476D01*
X128270714Y-94030952D01*
X128270714Y-94173809D01*
X128223095Y-94364285D01*
X128175476Y-94459523D01*
X128080238Y-94554761D01*
X127937380Y-94602380D01*
X127699285Y-94602380D01*
X128699285Y-94602380D02*
X128699285Y-93935714D01*
X128699285Y-94126190D02*
X128746904Y-94030952D01*
X128794523Y-93983333D01*
X128889761Y-93935714D01*
X128985000Y-93935714D01*
X129699285Y-94554761D02*
X129604047Y-94602380D01*
X129413571Y-94602380D01*
X129318333Y-94554761D01*
X129270714Y-94459523D01*
X129270714Y-94078571D01*
X129318333Y-93983333D01*
X129413571Y-93935714D01*
X129604047Y-93935714D01*
X129699285Y-93983333D01*
X129746904Y-94078571D01*
X129746904Y-94173809D01*
X129270714Y-94269047D01*
X130604047Y-94602380D02*
X130604047Y-94078571D01*
X130556428Y-93983333D01*
X130461190Y-93935714D01*
X130270714Y-93935714D01*
X130175476Y-93983333D01*
X130604047Y-94554761D02*
X130508809Y-94602380D01*
X130270714Y-94602380D01*
X130175476Y-94554761D01*
X130127857Y-94459523D01*
X130127857Y-94364285D01*
X130175476Y-94269047D01*
X130270714Y-94221428D01*
X130508809Y-94221428D01*
X130604047Y-94173809D01*
X131080238Y-94602380D02*
X131080238Y-93935714D01*
X131080238Y-94030952D02*
X131127857Y-93983333D01*
X131223095Y-93935714D01*
X131365952Y-93935714D01*
X131461190Y-93983333D01*
X131508809Y-94078571D01*
X131508809Y-94602380D01*
X131508809Y-94078571D02*
X131556428Y-93983333D01*
X131651666Y-93935714D01*
X131794523Y-93935714D01*
X131889761Y-93983333D01*
X131937380Y-94078571D01*
X131937380Y-94602380D01*
X132842142Y-94554761D02*
X132746904Y-94602380D01*
X132556428Y-94602380D01*
X132461190Y-94554761D01*
X132413571Y-94507142D01*
X132365952Y-94411904D01*
X132365952Y-94126190D01*
X132413571Y-94030952D01*
X132461190Y-93983333D01*
X132556428Y-93935714D01*
X132746904Y-93935714D01*
X132842142Y-93983333D01*
X133699285Y-94602380D02*
X133699285Y-94078571D01*
X133651666Y-93983333D01*
X133556428Y-93935714D01*
X133365952Y-93935714D01*
X133270714Y-93983333D01*
X133699285Y-94554761D02*
X133604047Y-94602380D01*
X133365952Y-94602380D01*
X133270714Y-94554761D01*
X133223095Y-94459523D01*
X133223095Y-94364285D01*
X133270714Y-94269047D01*
X133365952Y-94221428D01*
X133604047Y-94221428D01*
X133699285Y-94173809D01*
X134127857Y-94554761D02*
X134223095Y-94602380D01*
X134413571Y-94602380D01*
X134508809Y-94554761D01*
X134556428Y-94459523D01*
X134556428Y-94411904D01*
X134508809Y-94316666D01*
X134413571Y-94269047D01*
X134270714Y-94269047D01*
X134175476Y-94221428D01*
X134127857Y-94126190D01*
X134127857Y-94078571D01*
X134175476Y-93983333D01*
X134270714Y-93935714D01*
X134413571Y-93935714D01*
X134508809Y-93983333D01*
X134842142Y-93935714D02*
X135223095Y-93935714D01*
X134985000Y-93602380D02*
X134985000Y-94459523D01*
X135032619Y-94554761D01*
X135127857Y-94602380D01*
X135223095Y-94602380D01*
X135556428Y-94221428D02*
X136318333Y-94221428D01*
X137080238Y-93602380D02*
X137080238Y-94316666D01*
X137032619Y-94459523D01*
X136937380Y-94554761D01*
X136794523Y-94602380D01*
X136699285Y-94602380D01*
X137413571Y-93602380D02*
X137985000Y-93602380D01*
X137699285Y-94602380D02*
X137699285Y-93602380D01*
X138270714Y-94316666D02*
X138746904Y-94316666D01*
X138175476Y-94602380D02*
X138508809Y-93602380D01*
X138842142Y-94602380D01*
X139699285Y-93650000D02*
X139604047Y-93602380D01*
X139461190Y-93602380D01*
X139318333Y-93650000D01*
X139223095Y-93745238D01*
X139175476Y-93840476D01*
X139127857Y-94030952D01*
X139127857Y-94173809D01*
X139175476Y-94364285D01*
X139223095Y-94459523D01*
X139318333Y-94554761D01*
X139461190Y-94602380D01*
X139556428Y-94602380D01*
X139699285Y-94554761D01*
X139746904Y-94507142D01*
X139746904Y-94173809D01*
X139556428Y-94173809D01*
X140175476Y-94221428D02*
X140937380Y-94221428D01*
X141985000Y-94602380D02*
X141651666Y-94126190D01*
X141413571Y-94602380D02*
X141413571Y-93602380D01*
X141794523Y-93602380D01*
X141889761Y-93650000D01*
X141937380Y-93697619D01*
X141985000Y-93792857D01*
X141985000Y-93935714D01*
X141937380Y-94030952D01*
X141889761Y-94078571D01*
X141794523Y-94126190D01*
X141413571Y-94126190D01*
X142794523Y-94554761D02*
X142699285Y-94602380D01*
X142508809Y-94602380D01*
X142413571Y-94554761D01*
X142365952Y-94459523D01*
X142365952Y-94078571D01*
X142413571Y-93983333D01*
X142508809Y-93935714D01*
X142699285Y-93935714D01*
X142794523Y-93983333D01*
X142842142Y-94078571D01*
X142842142Y-94173809D01*
X142365952Y-94269047D01*
X143223095Y-94554761D02*
X143318333Y-94602380D01*
X143508809Y-94602380D01*
X143604047Y-94554761D01*
X143651666Y-94459523D01*
X143651666Y-94411904D01*
X143604047Y-94316666D01*
X143508809Y-94269047D01*
X143365952Y-94269047D01*
X143270714Y-94221428D01*
X143223095Y-94126190D01*
X143223095Y-94078571D01*
X143270714Y-93983333D01*
X143365952Y-93935714D01*
X143508809Y-93935714D01*
X143604047Y-93983333D01*
X144461190Y-94554761D02*
X144365952Y-94602380D01*
X144175476Y-94602380D01*
X144080238Y-94554761D01*
X144032619Y-94459523D01*
X144032619Y-94078571D01*
X144080238Y-93983333D01*
X144175476Y-93935714D01*
X144365952Y-93935714D01*
X144461190Y-93983333D01*
X144508809Y-94078571D01*
X144508809Y-94173809D01*
X144032619Y-94269047D01*
X145365952Y-94602380D02*
X145365952Y-94078571D01*
X145318333Y-93983333D01*
X145223095Y-93935714D01*
X145032619Y-93935714D01*
X144937380Y-93983333D01*
X145365952Y-94554761D02*
X145270714Y-94602380D01*
X145032619Y-94602380D01*
X144937380Y-94554761D01*
X144889761Y-94459523D01*
X144889761Y-94364285D01*
X144937380Y-94269047D01*
X145032619Y-94221428D01*
X145270714Y-94221428D01*
X145365952Y-94173809D01*
X145842142Y-94602380D02*
X145842142Y-93935714D01*
X145842142Y-94126190D02*
X145889761Y-94030952D01*
X145937380Y-93983333D01*
X146032619Y-93935714D01*
X146127857Y-93935714D01*
X146889761Y-94554761D02*
X146794523Y-94602380D01*
X146604047Y-94602380D01*
X146508809Y-94554761D01*
X146461190Y-94507142D01*
X146413571Y-94411904D01*
X146413571Y-94126190D01*
X146461190Y-94030952D01*
X146508809Y-93983333D01*
X146604047Y-93935714D01*
X146794523Y-93935714D01*
X146889761Y-93983333D01*
X147318333Y-94602380D02*
X147318333Y-93602380D01*
X147746904Y-94602380D02*
X147746904Y-94078571D01*
X147699285Y-93983333D01*
X147604047Y-93935714D01*
X147461190Y-93935714D01*
X147365952Y-93983333D01*
X147318333Y-94030952D01*
X136525000Y-69850000D02*
X134620000Y-69850000D01*
X137352738Y-69302380D02*
X137686071Y-70302380D01*
X138019404Y-69302380D01*
X138352738Y-70302380D02*
X138352738Y-69635714D01*
X138352738Y-69826190D02*
X138400357Y-69730952D01*
X138447976Y-69683333D01*
X138543214Y-69635714D01*
X138638452Y-69635714D01*
X139352738Y-70254761D02*
X139257500Y-70302380D01*
X139067023Y-70302380D01*
X138971785Y-70254761D01*
X138924166Y-70159523D01*
X138924166Y-69778571D01*
X138971785Y-69683333D01*
X139067023Y-69635714D01*
X139257500Y-69635714D01*
X139352738Y-69683333D01*
X139400357Y-69778571D01*
X139400357Y-69873809D01*
X138924166Y-69969047D01*
X139686071Y-69635714D02*
X140067023Y-69635714D01*
X139828928Y-70302380D02*
X139828928Y-69445238D01*
X139876547Y-69350000D01*
X139971785Y-69302380D01*
X140067023Y-69302380D01*
X134620000Y-90170000D02*
X136525000Y-90170000D01*
X138019404Y-89670000D02*
X137924166Y-89622380D01*
X137781309Y-89622380D01*
X137638452Y-89670000D01*
X137543214Y-89765238D01*
X137495595Y-89860476D01*
X137447976Y-90050952D01*
X137447976Y-90193809D01*
X137495595Y-90384285D01*
X137543214Y-90479523D01*
X137638452Y-90574761D01*
X137781309Y-90622380D01*
X137876547Y-90622380D01*
X138019404Y-90574761D01*
X138067023Y-90527142D01*
X138067023Y-90193809D01*
X137876547Y-90193809D01*
X138495595Y-90622380D02*
X138495595Y-89622380D01*
X139067023Y-90622380D01*
X139067023Y-89622380D01*
X139543214Y-90622380D02*
X139543214Y-89622380D01*
X139781309Y-89622380D01*
X139924166Y-89670000D01*
X140019404Y-89765238D01*
X140067023Y-89860476D01*
X140114642Y-90050952D01*
X140114642Y-90193809D01*
X140067023Y-90384285D01*
X140019404Y-90479523D01*
X139924166Y-90574761D01*
X139781309Y-90622380D01*
X139543214Y-90622380D01*
X137795000Y-87630000D02*
X138430000Y-88265000D01*
X134620000Y-87630000D02*
X137795000Y-87630000D01*
X139700000Y-85090000D02*
X140335000Y-85725000D01*
X139065000Y-85090000D02*
X139700000Y-85090000D01*
X134620000Y-85090000D02*
X139065000Y-85090000D01*
X139065000Y-72390000D02*
X139700000Y-73025000D01*
X138430000Y-74930000D02*
X139065000Y-75565000D01*
X139065000Y-77470000D02*
X139700000Y-78105000D01*
X139065000Y-82550000D02*
X139700000Y-83185000D01*
X134620000Y-82550000D02*
X139065000Y-82550000D01*
X136525000Y-80010000D02*
X137160000Y-80645000D01*
X134620000Y-80010000D02*
X136525000Y-80010000D01*
X134620000Y-77470000D02*
X139065000Y-77470000D01*
X134620000Y-74930000D02*
X138430000Y-74930000D01*
X134620000Y-72390000D02*
X139065000Y-72390000D01*
%TO.C,J2*%
X151443619Y-79724857D02*
X150443619Y-80058190D01*
X151443619Y-80391523D01*
X150443619Y-80724857D02*
X151110285Y-80724857D01*
X150919809Y-80724857D02*
X151015047Y-80772476D01*
X151062666Y-80820095D01*
X151110285Y-80915333D01*
X151110285Y-81010571D01*
X150491238Y-81724857D02*
X150443619Y-81629619D01*
X150443619Y-81439142D01*
X150491238Y-81343904D01*
X150586476Y-81296285D01*
X150967428Y-81296285D01*
X151062666Y-81343904D01*
X151110285Y-81439142D01*
X151110285Y-81629619D01*
X151062666Y-81724857D01*
X150967428Y-81772476D01*
X150872190Y-81772476D01*
X150776952Y-81296285D01*
X151110285Y-82058190D02*
X151110285Y-82439142D01*
X150443619Y-82201047D02*
X151300761Y-82201047D01*
X151396000Y-82248666D01*
X151443619Y-82343904D01*
X151443619Y-82439142D01*
X140511833Y-72914380D02*
X141083261Y-72914380D01*
X140797547Y-73914380D02*
X140797547Y-72914380D01*
X141988023Y-73819142D02*
X141940404Y-73866761D01*
X141797547Y-73914380D01*
X141702309Y-73914380D01*
X141559452Y-73866761D01*
X141464214Y-73771523D01*
X141416595Y-73676285D01*
X141368976Y-73485809D01*
X141368976Y-73342952D01*
X141416595Y-73152476D01*
X141464214Y-73057238D01*
X141559452Y-72962000D01*
X141702309Y-72914380D01*
X141797547Y-72914380D01*
X141940404Y-72962000D01*
X141988023Y-73009619D01*
X142416595Y-73914380D02*
X142416595Y-72914380D01*
X142988023Y-73914380D02*
X142559452Y-73342952D01*
X142988023Y-72914380D02*
X142416595Y-73485809D01*
X140416595Y-83074380D02*
X140988023Y-83074380D01*
X140702309Y-84074380D02*
X140702309Y-83074380D01*
X141321357Y-84074380D02*
X141321357Y-83074380D01*
X141654690Y-83788666D01*
X141988023Y-83074380D01*
X141988023Y-84074380D01*
X142416595Y-84026761D02*
X142559452Y-84074380D01*
X142797547Y-84074380D01*
X142892785Y-84026761D01*
X142940404Y-83979142D01*
X142988023Y-83883904D01*
X142988023Y-83788666D01*
X142940404Y-83693428D01*
X142892785Y-83645809D01*
X142797547Y-83598190D01*
X142607071Y-83550571D01*
X142511833Y-83502952D01*
X142464214Y-83455333D01*
X142416595Y-83360095D01*
X142416595Y-83264857D01*
X142464214Y-83169619D01*
X142511833Y-83122000D01*
X142607071Y-83074380D01*
X142845166Y-83074380D01*
X142988023Y-83122000D01*
X140464214Y-77994380D02*
X141035642Y-77994380D01*
X140749928Y-78994380D02*
X140749928Y-77994380D01*
X141368976Y-78994380D02*
X141368976Y-77994380D01*
X141607071Y-77994380D01*
X141749928Y-78042000D01*
X141845166Y-78137238D01*
X141892785Y-78232476D01*
X141940404Y-78422952D01*
X141940404Y-78565809D01*
X141892785Y-78756285D01*
X141845166Y-78851523D01*
X141749928Y-78946761D01*
X141607071Y-78994380D01*
X141368976Y-78994380D01*
X142559452Y-77994380D02*
X142749928Y-77994380D01*
X142845166Y-78042000D01*
X142940404Y-78137238D01*
X142988023Y-78327714D01*
X142988023Y-78661047D01*
X142940404Y-78851523D01*
X142845166Y-78946761D01*
X142749928Y-78994380D01*
X142559452Y-78994380D01*
X142464214Y-78946761D01*
X142368976Y-78851523D01*
X142321357Y-78661047D01*
X142321357Y-78327714D01*
X142368976Y-78137238D01*
X142464214Y-78042000D01*
X142559452Y-77994380D01*
X139797547Y-75454380D02*
X140368976Y-75454380D01*
X140083261Y-76454380D02*
X140083261Y-75454380D01*
X141273738Y-76454380D02*
X140940404Y-75978190D01*
X140702309Y-76454380D02*
X140702309Y-75454380D01*
X141083261Y-75454380D01*
X141178500Y-75502000D01*
X141226119Y-75549619D01*
X141273738Y-75644857D01*
X141273738Y-75787714D01*
X141226119Y-75882952D01*
X141178500Y-75930571D01*
X141083261Y-75978190D01*
X140702309Y-75978190D01*
X141654690Y-76406761D02*
X141797547Y-76454380D01*
X142035642Y-76454380D01*
X142130880Y-76406761D01*
X142178500Y-76359142D01*
X142226119Y-76263904D01*
X142226119Y-76168666D01*
X142178500Y-76073428D01*
X142130880Y-76025809D01*
X142035642Y-75978190D01*
X141845166Y-75930571D01*
X141749928Y-75882952D01*
X141702309Y-75835333D01*
X141654690Y-75740095D01*
X141654690Y-75644857D01*
X141702309Y-75549619D01*
X141749928Y-75502000D01*
X141845166Y-75454380D01*
X142083261Y-75454380D01*
X142226119Y-75502000D01*
X142511833Y-75454380D02*
X143083261Y-75454380D01*
X142797547Y-76454380D02*
X142797547Y-75454380D01*
X151396000Y-85400095D02*
X151443619Y-85304857D01*
X151443619Y-85162000D01*
X151396000Y-85019142D01*
X151300761Y-84923904D01*
X151205523Y-84876285D01*
X151015047Y-84828666D01*
X150872190Y-84828666D01*
X150681714Y-84876285D01*
X150586476Y-84923904D01*
X150491238Y-85019142D01*
X150443619Y-85162000D01*
X150443619Y-85257238D01*
X150491238Y-85400095D01*
X150538857Y-85447714D01*
X150872190Y-85447714D01*
X150872190Y-85257238D01*
X150443619Y-85876285D02*
X151443619Y-85876285D01*
X150443619Y-86447714D01*
X151443619Y-86447714D01*
X150443619Y-86923904D02*
X151443619Y-86923904D01*
X151443619Y-87162000D01*
X151396000Y-87304857D01*
X151300761Y-87400095D01*
X151205523Y-87447714D01*
X151015047Y-87495333D01*
X150872190Y-87495333D01*
X150681714Y-87447714D01*
X150586476Y-87400095D01*
X150491238Y-87304857D01*
X150443619Y-87162000D01*
X150443619Y-86923904D01*
X141035642Y-85614380D02*
X141607071Y-85614380D01*
X141321357Y-86614380D02*
X141321357Y-85614380D01*
X141940404Y-86614380D02*
X141940404Y-85614380D01*
X142178500Y-85614380D01*
X142321357Y-85662000D01*
X142416595Y-85757238D01*
X142464214Y-85852476D01*
X142511833Y-86042952D01*
X142511833Y-86185809D01*
X142464214Y-86376285D01*
X142416595Y-86471523D01*
X142321357Y-86566761D01*
X142178500Y-86614380D01*
X141940404Y-86614380D01*
X142940404Y-86614380D02*
X142940404Y-85614380D01*
X152983619Y-77391523D02*
X153983619Y-77391523D01*
X153983619Y-77629619D01*
X153936000Y-77772476D01*
X153840761Y-77867714D01*
X153745523Y-77915333D01*
X153555047Y-77962952D01*
X153412190Y-77962952D01*
X153221714Y-77915333D01*
X153126476Y-77867714D01*
X153031238Y-77772476D01*
X152983619Y-77629619D01*
X152983619Y-77391523D01*
X153507428Y-78391523D02*
X153507428Y-78724857D01*
X152983619Y-78867714D02*
X152983619Y-78391523D01*
X153983619Y-78391523D01*
X153983619Y-78867714D01*
X153507428Y-79629619D02*
X153459809Y-79772476D01*
X153412190Y-79820095D01*
X153316952Y-79867714D01*
X153174095Y-79867714D01*
X153078857Y-79820095D01*
X153031238Y-79772476D01*
X152983619Y-79677238D01*
X152983619Y-79296285D01*
X153983619Y-79296285D01*
X153983619Y-79629619D01*
X153936000Y-79724857D01*
X153888380Y-79772476D01*
X153793142Y-79820095D01*
X153697904Y-79820095D01*
X153602666Y-79772476D01*
X153555047Y-79724857D01*
X153507428Y-79629619D01*
X153507428Y-79296285D01*
X153983619Y-80296285D02*
X153174095Y-80296285D01*
X153078857Y-80343904D01*
X153031238Y-80391523D01*
X152983619Y-80486761D01*
X152983619Y-80677238D01*
X153031238Y-80772476D01*
X153078857Y-80820095D01*
X153174095Y-80867714D01*
X153983619Y-80867714D01*
X153936000Y-81867714D02*
X153983619Y-81772476D01*
X153983619Y-81629619D01*
X153936000Y-81486761D01*
X153840761Y-81391523D01*
X153745523Y-81343904D01*
X153555047Y-81296285D01*
X153412190Y-81296285D01*
X153221714Y-81343904D01*
X153126476Y-81391523D01*
X153031238Y-81486761D01*
X152983619Y-81629619D01*
X152983619Y-81724857D01*
X153031238Y-81867714D01*
X153078857Y-81915333D01*
X153412190Y-81915333D01*
X153412190Y-81724857D01*
X153936000Y-82867714D02*
X153983619Y-82772476D01*
X153983619Y-82629619D01*
X153936000Y-82486761D01*
X153840761Y-82391523D01*
X153745523Y-82343904D01*
X153555047Y-82296285D01*
X153412190Y-82296285D01*
X153221714Y-82343904D01*
X153126476Y-82391523D01*
X153031238Y-82486761D01*
X152983619Y-82629619D01*
X152983619Y-82724857D01*
X153031238Y-82867714D01*
X153078857Y-82915333D01*
X153412190Y-82915333D01*
X153412190Y-82724857D01*
X153507428Y-83343904D02*
X153507428Y-83677238D01*
X152983619Y-83820095D02*
X152983619Y-83343904D01*
X153983619Y-83343904D01*
X153983619Y-83820095D01*
X152983619Y-84820095D02*
X153459809Y-84486761D01*
X152983619Y-84248666D02*
X153983619Y-84248666D01*
X153983619Y-84629619D01*
X153936000Y-84724857D01*
X153888380Y-84772476D01*
X153793142Y-84820095D01*
X153650285Y-84820095D01*
X153555047Y-84772476D01*
X153507428Y-84724857D01*
X153459809Y-84629619D01*
X153459809Y-84248666D01*
X151396000Y-75240095D02*
X151443619Y-75144857D01*
X151443619Y-75002000D01*
X151396000Y-74859142D01*
X151300761Y-74763904D01*
X151205523Y-74716285D01*
X151015047Y-74668666D01*
X150872190Y-74668666D01*
X150681714Y-74716285D01*
X150586476Y-74763904D01*
X150491238Y-74859142D01*
X150443619Y-75002000D01*
X150443619Y-75097238D01*
X150491238Y-75240095D01*
X150538857Y-75287714D01*
X150872190Y-75287714D01*
X150872190Y-75097238D01*
X150443619Y-75716285D02*
X151443619Y-75716285D01*
X150443619Y-76287714D01*
X151443619Y-76287714D01*
X150443619Y-76763904D02*
X151443619Y-76763904D01*
X151443619Y-77002000D01*
X151396000Y-77144857D01*
X151300761Y-77240095D01*
X151205523Y-77287714D01*
X151015047Y-77335333D01*
X150872190Y-77335333D01*
X150681714Y-77287714D01*
X150586476Y-77240095D01*
X150491238Y-77144857D01*
X150443619Y-77002000D01*
X150443619Y-76763904D01*
X137654690Y-81248666D02*
X138130880Y-81248666D01*
X137559452Y-81534380D02*
X137892785Y-80534380D01*
X138226119Y-81534380D01*
X138511833Y-81486761D02*
X138654690Y-81534380D01*
X138892785Y-81534380D01*
X138988023Y-81486761D01*
X139035642Y-81439142D01*
X139083261Y-81343904D01*
X139083261Y-81248666D01*
X139035642Y-81153428D01*
X138988023Y-81105809D01*
X138892785Y-81058190D01*
X138702309Y-81010571D01*
X138607071Y-80962952D01*
X138559452Y-80915333D01*
X138511833Y-80820095D01*
X138511833Y-80724857D01*
X138559452Y-80629619D01*
X138607071Y-80582000D01*
X138702309Y-80534380D01*
X138940404Y-80534380D01*
X139083261Y-80582000D01*
X139511833Y-81010571D02*
X139845166Y-81010571D01*
X139988023Y-81534380D02*
X139511833Y-81534380D01*
X139511833Y-80534380D01*
X139988023Y-80534380D01*
X140749928Y-81010571D02*
X140892785Y-81058190D01*
X140940404Y-81105809D01*
X140988023Y-81201047D01*
X140988023Y-81343904D01*
X140940404Y-81439142D01*
X140892785Y-81486761D01*
X140797547Y-81534380D01*
X140416595Y-81534380D01*
X140416595Y-80534380D01*
X140749928Y-80534380D01*
X140845166Y-80582000D01*
X140892785Y-80629619D01*
X140940404Y-80724857D01*
X140940404Y-80820095D01*
X140892785Y-80915333D01*
X140845166Y-80962952D01*
X140749928Y-81010571D01*
X140416595Y-81010571D01*
X141988023Y-81534380D02*
X141654690Y-81058190D01*
X141416595Y-81534380D02*
X141416595Y-80534380D01*
X141797547Y-80534380D01*
X141892785Y-80582000D01*
X141940404Y-80629619D01*
X141988023Y-80724857D01*
X141988023Y-80867714D01*
X141940404Y-80962952D01*
X141892785Y-81010571D01*
X141797547Y-81058190D01*
X141416595Y-81058190D01*
X142416595Y-81534380D02*
X142416595Y-80534380D01*
X142988023Y-81534380D02*
X142559452Y-80962952D01*
X142988023Y-80534380D02*
X142416595Y-81105809D01*
X139464214Y-89154380D02*
X139130880Y-88678190D01*
X138892785Y-89154380D02*
X138892785Y-88154380D01*
X139273738Y-88154380D01*
X139368976Y-88202000D01*
X139416595Y-88249619D01*
X139464214Y-88344857D01*
X139464214Y-88487714D01*
X139416595Y-88582952D01*
X139368976Y-88630571D01*
X139273738Y-88678190D01*
X138892785Y-88678190D01*
X139892785Y-88630571D02*
X140226119Y-88630571D01*
X140368976Y-89154380D02*
X139892785Y-89154380D01*
X139892785Y-88154380D01*
X140368976Y-88154380D01*
X140749928Y-89106761D02*
X140892785Y-89154380D01*
X141130880Y-89154380D01*
X141226119Y-89106761D01*
X141273738Y-89059142D01*
X141321357Y-88963904D01*
X141321357Y-88868666D01*
X141273738Y-88773428D01*
X141226119Y-88725809D01*
X141130880Y-88678190D01*
X140940404Y-88630571D01*
X140845166Y-88582952D01*
X140797547Y-88535333D01*
X140749928Y-88440095D01*
X140749928Y-88344857D01*
X140797547Y-88249619D01*
X140845166Y-88202000D01*
X140940404Y-88154380D01*
X141178500Y-88154380D01*
X141321357Y-88202000D01*
X141749928Y-88630571D02*
X142083261Y-88630571D01*
X142226119Y-89154380D02*
X141749928Y-89154380D01*
X141749928Y-88154380D01*
X142226119Y-88154380D01*
X142511833Y-88154380D02*
X143083261Y-88154380D01*
X142797547Y-89154380D02*
X142797547Y-88154380D01*
%TO.C,J4*%
X113978595Y-83074380D02*
X114550023Y-83074380D01*
X114264309Y-84074380D02*
X114264309Y-83074380D01*
X114883357Y-84074380D02*
X114883357Y-83074380D01*
X115216690Y-83788666D01*
X115550023Y-83074380D01*
X115550023Y-84074380D01*
X115978595Y-84026761D02*
X116121452Y-84074380D01*
X116359547Y-84074380D01*
X116454785Y-84026761D01*
X116502404Y-83979142D01*
X116550023Y-83883904D01*
X116550023Y-83788666D01*
X116502404Y-83693428D01*
X116454785Y-83645809D01*
X116359547Y-83598190D01*
X116169071Y-83550571D01*
X116073833Y-83502952D01*
X116026214Y-83455333D01*
X115978595Y-83360095D01*
X115978595Y-83264857D01*
X116026214Y-83169619D01*
X116073833Y-83122000D01*
X116169071Y-83074380D01*
X116407166Y-83074380D01*
X116550023Y-83122000D01*
X114073833Y-72914380D02*
X114645261Y-72914380D01*
X114359547Y-73914380D02*
X114359547Y-72914380D01*
X115550023Y-73819142D02*
X115502404Y-73866761D01*
X115359547Y-73914380D01*
X115264309Y-73914380D01*
X115121452Y-73866761D01*
X115026214Y-73771523D01*
X114978595Y-73676285D01*
X114930976Y-73485809D01*
X114930976Y-73342952D01*
X114978595Y-73152476D01*
X115026214Y-73057238D01*
X115121452Y-72962000D01*
X115264309Y-72914380D01*
X115359547Y-72914380D01*
X115502404Y-72962000D01*
X115550023Y-73009619D01*
X115978595Y-73914380D02*
X115978595Y-72914380D01*
X116550023Y-73914380D02*
X116121452Y-73342952D01*
X116550023Y-72914380D02*
X115978595Y-73485809D01*
X114026214Y-77994380D02*
X114597642Y-77994380D01*
X114311928Y-78994380D02*
X114311928Y-77994380D01*
X114930976Y-78994380D02*
X114930976Y-77994380D01*
X115169071Y-77994380D01*
X115311928Y-78042000D01*
X115407166Y-78137238D01*
X115454785Y-78232476D01*
X115502404Y-78422952D01*
X115502404Y-78565809D01*
X115454785Y-78756285D01*
X115407166Y-78851523D01*
X115311928Y-78946761D01*
X115169071Y-78994380D01*
X114930976Y-78994380D01*
X116121452Y-77994380D02*
X116311928Y-77994380D01*
X116407166Y-78042000D01*
X116502404Y-78137238D01*
X116550023Y-78327714D01*
X116550023Y-78661047D01*
X116502404Y-78851523D01*
X116407166Y-78946761D01*
X116311928Y-78994380D01*
X116121452Y-78994380D01*
X116026214Y-78946761D01*
X115930976Y-78851523D01*
X115883357Y-78661047D01*
X115883357Y-78327714D01*
X115930976Y-78137238D01*
X116026214Y-78042000D01*
X116121452Y-77994380D01*
X113359547Y-75454380D02*
X113930976Y-75454380D01*
X113645261Y-76454380D02*
X113645261Y-75454380D01*
X114835738Y-76454380D02*
X114502404Y-75978190D01*
X114264309Y-76454380D02*
X114264309Y-75454380D01*
X114645261Y-75454380D01*
X114740500Y-75502000D01*
X114788119Y-75549619D01*
X114835738Y-75644857D01*
X114835738Y-75787714D01*
X114788119Y-75882952D01*
X114740500Y-75930571D01*
X114645261Y-75978190D01*
X114264309Y-75978190D01*
X115216690Y-76406761D02*
X115359547Y-76454380D01*
X115597642Y-76454380D01*
X115692880Y-76406761D01*
X115740500Y-76359142D01*
X115788119Y-76263904D01*
X115788119Y-76168666D01*
X115740500Y-76073428D01*
X115692880Y-76025809D01*
X115597642Y-75978190D01*
X115407166Y-75930571D01*
X115311928Y-75882952D01*
X115264309Y-75835333D01*
X115216690Y-75740095D01*
X115216690Y-75644857D01*
X115264309Y-75549619D01*
X115311928Y-75502000D01*
X115407166Y-75454380D01*
X115645261Y-75454380D01*
X115788119Y-75502000D01*
X116073833Y-75454380D02*
X116645261Y-75454380D01*
X116359547Y-76454380D02*
X116359547Y-75454380D01*
X124958000Y-75240095D02*
X125005619Y-75144857D01*
X125005619Y-75002000D01*
X124958000Y-74859142D01*
X124862761Y-74763904D01*
X124767523Y-74716285D01*
X124577047Y-74668666D01*
X124434190Y-74668666D01*
X124243714Y-74716285D01*
X124148476Y-74763904D01*
X124053238Y-74859142D01*
X124005619Y-75002000D01*
X124005619Y-75097238D01*
X124053238Y-75240095D01*
X124100857Y-75287714D01*
X124434190Y-75287714D01*
X124434190Y-75097238D01*
X124005619Y-75716285D02*
X125005619Y-75716285D01*
X124005619Y-76287714D01*
X125005619Y-76287714D01*
X124005619Y-76763904D02*
X125005619Y-76763904D01*
X125005619Y-77002000D01*
X124958000Y-77144857D01*
X124862761Y-77240095D01*
X124767523Y-77287714D01*
X124577047Y-77335333D01*
X124434190Y-77335333D01*
X124243714Y-77287714D01*
X124148476Y-77240095D01*
X124053238Y-77144857D01*
X124005619Y-77002000D01*
X124005619Y-76763904D01*
X126545619Y-77391523D02*
X127545619Y-77391523D01*
X127545619Y-77629619D01*
X127498000Y-77772476D01*
X127402761Y-77867714D01*
X127307523Y-77915333D01*
X127117047Y-77962952D01*
X126974190Y-77962952D01*
X126783714Y-77915333D01*
X126688476Y-77867714D01*
X126593238Y-77772476D01*
X126545619Y-77629619D01*
X126545619Y-77391523D01*
X127069428Y-78391523D02*
X127069428Y-78724857D01*
X126545619Y-78867714D02*
X126545619Y-78391523D01*
X127545619Y-78391523D01*
X127545619Y-78867714D01*
X127069428Y-79629619D02*
X127021809Y-79772476D01*
X126974190Y-79820095D01*
X126878952Y-79867714D01*
X126736095Y-79867714D01*
X126640857Y-79820095D01*
X126593238Y-79772476D01*
X126545619Y-79677238D01*
X126545619Y-79296285D01*
X127545619Y-79296285D01*
X127545619Y-79629619D01*
X127498000Y-79724857D01*
X127450380Y-79772476D01*
X127355142Y-79820095D01*
X127259904Y-79820095D01*
X127164666Y-79772476D01*
X127117047Y-79724857D01*
X127069428Y-79629619D01*
X127069428Y-79296285D01*
X127545619Y-80296285D02*
X126736095Y-80296285D01*
X126640857Y-80343904D01*
X126593238Y-80391523D01*
X126545619Y-80486761D01*
X126545619Y-80677238D01*
X126593238Y-80772476D01*
X126640857Y-80820095D01*
X126736095Y-80867714D01*
X127545619Y-80867714D01*
X127498000Y-81867714D02*
X127545619Y-81772476D01*
X127545619Y-81629619D01*
X127498000Y-81486761D01*
X127402761Y-81391523D01*
X127307523Y-81343904D01*
X127117047Y-81296285D01*
X126974190Y-81296285D01*
X126783714Y-81343904D01*
X126688476Y-81391523D01*
X126593238Y-81486761D01*
X126545619Y-81629619D01*
X126545619Y-81724857D01*
X126593238Y-81867714D01*
X126640857Y-81915333D01*
X126974190Y-81915333D01*
X126974190Y-81724857D01*
X127498000Y-82867714D02*
X127545619Y-82772476D01*
X127545619Y-82629619D01*
X127498000Y-82486761D01*
X127402761Y-82391523D01*
X127307523Y-82343904D01*
X127117047Y-82296285D01*
X126974190Y-82296285D01*
X126783714Y-82343904D01*
X126688476Y-82391523D01*
X126593238Y-82486761D01*
X126545619Y-82629619D01*
X126545619Y-82724857D01*
X126593238Y-82867714D01*
X126640857Y-82915333D01*
X126974190Y-82915333D01*
X126974190Y-82724857D01*
X127069428Y-83343904D02*
X127069428Y-83677238D01*
X126545619Y-83820095D02*
X126545619Y-83343904D01*
X127545619Y-83343904D01*
X127545619Y-83820095D01*
X126545619Y-84820095D02*
X127021809Y-84486761D01*
X126545619Y-84248666D02*
X127545619Y-84248666D01*
X127545619Y-84629619D01*
X127498000Y-84724857D01*
X127450380Y-84772476D01*
X127355142Y-84820095D01*
X127212285Y-84820095D01*
X127117047Y-84772476D01*
X127069428Y-84724857D01*
X127021809Y-84629619D01*
X127021809Y-84248666D01*
X124958000Y-85400095D02*
X125005619Y-85304857D01*
X125005619Y-85162000D01*
X124958000Y-85019142D01*
X124862761Y-84923904D01*
X124767523Y-84876285D01*
X124577047Y-84828666D01*
X124434190Y-84828666D01*
X124243714Y-84876285D01*
X124148476Y-84923904D01*
X124053238Y-85019142D01*
X124005619Y-85162000D01*
X124005619Y-85257238D01*
X124053238Y-85400095D01*
X124100857Y-85447714D01*
X124434190Y-85447714D01*
X124434190Y-85257238D01*
X124005619Y-85876285D02*
X125005619Y-85876285D01*
X124005619Y-86447714D01*
X125005619Y-86447714D01*
X124005619Y-86923904D02*
X125005619Y-86923904D01*
X125005619Y-87162000D01*
X124958000Y-87304857D01*
X124862761Y-87400095D01*
X124767523Y-87447714D01*
X124577047Y-87495333D01*
X124434190Y-87495333D01*
X124243714Y-87447714D01*
X124148476Y-87400095D01*
X124053238Y-87304857D01*
X124005619Y-87162000D01*
X124005619Y-86923904D01*
X113026214Y-89154380D02*
X112692880Y-88678190D01*
X112454785Y-89154380D02*
X112454785Y-88154380D01*
X112835738Y-88154380D01*
X112930976Y-88202000D01*
X112978595Y-88249619D01*
X113026214Y-88344857D01*
X113026214Y-88487714D01*
X112978595Y-88582952D01*
X112930976Y-88630571D01*
X112835738Y-88678190D01*
X112454785Y-88678190D01*
X113454785Y-88630571D02*
X113788119Y-88630571D01*
X113930976Y-89154380D02*
X113454785Y-89154380D01*
X113454785Y-88154380D01*
X113930976Y-88154380D01*
X114311928Y-89106761D02*
X114454785Y-89154380D01*
X114692880Y-89154380D01*
X114788119Y-89106761D01*
X114835738Y-89059142D01*
X114883357Y-88963904D01*
X114883357Y-88868666D01*
X114835738Y-88773428D01*
X114788119Y-88725809D01*
X114692880Y-88678190D01*
X114502404Y-88630571D01*
X114407166Y-88582952D01*
X114359547Y-88535333D01*
X114311928Y-88440095D01*
X114311928Y-88344857D01*
X114359547Y-88249619D01*
X114407166Y-88202000D01*
X114502404Y-88154380D01*
X114740500Y-88154380D01*
X114883357Y-88202000D01*
X115311928Y-88630571D02*
X115645261Y-88630571D01*
X115788119Y-89154380D02*
X115311928Y-89154380D01*
X115311928Y-88154380D01*
X115788119Y-88154380D01*
X116073833Y-88154380D02*
X116645261Y-88154380D01*
X116359547Y-89154380D02*
X116359547Y-88154380D01*
X125005619Y-79724857D02*
X124005619Y-80058190D01*
X125005619Y-80391523D01*
X124005619Y-80724857D02*
X124672285Y-80724857D01*
X124481809Y-80724857D02*
X124577047Y-80772476D01*
X124624666Y-80820095D01*
X124672285Y-80915333D01*
X124672285Y-81010571D01*
X124053238Y-81724857D02*
X124005619Y-81629619D01*
X124005619Y-81439142D01*
X124053238Y-81343904D01*
X124148476Y-81296285D01*
X124529428Y-81296285D01*
X124624666Y-81343904D01*
X124672285Y-81439142D01*
X124672285Y-81629619D01*
X124624666Y-81724857D01*
X124529428Y-81772476D01*
X124434190Y-81772476D01*
X124338952Y-81296285D01*
X124672285Y-82058190D02*
X124672285Y-82439142D01*
X124005619Y-82201047D02*
X124862761Y-82201047D01*
X124958000Y-82248666D01*
X125005619Y-82343904D01*
X125005619Y-82439142D01*
X111216690Y-81248666D02*
X111692880Y-81248666D01*
X111121452Y-81534380D02*
X111454785Y-80534380D01*
X111788119Y-81534380D01*
X112073833Y-81486761D02*
X112216690Y-81534380D01*
X112454785Y-81534380D01*
X112550023Y-81486761D01*
X112597642Y-81439142D01*
X112645261Y-81343904D01*
X112645261Y-81248666D01*
X112597642Y-81153428D01*
X112550023Y-81105809D01*
X112454785Y-81058190D01*
X112264309Y-81010571D01*
X112169071Y-80962952D01*
X112121452Y-80915333D01*
X112073833Y-80820095D01*
X112073833Y-80724857D01*
X112121452Y-80629619D01*
X112169071Y-80582000D01*
X112264309Y-80534380D01*
X112502404Y-80534380D01*
X112645261Y-80582000D01*
X113073833Y-81010571D02*
X113407166Y-81010571D01*
X113550023Y-81534380D02*
X113073833Y-81534380D01*
X113073833Y-80534380D01*
X113550023Y-80534380D01*
X114311928Y-81010571D02*
X114454785Y-81058190D01*
X114502404Y-81105809D01*
X114550023Y-81201047D01*
X114550023Y-81343904D01*
X114502404Y-81439142D01*
X114454785Y-81486761D01*
X114359547Y-81534380D01*
X113978595Y-81534380D01*
X113978595Y-80534380D01*
X114311928Y-80534380D01*
X114407166Y-80582000D01*
X114454785Y-80629619D01*
X114502404Y-80724857D01*
X114502404Y-80820095D01*
X114454785Y-80915333D01*
X114407166Y-80962952D01*
X114311928Y-81010571D01*
X113978595Y-81010571D01*
X115550023Y-81534380D02*
X115216690Y-81058190D01*
X114978595Y-81534380D02*
X114978595Y-80534380D01*
X115359547Y-80534380D01*
X115454785Y-80582000D01*
X115502404Y-80629619D01*
X115550023Y-80724857D01*
X115550023Y-80867714D01*
X115502404Y-80962952D01*
X115454785Y-81010571D01*
X115359547Y-81058190D01*
X114978595Y-81058190D01*
X115978595Y-81534380D02*
X115978595Y-80534380D01*
X116550023Y-81534380D02*
X116121452Y-80962952D01*
X116550023Y-80534380D02*
X115978595Y-81105809D01*
X114597642Y-85614380D02*
X115169071Y-85614380D01*
X114883357Y-86614380D02*
X114883357Y-85614380D01*
X115502404Y-86614380D02*
X115502404Y-85614380D01*
X115740500Y-85614380D01*
X115883357Y-85662000D01*
X115978595Y-85757238D01*
X116026214Y-85852476D01*
X116073833Y-86042952D01*
X116073833Y-86185809D01*
X116026214Y-86376285D01*
X115978595Y-86471523D01*
X115883357Y-86566761D01*
X115740500Y-86614380D01*
X115502404Y-86614380D01*
X116502404Y-86614380D02*
X116502404Y-85614380D01*
D11*
%TO.C,J3*%
X134680000Y-68530000D02*
X134680000Y-69860000D01*
X132020000Y-71130000D02*
X132020000Y-91510000D01*
X132020000Y-91510000D02*
X134680000Y-91510000D01*
X132020000Y-71130000D02*
X134680000Y-71130000D01*
X134680000Y-71130000D02*
X134680000Y-91510000D01*
X133350000Y-68530000D02*
X134680000Y-68530000D01*
%TO.C,J1*%
X124206000Y-95698000D02*
X134426000Y-95698000D01*
X121606000Y-97028000D02*
X121606000Y-95698000D01*
X121606000Y-100898000D02*
X121606000Y-98298000D01*
X124206000Y-98298000D02*
X124206000Y-95698000D01*
X121606000Y-98298000D02*
X124206000Y-98298000D01*
X121606000Y-95698000D02*
X122936000Y-95698000D01*
X134426000Y-100898000D02*
X134426000Y-95698000D01*
X121606000Y-100898000D02*
X134426000Y-100898000D01*
%TO.C,J2*%
X150896000Y-82987000D02*
X152166000Y-82987000D01*
X152166000Y-79177000D02*
X150896000Y-79177000D01*
X152166000Y-82987000D02*
X152166000Y-89337000D01*
X152166000Y-89337000D02*
X150896000Y-89337000D01*
X144546000Y-70922000D02*
X143276000Y-70922000D01*
X152166000Y-72827000D02*
X152166000Y-79177000D01*
X143276000Y-70922000D02*
X143276000Y-72192000D01*
X150896000Y-72827000D02*
X152166000Y-72827000D01*
%TO.C,J4*%
X118108000Y-70922000D02*
X116838000Y-70922000D01*
X124458000Y-82987000D02*
X125728000Y-82987000D01*
X124458000Y-72827000D02*
X125728000Y-72827000D01*
X125728000Y-72827000D02*
X125728000Y-79177000D01*
X116838000Y-70922000D02*
X116838000Y-72192000D01*
X125728000Y-79177000D02*
X124458000Y-79177000D01*
X125728000Y-89337000D02*
X124458000Y-89337000D01*
X125728000Y-82987000D02*
X125728000Y-89337000D01*
%TD*%
%LPC*%
D12*
%TO.C,J3*%
X133350000Y-69860000D03*
D13*
X133350000Y-72400000D03*
X133350000Y-74940000D03*
X133350000Y-77480000D03*
X133350000Y-80020000D03*
X133350000Y-82560000D03*
X133350000Y-85100000D03*
X133350000Y-87640000D03*
X133350000Y-90180000D03*
%TD*%
D14*
%TO.C,H3*%
X112395000Y-70485000D03*
%TD*%
D12*
%TO.C,J1*%
X122936000Y-97028000D03*
D13*
X122936000Y-99568000D03*
X125476000Y-97028000D03*
X125476000Y-99568000D03*
X128016000Y-97028000D03*
X128016000Y-99568000D03*
X130556000Y-97028000D03*
X130556000Y-99568000D03*
X133096000Y-97028000D03*
X133096000Y-99568000D03*
%TD*%
D14*
%TO.C,H4*%
X152400000Y-70485000D03*
%TD*%
D12*
%TO.C,J2*%
X145816000Y-73462000D03*
D13*
X145816000Y-76002000D03*
X145816000Y-78542000D03*
X145816000Y-81082000D03*
X145816000Y-83622000D03*
X145816000Y-86162000D03*
X145816000Y-88702000D03*
X148356000Y-73462000D03*
X148356000Y-76002000D03*
X148356000Y-78542000D03*
X148356000Y-81082000D03*
X148356000Y-83622000D03*
X148356000Y-86162000D03*
X148356000Y-88702000D03*
%TD*%
D14*
%TO.C,H2*%
X152400000Y-99695000D03*
%TD*%
%TO.C,H1*%
X112395000Y-99695000D03*
%TD*%
D12*
%TO.C,J4*%
X119378000Y-73462000D03*
D13*
X119378000Y-76002000D03*
X119378000Y-78542000D03*
X119378000Y-81082000D03*
X119378000Y-83622000D03*
X119378000Y-86162000D03*
X119378000Y-88702000D03*
X121918000Y-73462000D03*
X121918000Y-76002000D03*
X121918000Y-78542000D03*
X121918000Y-81082000D03*
X121918000Y-83622000D03*
X121918000Y-86162000D03*
X121918000Y-88702000D03*
%TD*%
M02*
