%TF.GenerationSoftware,KiCad,Pcbnew,(6.0.8)*%
%TF.CreationDate,2022-10-22T10:51:26-05:00*%
%TF.ProjectId,jtag_sniff_pcb,6a746167-5f73-46e6-9966-665f7063622e,rev?*%
%TF.SameCoordinates,Original*%
%TF.FileFunction,Soldermask,Top*%
%TF.FilePolarity,Negative*%
%FSLAX46Y46*%
G04 Gerber Fmt 4.6, Leading zero omitted, Abs format (unit mm)*
G04 Created by KiCad (PCBNEW (6.0.8)) date 2022-10-22 10:51:26*
%MOMM*%
%LPD*%
G01*
G04 APERTURE LIST*
%ADD10R,1.700000X1.700000*%
%ADD11O,1.700000X1.700000*%
%ADD12C,3.000000*%
G04 APERTURE END LIST*
D10*
%TO.C,J3*%
X133350000Y-69860000D03*
D11*
X133350000Y-72400000D03*
X133350000Y-74940000D03*
X133350000Y-77480000D03*
X133350000Y-80020000D03*
X133350000Y-82560000D03*
X133350000Y-85100000D03*
X133350000Y-87640000D03*
X133350000Y-90180000D03*
%TD*%
D12*
%TO.C,H3*%
X112395000Y-70485000D03*
%TD*%
D10*
%TO.C,J1*%
X122936000Y-97028000D03*
D11*
X122936000Y-99568000D03*
X125476000Y-97028000D03*
X125476000Y-99568000D03*
X128016000Y-97028000D03*
X128016000Y-99568000D03*
X130556000Y-97028000D03*
X130556000Y-99568000D03*
X133096000Y-97028000D03*
X133096000Y-99568000D03*
%TD*%
D12*
%TO.C,H4*%
X152400000Y-70485000D03*
%TD*%
D10*
%TO.C,J2*%
X145816000Y-73462000D03*
D11*
X145816000Y-76002000D03*
X145816000Y-78542000D03*
X145816000Y-81082000D03*
X145816000Y-83622000D03*
X145816000Y-86162000D03*
X145816000Y-88702000D03*
X148356000Y-73462000D03*
X148356000Y-76002000D03*
X148356000Y-78542000D03*
X148356000Y-81082000D03*
X148356000Y-83622000D03*
X148356000Y-86162000D03*
X148356000Y-88702000D03*
%TD*%
D12*
%TO.C,H2*%
X152400000Y-99695000D03*
%TD*%
%TO.C,H1*%
X112395000Y-99695000D03*
%TD*%
D10*
%TO.C,J4*%
X119378000Y-73462000D03*
D11*
X119378000Y-76002000D03*
X119378000Y-78542000D03*
X119378000Y-81082000D03*
X119378000Y-83622000D03*
X119378000Y-86162000D03*
X119378000Y-88702000D03*
X121918000Y-73462000D03*
X121918000Y-76002000D03*
X121918000Y-78542000D03*
X121918000Y-81082000D03*
X121918000Y-83622000D03*
X121918000Y-86162000D03*
X121918000Y-88702000D03*
%TD*%
M02*
