%TF.GenerationSoftware,KiCad,Pcbnew,(6.0.8)*%
%TF.CreationDate,2022-10-22T10:51:26-05:00*%
%TF.ProjectId,jtag_sniff_pcb,6a746167-5f73-46e6-9966-665f7063622e,rev?*%
%TF.SameCoordinates,Original*%
%TF.FileFunction,Copper,L2,Bot*%
%TF.FilePolarity,Positive*%
%FSLAX46Y46*%
G04 Gerber Fmt 4.6, Leading zero omitted, Abs format (unit mm)*
G04 Created by KiCad (PCBNEW (6.0.8)) date 2022-10-22 10:51:26*
%MOMM*%
%LPD*%
G01*
G04 APERTURE LIST*
%TA.AperFunction,ComponentPad*%
%ADD10R,1.700000X1.700000*%
%TD*%
%TA.AperFunction,ComponentPad*%
%ADD11O,1.700000X1.700000*%
%TD*%
%TA.AperFunction,ViaPad*%
%ADD12C,0.800000*%
%TD*%
%TA.AperFunction,Conductor*%
%ADD13C,0.250000*%
%TD*%
G04 APERTURE END LIST*
D10*
%TO.P,J3,1,Pin_1*%
%TO.N,VCC*%
X133350000Y-69860000D03*
D11*
%TO.P,J3,2,Pin_2*%
%TO.N,/TCK*%
X133350000Y-72400000D03*
%TO.P,J3,3,Pin_3*%
%TO.N,/TRST*%
X133350000Y-74940000D03*
%TO.P,J3,4,Pin_4*%
%TO.N,/TDO*%
X133350000Y-77480000D03*
%TO.P,J3,5,Pin_5*%
%TO.N,/ASEBRK*%
X133350000Y-80020000D03*
%TO.P,J3,6,Pin_6*%
%TO.N,/TMS*%
X133350000Y-82560000D03*
%TO.P,J3,7,Pin_7*%
%TO.N,/TDI*%
X133350000Y-85100000D03*
%TO.P,J3,8,Pin_8*%
%TO.N,/RESET*%
X133350000Y-87640000D03*
%TO.P,J3,9,Pin_9*%
%TO.N,GND*%
X133350000Y-90180000D03*
%TD*%
D10*
%TO.P,J1,1,Pin_1*%
%TO.N,/TCK*%
X122936000Y-97028000D03*
D11*
%TO.P,J1,2,Pin_2*%
%TO.N,/TRST*%
X122936000Y-99568000D03*
%TO.P,J1,3,Pin_3*%
%TO.N,/TDO*%
X125476000Y-97028000D03*
%TO.P,J1,4,Pin_4*%
%TO.N,/ASEBRK*%
X125476000Y-99568000D03*
%TO.P,J1,5,Pin_5*%
%TO.N,/TMS*%
X128016000Y-97028000D03*
%TO.P,J1,6,Pin_6*%
%TO.N,/TDI*%
X128016000Y-99568000D03*
%TO.P,J1,7,Pin_7*%
%TO.N,/RESET*%
X130556000Y-97028000D03*
%TO.P,J1,8,Pin_8*%
%TO.N,unconnected-(J1-Pad8)*%
X130556000Y-99568000D03*
%TO.P,J1,9,Pin_9*%
%TO.N,unconnected-(J1-Pad9)*%
X133096000Y-97028000D03*
%TO.P,J1,10,Pin_10*%
%TO.N,GND*%
X133096000Y-99568000D03*
%TD*%
D10*
%TO.P,J2,1,Pin_1*%
%TO.N,/TCK*%
X145816000Y-73462000D03*
D11*
%TO.P,J2,2,Pin_2*%
%TO.N,/TRST*%
X145816000Y-76002000D03*
%TO.P,J2,3,Pin_3*%
%TO.N,/TDO*%
X145816000Y-78542000D03*
%TO.P,J2,4,Pin_4*%
%TO.N,/ASEBRK*%
X145816000Y-81082000D03*
%TO.P,J2,5,Pin_5*%
%TO.N,/TMS*%
X145816000Y-83622000D03*
%TO.P,J2,6,Pin_6*%
%TO.N,/TDI*%
X145816000Y-86162000D03*
%TO.P,J2,7,Pin_7*%
%TO.N,/RESET*%
X145816000Y-88702000D03*
%TO.P,J2,8,Pin_8*%
%TO.N,GND*%
X148356000Y-73462000D03*
%TO.P,J2,9,Pin_9*%
X148356000Y-76002000D03*
%TO.P,J2,10,Pin_10*%
X148356000Y-78542000D03*
%TO.P,J2,11,Pin_11*%
%TO.N,VCC*%
X148356000Y-81082000D03*
%TO.P,J2,12,Pin_12*%
%TO.N,GND*%
X148356000Y-83622000D03*
%TO.P,J2,13,Pin_13*%
X148356000Y-86162000D03*
%TO.P,J2,14,Pin_14*%
X148356000Y-88702000D03*
%TD*%
D10*
%TO.P,J4,1,Pin_1*%
%TO.N,/TCK*%
X119378000Y-73462000D03*
D11*
%TO.P,J4,2,Pin_2*%
%TO.N,/TRST*%
X119378000Y-76002000D03*
%TO.P,J4,3,Pin_3*%
%TO.N,/TDO*%
X119378000Y-78542000D03*
%TO.P,J4,4,Pin_4*%
%TO.N,/ASEBRK*%
X119378000Y-81082000D03*
%TO.P,J4,5,Pin_5*%
%TO.N,/TMS*%
X119378000Y-83622000D03*
%TO.P,J4,6,Pin_6*%
%TO.N,/TDI*%
X119378000Y-86162000D03*
%TO.P,J4,7,Pin_7*%
%TO.N,/RESET*%
X119378000Y-88702000D03*
%TO.P,J4,8,Pin_8*%
%TO.N,GND*%
X121918000Y-73462000D03*
%TO.P,J4,9,Pin_9*%
X121918000Y-76002000D03*
%TO.P,J4,10,Pin_10*%
X121918000Y-78542000D03*
%TO.P,J4,11,Pin_11*%
%TO.N,VCC*%
X121918000Y-81082000D03*
%TO.P,J4,12,Pin_12*%
%TO.N,GND*%
X121918000Y-83622000D03*
%TO.P,J4,13,Pin_13*%
X121918000Y-86162000D03*
%TO.P,J4,14,Pin_14*%
X121918000Y-88702000D03*
%TD*%
D12*
%TO.N,/RESET*%
X131445000Y-87630000D03*
%TO.N,/TDI*%
X130175000Y-84987000D03*
%TO.N,/TMS*%
X128905000Y-82447000D03*
%TO.N,/ASEBRK*%
X127635000Y-79907000D03*
%TO.N,/TDO*%
X126365000Y-77367000D03*
%TO.N,/TRST*%
X125095000Y-74827000D03*
%TO.N,/TCK*%
X123825000Y-72287000D03*
%TD*%
D13*
%TO.N,/RESET*%
X130556000Y-95504000D02*
X131445000Y-94615000D01*
X130556000Y-97028000D02*
X130556000Y-95504000D01*
%TO.N,/TDI*%
X128016000Y-99568000D02*
X129381000Y-98203000D01*
X129381000Y-98203000D02*
X129381000Y-95409000D01*
X129381000Y-95409000D02*
X130175000Y-94615000D01*
X130175000Y-94615000D02*
X130175000Y-84987000D01*
%TO.N,/TMS*%
X128905000Y-82447000D02*
X128905000Y-96139000D01*
X128905000Y-96139000D02*
X128016000Y-97028000D01*
%TO.N,/ASEBRK*%
X125476000Y-99568000D02*
X126841000Y-98203000D01*
X126841000Y-98203000D02*
X126841000Y-95409000D01*
X126841000Y-95409000D02*
X127635000Y-94615000D01*
X127635000Y-94615000D02*
X127635000Y-79907000D01*
%TO.N,/TDO*%
X126365000Y-77367000D02*
X126365000Y-96139000D01*
X126365000Y-96139000D02*
X125476000Y-97028000D01*
%TO.N,/RESET*%
X131445000Y-91440000D02*
X131445000Y-94615000D01*
%TO.N,/TRST*%
X122936000Y-99568000D02*
X124301000Y-98203000D01*
X124301000Y-98203000D02*
X124301000Y-96044000D01*
X124301000Y-96044000D02*
X125095000Y-95250000D01*
X125095000Y-95250000D02*
X125095000Y-74827000D01*
%TO.N,/RESET*%
X131445000Y-87630000D02*
X131445000Y-91440000D01*
%TO.N,/TCK*%
X123825000Y-72287000D02*
X123825000Y-96139000D01*
X123825000Y-96139000D02*
X122936000Y-97028000D01*
%TD*%
%TA.AperFunction,Conductor*%
%TO.N,GND*%
G36*
X132097794Y-68473502D02*
G01*
X132144287Y-68527158D01*
X132154391Y-68597432D01*
X132130499Y-68655065D01*
X132049385Y-68763295D01*
X131998255Y-68899684D01*
X131991500Y-68961866D01*
X131991500Y-70758134D01*
X131998255Y-70820316D01*
X132049385Y-70956705D01*
X132136739Y-71073261D01*
X132253295Y-71160615D01*
X132261704Y-71163767D01*
X132261705Y-71163768D01*
X132370451Y-71204535D01*
X132427216Y-71247176D01*
X132451916Y-71313738D01*
X132436709Y-71383087D01*
X132417316Y-71409568D01*
X132331124Y-71499763D01*
X132290629Y-71542138D01*
X132287715Y-71546410D01*
X132287714Y-71546411D01*
X132241371Y-71614347D01*
X132164743Y-71726680D01*
X132149003Y-71760590D01*
X132074205Y-71921729D01*
X132070688Y-71929305D01*
X132010989Y-72144570D01*
X131987251Y-72366695D01*
X131987548Y-72371848D01*
X131987548Y-72371851D01*
X131994562Y-72493500D01*
X132000110Y-72589715D01*
X132001247Y-72594761D01*
X132001248Y-72594767D01*
X132008458Y-72626757D01*
X132049222Y-72807639D01*
X132133266Y-73014616D01*
X132135965Y-73019020D01*
X132243773Y-73194947D01*
X132249987Y-73205088D01*
X132396250Y-73373938D01*
X132568126Y-73516632D01*
X132638595Y-73557811D01*
X132641445Y-73559476D01*
X132690169Y-73611114D01*
X132703240Y-73680897D01*
X132676509Y-73746669D01*
X132636055Y-73780027D01*
X132623607Y-73786507D01*
X132619474Y-73789610D01*
X132619471Y-73789612D01*
X132595247Y-73807800D01*
X132444965Y-73920635D01*
X132441393Y-73924373D01*
X132331124Y-74039763D01*
X132290629Y-74082138D01*
X132287715Y-74086410D01*
X132287714Y-74086411D01*
X132238072Y-74159183D01*
X132164743Y-74266680D01*
X132130261Y-74340965D01*
X132074205Y-74461729D01*
X132070688Y-74469305D01*
X132010989Y-74684570D01*
X131987251Y-74906695D01*
X131987548Y-74911848D01*
X131987548Y-74911851D01*
X131993202Y-75009908D01*
X132000110Y-75129715D01*
X132001247Y-75134761D01*
X132001248Y-75134767D01*
X132014208Y-75192271D01*
X132049222Y-75347639D01*
X132133266Y-75554616D01*
X132135965Y-75559020D01*
X132243773Y-75734947D01*
X132249987Y-75745088D01*
X132396250Y-75913938D01*
X132568126Y-76056632D01*
X132588590Y-76068590D01*
X132641445Y-76099476D01*
X132690169Y-76151114D01*
X132703240Y-76220897D01*
X132676509Y-76286669D01*
X132636055Y-76320027D01*
X132623607Y-76326507D01*
X132619474Y-76329610D01*
X132619471Y-76329612D01*
X132595247Y-76347800D01*
X132444965Y-76460635D01*
X132441393Y-76464373D01*
X132300481Y-76611829D01*
X132290629Y-76622138D01*
X132287715Y-76626410D01*
X132287714Y-76626411D01*
X132238072Y-76699183D01*
X132164743Y-76806680D01*
X132128161Y-76885489D01*
X132074205Y-77001729D01*
X132070688Y-77009305D01*
X132010989Y-77224570D01*
X131987251Y-77446695D01*
X131987548Y-77451848D01*
X131987548Y-77451851D01*
X131993202Y-77549908D01*
X132000110Y-77669715D01*
X132001247Y-77674761D01*
X132001248Y-77674767D01*
X132014208Y-77732271D01*
X132049222Y-77887639D01*
X132133266Y-78094616D01*
X132135965Y-78099020D01*
X132243773Y-78274947D01*
X132249987Y-78285088D01*
X132396250Y-78453938D01*
X132568126Y-78596632D01*
X132588590Y-78608590D01*
X132641445Y-78639476D01*
X132690169Y-78691114D01*
X132703240Y-78760897D01*
X132676509Y-78826669D01*
X132636055Y-78860027D01*
X132623607Y-78866507D01*
X132619474Y-78869610D01*
X132619471Y-78869612D01*
X132595247Y-78887800D01*
X132444965Y-79000635D01*
X132441393Y-79004373D01*
X132300481Y-79151829D01*
X132290629Y-79162138D01*
X132287715Y-79166410D01*
X132287714Y-79166411D01*
X132238072Y-79239183D01*
X132164743Y-79346680D01*
X132128161Y-79425489D01*
X132074205Y-79541729D01*
X132070688Y-79549305D01*
X132010989Y-79764570D01*
X131987251Y-79986695D01*
X131987548Y-79991848D01*
X131987548Y-79991851D01*
X131993202Y-80089908D01*
X132000110Y-80209715D01*
X132001247Y-80214761D01*
X132001248Y-80214767D01*
X132004323Y-80228411D01*
X132049222Y-80427639D01*
X132133266Y-80634616D01*
X132249987Y-80825088D01*
X132396250Y-80993938D01*
X132568126Y-81136632D01*
X132582857Y-81145240D01*
X132641445Y-81179476D01*
X132690169Y-81231114D01*
X132703240Y-81300897D01*
X132676509Y-81366669D01*
X132636055Y-81400027D01*
X132623607Y-81406507D01*
X132619474Y-81409610D01*
X132619471Y-81409612D01*
X132595247Y-81427800D01*
X132444965Y-81540635D01*
X132441393Y-81544373D01*
X132300481Y-81691829D01*
X132290629Y-81702138D01*
X132287715Y-81706410D01*
X132287714Y-81706411D01*
X132234734Y-81784077D01*
X132164743Y-81886680D01*
X132128161Y-81965489D01*
X132074205Y-82081729D01*
X132070688Y-82089305D01*
X132010989Y-82304570D01*
X131987251Y-82526695D01*
X131987548Y-82531848D01*
X131987548Y-82531851D01*
X131993202Y-82629908D01*
X132000110Y-82749715D01*
X132001247Y-82754761D01*
X132001248Y-82754767D01*
X132014208Y-82812271D01*
X132049222Y-82967639D01*
X132133266Y-83174616D01*
X132135965Y-83179020D01*
X132243773Y-83354947D01*
X132249987Y-83365088D01*
X132396250Y-83533938D01*
X132568126Y-83676632D01*
X132588590Y-83688590D01*
X132641445Y-83719476D01*
X132690169Y-83771114D01*
X132703240Y-83840897D01*
X132676509Y-83906669D01*
X132636055Y-83940027D01*
X132623607Y-83946507D01*
X132619474Y-83949610D01*
X132619471Y-83949612D01*
X132595247Y-83967800D01*
X132444965Y-84080635D01*
X132441393Y-84084373D01*
X132300481Y-84231829D01*
X132290629Y-84242138D01*
X132287715Y-84246410D01*
X132287714Y-84246411D01*
X132238072Y-84319183D01*
X132164743Y-84426680D01*
X132128161Y-84505489D01*
X132074205Y-84621729D01*
X132070688Y-84629305D01*
X132010989Y-84844570D01*
X131987251Y-85066695D01*
X131987548Y-85071848D01*
X131987548Y-85071851D01*
X131993202Y-85169908D01*
X132000110Y-85289715D01*
X132001247Y-85294761D01*
X132001248Y-85294767D01*
X132014208Y-85352271D01*
X132049222Y-85507639D01*
X132133266Y-85714616D01*
X132135965Y-85719020D01*
X132243773Y-85894947D01*
X132249987Y-85905088D01*
X132396250Y-86073938D01*
X132568126Y-86216632D01*
X132588590Y-86228590D01*
X132641445Y-86259476D01*
X132690169Y-86311114D01*
X132703240Y-86380897D01*
X132676509Y-86446669D01*
X132636055Y-86480027D01*
X132623607Y-86486507D01*
X132619474Y-86489610D01*
X132619471Y-86489612D01*
X132595247Y-86507800D01*
X132444965Y-86620635D01*
X132441393Y-86624373D01*
X132300265Y-86772055D01*
X132290629Y-86782138D01*
X132287715Y-86786410D01*
X132287714Y-86786411D01*
X132209025Y-86901765D01*
X132154114Y-86946768D01*
X132083589Y-86954939D01*
X132030878Y-86932698D01*
X131901752Y-86838882D01*
X131895724Y-86836198D01*
X131895722Y-86836197D01*
X131733319Y-86763891D01*
X131733318Y-86763891D01*
X131727288Y-86761206D01*
X131633887Y-86741353D01*
X131546944Y-86722872D01*
X131546939Y-86722872D01*
X131540487Y-86721500D01*
X131349513Y-86721500D01*
X131343061Y-86722872D01*
X131343056Y-86722872D01*
X131256113Y-86741353D01*
X131162712Y-86761206D01*
X131156682Y-86763891D01*
X131156681Y-86763891D01*
X131106100Y-86786411D01*
X130988248Y-86838882D01*
X130987323Y-86836804D01*
X130928512Y-86851076D01*
X130861419Y-86827859D01*
X130817528Y-86772055D01*
X130808500Y-86725218D01*
X130808500Y-85689524D01*
X130828502Y-85621403D01*
X130840858Y-85605221D01*
X130914040Y-85523944D01*
X130972314Y-85423010D01*
X131006223Y-85364279D01*
X131006224Y-85364278D01*
X131009527Y-85358556D01*
X131068542Y-85176928D01*
X131069791Y-85165051D01*
X131087814Y-84993565D01*
X131088504Y-84987000D01*
X131078708Y-84893797D01*
X131069232Y-84803635D01*
X131069232Y-84803633D01*
X131068542Y-84797072D01*
X131009527Y-84615444D01*
X130999966Y-84598883D01*
X130965459Y-84539117D01*
X130914040Y-84450056D01*
X130909200Y-84444680D01*
X130790675Y-84313045D01*
X130790674Y-84313044D01*
X130786253Y-84308134D01*
X130631752Y-84195882D01*
X130625724Y-84193198D01*
X130625722Y-84193197D01*
X130463319Y-84120891D01*
X130463318Y-84120891D01*
X130457288Y-84118206D01*
X130363888Y-84098353D01*
X130276944Y-84079872D01*
X130276939Y-84079872D01*
X130270487Y-84078500D01*
X130079513Y-84078500D01*
X130073061Y-84079872D01*
X130073056Y-84079872D01*
X129986112Y-84098353D01*
X129892712Y-84118206D01*
X129886682Y-84120891D01*
X129886681Y-84120891D01*
X129743006Y-84184859D01*
X129718248Y-84195882D01*
X129717323Y-84193804D01*
X129658512Y-84208076D01*
X129591419Y-84184859D01*
X129547528Y-84129055D01*
X129538500Y-84082218D01*
X129538500Y-83149524D01*
X129558502Y-83081403D01*
X129570858Y-83065221D01*
X129644040Y-82983944D01*
X129702314Y-82883010D01*
X129736223Y-82824279D01*
X129736224Y-82824278D01*
X129739527Y-82818556D01*
X129798542Y-82636928D01*
X129799791Y-82625051D01*
X129817814Y-82453565D01*
X129818504Y-82447000D01*
X129808708Y-82353797D01*
X129799232Y-82263635D01*
X129799232Y-82263633D01*
X129798542Y-82257072D01*
X129739527Y-82075444D01*
X129726010Y-82052031D01*
X129695959Y-81999982D01*
X129644040Y-81910056D01*
X129619140Y-81882401D01*
X129520675Y-81773045D01*
X129520674Y-81773044D01*
X129516253Y-81768134D01*
X129361752Y-81655882D01*
X129355724Y-81653198D01*
X129355722Y-81653197D01*
X129193319Y-81580891D01*
X129193318Y-81580891D01*
X129187288Y-81578206D01*
X129093888Y-81558353D01*
X129006944Y-81539872D01*
X129006939Y-81539872D01*
X129000487Y-81538500D01*
X128809513Y-81538500D01*
X128803061Y-81539872D01*
X128803056Y-81539872D01*
X128716112Y-81558353D01*
X128622712Y-81578206D01*
X128616682Y-81580891D01*
X128616681Y-81580891D01*
X128473006Y-81644859D01*
X128448248Y-81655882D01*
X128447323Y-81653804D01*
X128388512Y-81668076D01*
X128321419Y-81644859D01*
X128277528Y-81589055D01*
X128268500Y-81542218D01*
X128268500Y-80609524D01*
X128288502Y-80541403D01*
X128300858Y-80525221D01*
X128374040Y-80443944D01*
X128432314Y-80343010D01*
X128466223Y-80284279D01*
X128466224Y-80284278D01*
X128469527Y-80278556D01*
X128528542Y-80096928D01*
X128529791Y-80085051D01*
X128547814Y-79913565D01*
X128548504Y-79907000D01*
X128538708Y-79813797D01*
X128529232Y-79723635D01*
X128529232Y-79723633D01*
X128528542Y-79717072D01*
X128469527Y-79535444D01*
X128459966Y-79518883D01*
X128425459Y-79459117D01*
X128374040Y-79370056D01*
X128369200Y-79364680D01*
X128250675Y-79233045D01*
X128250674Y-79233044D01*
X128246253Y-79228134D01*
X128091752Y-79115882D01*
X128085724Y-79113198D01*
X128085722Y-79113197D01*
X127923319Y-79040891D01*
X127923318Y-79040891D01*
X127917288Y-79038206D01*
X127823888Y-79018353D01*
X127736944Y-78999872D01*
X127736939Y-78999872D01*
X127730487Y-78998500D01*
X127539513Y-78998500D01*
X127533061Y-78999872D01*
X127533056Y-78999872D01*
X127446112Y-79018353D01*
X127352712Y-79038206D01*
X127346682Y-79040891D01*
X127346681Y-79040891D01*
X127203006Y-79104859D01*
X127178248Y-79115882D01*
X127177323Y-79113804D01*
X127118512Y-79128076D01*
X127051419Y-79104859D01*
X127007528Y-79049055D01*
X126998500Y-79002218D01*
X126998500Y-78069524D01*
X127018502Y-78001403D01*
X127030858Y-77985221D01*
X127104040Y-77903944D01*
X127162314Y-77803010D01*
X127196223Y-77744279D01*
X127196224Y-77744278D01*
X127199527Y-77738556D01*
X127258542Y-77556928D01*
X127259791Y-77545051D01*
X127277814Y-77373565D01*
X127278504Y-77367000D01*
X127268708Y-77273797D01*
X127259232Y-77183635D01*
X127259232Y-77183633D01*
X127258542Y-77177072D01*
X127199527Y-76995444D01*
X127189966Y-76978883D01*
X127155459Y-76919117D01*
X127104040Y-76830056D01*
X127099200Y-76824680D01*
X126980675Y-76693045D01*
X126980674Y-76693044D01*
X126976253Y-76688134D01*
X126821752Y-76575882D01*
X126815724Y-76573198D01*
X126815722Y-76573197D01*
X126653319Y-76500891D01*
X126653318Y-76500891D01*
X126647288Y-76498206D01*
X126553887Y-76478353D01*
X126466944Y-76459872D01*
X126466939Y-76459872D01*
X126460487Y-76458500D01*
X126269513Y-76458500D01*
X126263061Y-76459872D01*
X126263056Y-76459872D01*
X126176113Y-76478353D01*
X126082712Y-76498206D01*
X126076682Y-76500891D01*
X126076681Y-76500891D01*
X125933006Y-76564859D01*
X125908248Y-76575882D01*
X125907323Y-76573804D01*
X125848512Y-76588076D01*
X125781419Y-76564859D01*
X125737528Y-76509055D01*
X125728500Y-76462218D01*
X125728500Y-75529524D01*
X125748502Y-75461403D01*
X125760858Y-75445221D01*
X125834040Y-75363944D01*
X125892314Y-75263010D01*
X125926223Y-75204279D01*
X125926224Y-75204278D01*
X125929527Y-75198556D01*
X125988542Y-75016928D01*
X125989791Y-75005051D01*
X126007814Y-74833565D01*
X126008504Y-74827000D01*
X125993534Y-74684570D01*
X125989232Y-74643635D01*
X125989232Y-74643633D01*
X125988542Y-74637072D01*
X125929527Y-74455444D01*
X125919966Y-74438883D01*
X125863432Y-74340965D01*
X125834040Y-74290056D01*
X125829200Y-74284680D01*
X125710675Y-74153045D01*
X125710674Y-74153044D01*
X125706253Y-74148134D01*
X125551752Y-74035882D01*
X125545724Y-74033198D01*
X125545722Y-74033197D01*
X125383319Y-73960891D01*
X125383318Y-73960891D01*
X125377288Y-73958206D01*
X125283887Y-73938353D01*
X125196944Y-73919872D01*
X125196939Y-73919872D01*
X125190487Y-73918500D01*
X124999513Y-73918500D01*
X124993061Y-73919872D01*
X124993056Y-73919872D01*
X124906113Y-73938353D01*
X124812712Y-73958206D01*
X124806682Y-73960891D01*
X124806681Y-73960891D01*
X124663006Y-74024859D01*
X124638248Y-74035882D01*
X124637323Y-74033804D01*
X124578512Y-74048076D01*
X124511419Y-74024859D01*
X124467528Y-73969055D01*
X124458500Y-73922218D01*
X124458500Y-72989524D01*
X124478502Y-72921403D01*
X124490858Y-72905221D01*
X124564040Y-72823944D01*
X124622314Y-72723010D01*
X124656223Y-72664279D01*
X124656224Y-72664278D01*
X124659527Y-72658556D01*
X124718542Y-72476928D01*
X124720089Y-72462215D01*
X124737814Y-72293565D01*
X124738504Y-72287000D01*
X124725868Y-72166771D01*
X124719232Y-72103635D01*
X124719232Y-72103633D01*
X124718542Y-72097072D01*
X124659527Y-71915444D01*
X124564040Y-71750056D01*
X124539140Y-71722401D01*
X124440675Y-71613045D01*
X124440674Y-71613044D01*
X124436253Y-71608134D01*
X124281752Y-71495882D01*
X124275724Y-71493198D01*
X124275722Y-71493197D01*
X124113319Y-71420891D01*
X124113318Y-71420891D01*
X124107288Y-71418206D01*
X124013888Y-71398353D01*
X123926944Y-71379872D01*
X123926939Y-71379872D01*
X123920487Y-71378500D01*
X123729513Y-71378500D01*
X123723061Y-71379872D01*
X123723056Y-71379872D01*
X123636112Y-71398353D01*
X123542712Y-71418206D01*
X123536682Y-71420891D01*
X123536681Y-71420891D01*
X123374278Y-71493197D01*
X123374276Y-71493198D01*
X123368248Y-71495882D01*
X123213747Y-71608134D01*
X123209326Y-71613044D01*
X123209325Y-71613045D01*
X123110861Y-71722401D01*
X123085960Y-71750056D01*
X122990473Y-71915444D01*
X122931458Y-72097072D01*
X122930769Y-72103631D01*
X122930768Y-72103634D01*
X122913170Y-72271070D01*
X122886157Y-72336726D01*
X122827935Y-72377356D01*
X122756990Y-72380059D01*
X122709767Y-72356780D01*
X122676140Y-72330223D01*
X122667552Y-72324517D01*
X122481117Y-72221599D01*
X122471705Y-72217369D01*
X122270959Y-72146280D01*
X122260988Y-72143646D01*
X122189837Y-72130972D01*
X122176540Y-72132432D01*
X122172000Y-72146989D01*
X122172000Y-78670000D01*
X122151998Y-78738121D01*
X122098342Y-78784614D01*
X122046000Y-78796000D01*
X121790000Y-78796000D01*
X121721879Y-78775998D01*
X121675386Y-78722342D01*
X121664000Y-78670000D01*
X121664000Y-72145102D01*
X121660082Y-72131758D01*
X121645806Y-72129771D01*
X121607324Y-72135660D01*
X121597288Y-72138051D01*
X121394868Y-72204212D01*
X121385359Y-72208209D01*
X121196463Y-72306542D01*
X121187738Y-72312036D01*
X121017433Y-72439905D01*
X121009726Y-72446748D01*
X120932478Y-72527584D01*
X120870954Y-72563014D01*
X120800042Y-72559557D01*
X120742255Y-72518311D01*
X120723402Y-72484763D01*
X120681767Y-72373703D01*
X120678615Y-72365295D01*
X120591261Y-72248739D01*
X120474705Y-72161385D01*
X120338316Y-72110255D01*
X120276134Y-72103500D01*
X118479866Y-72103500D01*
X118417684Y-72110255D01*
X118281295Y-72161385D01*
X118164739Y-72248739D01*
X118077385Y-72365295D01*
X118026255Y-72501684D01*
X118019500Y-72563866D01*
X118019500Y-74360134D01*
X118026255Y-74422316D01*
X118077385Y-74558705D01*
X118164739Y-74675261D01*
X118281295Y-74762615D01*
X118289704Y-74765767D01*
X118289705Y-74765768D01*
X118398451Y-74806535D01*
X118455216Y-74849176D01*
X118479916Y-74915738D01*
X118464709Y-74985087D01*
X118445316Y-75011568D01*
X118337351Y-75124547D01*
X118318629Y-75144138D01*
X118315715Y-75148410D01*
X118315714Y-75148411D01*
X118277604Y-75204279D01*
X118192743Y-75328680D01*
X118098688Y-75531305D01*
X118038989Y-75746570D01*
X118015251Y-75968695D01*
X118015548Y-75973848D01*
X118015548Y-75973851D01*
X118023450Y-76110896D01*
X118028110Y-76191715D01*
X118029247Y-76196761D01*
X118029248Y-76196767D01*
X118035241Y-76223357D01*
X118077222Y-76409639D01*
X118138673Y-76560976D01*
X118143636Y-76573197D01*
X118161266Y-76616616D01*
X118277987Y-76807088D01*
X118281367Y-76810990D01*
X118292352Y-76823671D01*
X118424250Y-76975938D01*
X118596126Y-77118632D01*
X118666595Y-77159811D01*
X118669445Y-77161476D01*
X118718169Y-77213114D01*
X118731240Y-77282897D01*
X118704509Y-77348669D01*
X118664055Y-77382027D01*
X118651607Y-77388507D01*
X118647474Y-77391610D01*
X118647471Y-77391612D01*
X118477100Y-77519530D01*
X118472965Y-77522635D01*
X118469393Y-77526373D01*
X118337351Y-77664547D01*
X118318629Y-77684138D01*
X118315715Y-77688410D01*
X118315714Y-77688411D01*
X118277604Y-77744279D01*
X118192743Y-77868680D01*
X118098688Y-78071305D01*
X118038989Y-78286570D01*
X118015251Y-78508695D01*
X118015548Y-78513848D01*
X118015548Y-78513851D01*
X118023450Y-78650896D01*
X118028110Y-78731715D01*
X118029247Y-78736761D01*
X118029248Y-78736767D01*
X118038234Y-78776638D01*
X118077222Y-78949639D01*
X118138673Y-79100976D01*
X118143636Y-79113197D01*
X118161266Y-79156616D01*
X118277987Y-79347088D01*
X118281367Y-79350990D01*
X118292352Y-79363671D01*
X118424250Y-79515938D01*
X118596126Y-79658632D01*
X118666595Y-79699811D01*
X118669445Y-79701476D01*
X118718169Y-79753114D01*
X118731240Y-79822897D01*
X118704509Y-79888669D01*
X118664055Y-79922027D01*
X118651607Y-79928507D01*
X118647474Y-79931610D01*
X118647471Y-79931612D01*
X118477100Y-80059530D01*
X118472965Y-80062635D01*
X118446902Y-80089908D01*
X118337351Y-80204547D01*
X118318629Y-80224138D01*
X118315720Y-80228403D01*
X118315714Y-80228411D01*
X118277604Y-80284279D01*
X118192743Y-80408680D01*
X118098688Y-80611305D01*
X118038989Y-80826570D01*
X118015251Y-81048695D01*
X118015548Y-81053848D01*
X118015548Y-81053851D01*
X118023450Y-81190896D01*
X118028110Y-81271715D01*
X118029247Y-81276761D01*
X118029248Y-81276767D01*
X118035241Y-81303357D01*
X118077222Y-81489639D01*
X118138673Y-81640976D01*
X118143636Y-81653197D01*
X118161266Y-81696616D01*
X118202713Y-81764251D01*
X118275291Y-81882688D01*
X118277987Y-81887088D01*
X118281367Y-81890990D01*
X118292352Y-81903671D01*
X118424250Y-82055938D01*
X118596126Y-82198632D01*
X118666595Y-82239811D01*
X118669445Y-82241476D01*
X118718169Y-82293114D01*
X118731240Y-82362897D01*
X118704509Y-82428669D01*
X118664055Y-82462027D01*
X118651607Y-82468507D01*
X118647474Y-82471610D01*
X118647471Y-82471612D01*
X118477100Y-82599530D01*
X118472965Y-82602635D01*
X118469393Y-82606373D01*
X118337351Y-82744547D01*
X118318629Y-82764138D01*
X118315715Y-82768410D01*
X118315714Y-82768411D01*
X118277604Y-82824279D01*
X118192743Y-82948680D01*
X118098688Y-83151305D01*
X118038989Y-83366570D01*
X118015251Y-83588695D01*
X118015548Y-83593848D01*
X118015548Y-83593851D01*
X118023450Y-83730896D01*
X118028110Y-83811715D01*
X118029247Y-83816761D01*
X118029248Y-83816767D01*
X118035241Y-83843357D01*
X118077222Y-84029639D01*
X118138673Y-84180976D01*
X118143636Y-84193197D01*
X118161266Y-84236616D01*
X118277987Y-84427088D01*
X118281367Y-84430990D01*
X118292352Y-84443671D01*
X118424250Y-84595938D01*
X118596126Y-84738632D01*
X118666595Y-84779811D01*
X118669445Y-84781476D01*
X118718169Y-84833114D01*
X118731240Y-84902897D01*
X118704509Y-84968669D01*
X118664055Y-85002027D01*
X118651607Y-85008507D01*
X118647474Y-85011610D01*
X118647471Y-85011612D01*
X118477100Y-85139530D01*
X118472965Y-85142635D01*
X118469393Y-85146373D01*
X118337351Y-85284547D01*
X118318629Y-85304138D01*
X118315715Y-85308410D01*
X118315714Y-85308411D01*
X118277604Y-85364279D01*
X118192743Y-85488680D01*
X118098688Y-85691305D01*
X118038989Y-85906570D01*
X118015251Y-86128695D01*
X118015548Y-86133848D01*
X118015548Y-86133851D01*
X118023450Y-86270896D01*
X118028110Y-86351715D01*
X118029247Y-86356761D01*
X118029248Y-86356767D01*
X118035241Y-86383357D01*
X118077222Y-86569639D01*
X118138673Y-86720976D01*
X118154452Y-86759834D01*
X118161266Y-86776616D01*
X118277987Y-86967088D01*
X118424250Y-87135938D01*
X118596126Y-87278632D01*
X118666595Y-87319811D01*
X118669445Y-87321476D01*
X118718169Y-87373114D01*
X118731240Y-87442897D01*
X118704509Y-87508669D01*
X118664055Y-87542027D01*
X118651607Y-87548507D01*
X118647474Y-87551610D01*
X118647471Y-87551612D01*
X118477100Y-87679530D01*
X118472965Y-87682635D01*
X118318629Y-87844138D01*
X118192743Y-88028680D01*
X118098688Y-88231305D01*
X118038989Y-88446570D01*
X118015251Y-88668695D01*
X118028110Y-88891715D01*
X118029247Y-88896761D01*
X118029248Y-88896767D01*
X118046645Y-88973962D01*
X118077222Y-89109639D01*
X118161266Y-89316616D01*
X118277987Y-89507088D01*
X118424250Y-89675938D01*
X118596126Y-89818632D01*
X118789000Y-89931338D01*
X118997692Y-90011030D01*
X119002760Y-90012061D01*
X119002763Y-90012062D01*
X119097862Y-90031410D01*
X119216597Y-90055567D01*
X119221772Y-90055757D01*
X119221774Y-90055757D01*
X119434673Y-90063564D01*
X119434677Y-90063564D01*
X119439837Y-90063753D01*
X119444957Y-90063097D01*
X119444959Y-90063097D01*
X119656288Y-90036025D01*
X119656289Y-90036025D01*
X119661416Y-90035368D01*
X119666366Y-90033883D01*
X119870429Y-89972661D01*
X119870434Y-89972659D01*
X119875384Y-89971174D01*
X120075994Y-89872896D01*
X120257860Y-89743173D01*
X120416096Y-89585489D01*
X120459792Y-89524680D01*
X120546453Y-89404077D01*
X120547640Y-89404930D01*
X120594960Y-89361362D01*
X120664897Y-89349145D01*
X120730338Y-89376678D01*
X120758166Y-89408511D01*
X120815694Y-89502388D01*
X120821777Y-89510699D01*
X120961213Y-89671667D01*
X120968580Y-89678883D01*
X121132434Y-89814916D01*
X121140881Y-89820831D01*
X121324756Y-89928279D01*
X121334042Y-89932729D01*
X121533001Y-90008703D01*
X121542899Y-90011579D01*
X121646250Y-90032606D01*
X121660299Y-90031410D01*
X121664000Y-90021065D01*
X121664000Y-83494000D01*
X121684002Y-83425879D01*
X121737658Y-83379386D01*
X121790000Y-83368000D01*
X122046000Y-83368000D01*
X122114121Y-83388002D01*
X122160614Y-83441658D01*
X122172000Y-83494000D01*
X122172000Y-90020517D01*
X122176064Y-90034359D01*
X122189478Y-90036393D01*
X122196184Y-90035534D01*
X122206262Y-90033392D01*
X122410255Y-89972191D01*
X122419842Y-89968433D01*
X122611095Y-89874739D01*
X122619945Y-89869464D01*
X122793328Y-89745792D01*
X122801200Y-89739139D01*
X122952052Y-89588812D01*
X122958721Y-89580975D01*
X122963176Y-89574775D01*
X123019170Y-89531127D01*
X123089873Y-89524680D01*
X123152838Y-89557481D01*
X123188074Y-89619117D01*
X123191500Y-89648300D01*
X123191500Y-95543500D01*
X123171498Y-95611621D01*
X123117842Y-95658114D01*
X123065500Y-95669500D01*
X122037866Y-95669500D01*
X121975684Y-95676255D01*
X121839295Y-95727385D01*
X121722739Y-95814739D01*
X121635385Y-95931295D01*
X121584255Y-96067684D01*
X121577500Y-96129866D01*
X121577500Y-97926134D01*
X121584255Y-97988316D01*
X121635385Y-98124705D01*
X121722739Y-98241261D01*
X121839295Y-98328615D01*
X121847704Y-98331767D01*
X121847705Y-98331768D01*
X121956451Y-98372535D01*
X122013216Y-98415176D01*
X122037916Y-98481738D01*
X122022709Y-98551087D01*
X122003316Y-98577568D01*
X121876629Y-98710138D01*
X121750743Y-98894680D01*
X121729351Y-98940765D01*
X121668052Y-99072824D01*
X121656688Y-99097305D01*
X121596989Y-99312570D01*
X121573251Y-99534695D01*
X121573548Y-99539848D01*
X121573548Y-99539851D01*
X121578442Y-99624733D01*
X121586110Y-99757715D01*
X121587247Y-99762761D01*
X121587248Y-99762767D01*
X121600597Y-99822000D01*
X121635222Y-99975639D01*
X121719266Y-100182616D01*
X121769863Y-100265183D01*
X121833291Y-100368688D01*
X121835987Y-100373088D01*
X121982250Y-100541938D01*
X122154126Y-100684632D01*
X122347000Y-100797338D01*
X122555692Y-100877030D01*
X122560760Y-100878061D01*
X122560763Y-100878062D01*
X122655862Y-100897410D01*
X122774597Y-100921567D01*
X122779772Y-100921757D01*
X122779774Y-100921757D01*
X122992673Y-100929564D01*
X122992677Y-100929564D01*
X122997837Y-100929753D01*
X123002957Y-100929097D01*
X123002959Y-100929097D01*
X123214288Y-100902025D01*
X123214289Y-100902025D01*
X123219416Y-100901368D01*
X123224366Y-100899883D01*
X123428429Y-100838661D01*
X123428434Y-100838659D01*
X123433384Y-100837174D01*
X123633994Y-100738896D01*
X123815860Y-100609173D01*
X123847525Y-100577619D01*
X123970435Y-100455137D01*
X123974096Y-100451489D01*
X124033594Y-100368689D01*
X124104453Y-100270077D01*
X124105776Y-100271028D01*
X124152645Y-100227857D01*
X124222580Y-100215625D01*
X124288026Y-100243144D01*
X124315875Y-100274994D01*
X124375987Y-100373088D01*
X124522250Y-100541938D01*
X124694126Y-100684632D01*
X124887000Y-100797338D01*
X125095692Y-100877030D01*
X125100760Y-100878061D01*
X125100763Y-100878062D01*
X125195862Y-100897410D01*
X125314597Y-100921567D01*
X125319772Y-100921757D01*
X125319774Y-100921757D01*
X125532673Y-100929564D01*
X125532677Y-100929564D01*
X125537837Y-100929753D01*
X125542957Y-100929097D01*
X125542959Y-100929097D01*
X125754288Y-100902025D01*
X125754289Y-100902025D01*
X125759416Y-100901368D01*
X125764366Y-100899883D01*
X125968429Y-100838661D01*
X125968434Y-100838659D01*
X125973384Y-100837174D01*
X126173994Y-100738896D01*
X126355860Y-100609173D01*
X126387525Y-100577619D01*
X126510435Y-100455137D01*
X126514096Y-100451489D01*
X126573594Y-100368689D01*
X126644453Y-100270077D01*
X126645776Y-100271028D01*
X126692645Y-100227857D01*
X126762580Y-100215625D01*
X126828026Y-100243144D01*
X126855875Y-100274994D01*
X126915987Y-100373088D01*
X127062250Y-100541938D01*
X127234126Y-100684632D01*
X127427000Y-100797338D01*
X127635692Y-100877030D01*
X127640760Y-100878061D01*
X127640763Y-100878062D01*
X127735862Y-100897410D01*
X127854597Y-100921567D01*
X127859772Y-100921757D01*
X127859774Y-100921757D01*
X128072673Y-100929564D01*
X128072677Y-100929564D01*
X128077837Y-100929753D01*
X128082957Y-100929097D01*
X128082959Y-100929097D01*
X128294288Y-100902025D01*
X128294289Y-100902025D01*
X128299416Y-100901368D01*
X128304366Y-100899883D01*
X128508429Y-100838661D01*
X128508434Y-100838659D01*
X128513384Y-100837174D01*
X128713994Y-100738896D01*
X128895860Y-100609173D01*
X128927525Y-100577619D01*
X129050435Y-100455137D01*
X129054096Y-100451489D01*
X129113594Y-100368689D01*
X129184453Y-100270077D01*
X129185776Y-100271028D01*
X129232645Y-100227857D01*
X129302580Y-100215625D01*
X129368026Y-100243144D01*
X129395875Y-100274994D01*
X129455987Y-100373088D01*
X129602250Y-100541938D01*
X129774126Y-100684632D01*
X129967000Y-100797338D01*
X130175692Y-100877030D01*
X130180760Y-100878061D01*
X130180763Y-100878062D01*
X130275862Y-100897410D01*
X130394597Y-100921567D01*
X130399772Y-100921757D01*
X130399774Y-100921757D01*
X130612673Y-100929564D01*
X130612677Y-100929564D01*
X130617837Y-100929753D01*
X130622957Y-100929097D01*
X130622959Y-100929097D01*
X130834288Y-100902025D01*
X130834289Y-100902025D01*
X130839416Y-100901368D01*
X130844366Y-100899883D01*
X131048429Y-100838661D01*
X131048434Y-100838659D01*
X131053384Y-100837174D01*
X131253994Y-100738896D01*
X131435860Y-100609173D01*
X131467525Y-100577619D01*
X131590435Y-100455137D01*
X131594096Y-100451489D01*
X131653594Y-100368689D01*
X131724453Y-100270077D01*
X131725640Y-100270930D01*
X131772960Y-100227362D01*
X131842897Y-100215145D01*
X131908338Y-100242678D01*
X131936166Y-100274511D01*
X131993694Y-100368388D01*
X131999777Y-100376699D01*
X132139213Y-100537667D01*
X132146580Y-100544883D01*
X132310434Y-100680916D01*
X132318881Y-100686831D01*
X132502756Y-100794279D01*
X132512042Y-100798729D01*
X132711001Y-100874703D01*
X132720899Y-100877579D01*
X132824250Y-100898606D01*
X132838299Y-100897410D01*
X132842000Y-100887065D01*
X132842000Y-100886517D01*
X133350000Y-100886517D01*
X133354064Y-100900359D01*
X133367478Y-100902393D01*
X133374184Y-100901534D01*
X133384262Y-100899392D01*
X133588255Y-100838191D01*
X133597842Y-100834433D01*
X133789095Y-100740739D01*
X133797945Y-100735464D01*
X133971328Y-100611792D01*
X133979200Y-100605139D01*
X134130052Y-100454812D01*
X134136730Y-100446965D01*
X134261003Y-100274020D01*
X134266313Y-100265183D01*
X134360670Y-100074267D01*
X134364469Y-100064672D01*
X134426377Y-99860910D01*
X134428555Y-99850837D01*
X134429986Y-99839962D01*
X134427775Y-99825778D01*
X134414617Y-99822000D01*
X133368115Y-99822000D01*
X133352876Y-99826475D01*
X133351671Y-99827865D01*
X133350000Y-99835548D01*
X133350000Y-100886517D01*
X132842000Y-100886517D01*
X132842000Y-99440000D01*
X132862002Y-99371879D01*
X132915658Y-99325386D01*
X132968000Y-99314000D01*
X134414344Y-99314000D01*
X134427875Y-99310027D01*
X134429180Y-99300947D01*
X134387214Y-99133875D01*
X134383894Y-99124124D01*
X134298972Y-98928814D01*
X134294105Y-98919739D01*
X134178426Y-98740926D01*
X134172136Y-98732757D01*
X134028806Y-98575240D01*
X134021273Y-98568215D01*
X133854139Y-98436222D01*
X133845556Y-98430520D01*
X133808602Y-98410120D01*
X133758631Y-98359687D01*
X133743859Y-98290245D01*
X133768975Y-98223839D01*
X133796327Y-98197232D01*
X133858840Y-98152642D01*
X133975860Y-98069173D01*
X134134096Y-97911489D01*
X134264453Y-97730077D01*
X134278731Y-97701189D01*
X134361136Y-97534453D01*
X134361137Y-97534451D01*
X134363430Y-97529811D01*
X134428370Y-97316069D01*
X134457529Y-97094590D01*
X134459156Y-97028000D01*
X134440852Y-96805361D01*
X134386431Y-96588702D01*
X134297354Y-96383840D01*
X134176014Y-96196277D01*
X134025670Y-96031051D01*
X134021619Y-96027852D01*
X134021615Y-96027848D01*
X133854414Y-95895800D01*
X133854410Y-95895798D01*
X133850359Y-95892598D01*
X133845831Y-95890098D01*
X133746462Y-95835244D01*
X133654789Y-95784638D01*
X133649920Y-95782914D01*
X133649916Y-95782912D01*
X133449087Y-95711795D01*
X133449083Y-95711794D01*
X133444212Y-95710069D01*
X133439119Y-95709162D01*
X133439116Y-95709161D01*
X133229373Y-95671800D01*
X133229367Y-95671799D01*
X133224284Y-95670894D01*
X133150452Y-95669992D01*
X133006081Y-95668228D01*
X133006079Y-95668228D01*
X133000911Y-95668165D01*
X132780091Y-95701955D01*
X132567756Y-95771357D01*
X132537443Y-95787137D01*
X132463017Y-95825881D01*
X132369607Y-95874507D01*
X132365474Y-95877610D01*
X132365471Y-95877612D01*
X132195100Y-96005530D01*
X132190965Y-96008635D01*
X132036629Y-96170138D01*
X131929201Y-96327621D01*
X131874293Y-96372621D01*
X131803768Y-96380792D01*
X131740021Y-96349538D01*
X131719324Y-96325054D01*
X131638822Y-96200617D01*
X131638820Y-96200614D01*
X131636014Y-96196277D01*
X131485670Y-96031051D01*
X131481619Y-96027852D01*
X131481615Y-96027848D01*
X131314414Y-95895800D01*
X131314410Y-95895798D01*
X131310359Y-95892598D01*
X131305835Y-95890101D01*
X131305831Y-95890098D01*
X131297825Y-95885678D01*
X131247856Y-95835244D01*
X131233087Y-95765800D01*
X131258206Y-95699396D01*
X131269628Y-95686276D01*
X131527760Y-95428145D01*
X131837258Y-95118647D01*
X131845537Y-95111113D01*
X131852018Y-95107000D01*
X131898644Y-95057348D01*
X131901398Y-95054507D01*
X131921135Y-95034770D01*
X131923615Y-95031573D01*
X131931320Y-95022551D01*
X131956159Y-94996100D01*
X131961586Y-94990321D01*
X131965405Y-94983375D01*
X131965407Y-94983372D01*
X131971348Y-94972566D01*
X131982199Y-94956047D01*
X131989758Y-94946301D01*
X131994614Y-94940041D01*
X131997759Y-94932772D01*
X131997762Y-94932768D01*
X132012174Y-94899463D01*
X132017391Y-94888813D01*
X132038695Y-94850060D01*
X132043733Y-94830437D01*
X132050137Y-94811734D01*
X132055033Y-94800420D01*
X132055033Y-94800419D01*
X132058181Y-94793145D01*
X132059420Y-94785322D01*
X132059423Y-94785312D01*
X132065099Y-94749476D01*
X132067505Y-94737856D01*
X132076528Y-94702711D01*
X132076528Y-94702710D01*
X132078500Y-94695030D01*
X132078500Y-94674776D01*
X132080051Y-94655065D01*
X132081980Y-94642886D01*
X132083220Y-94635057D01*
X132079059Y-94591038D01*
X132078500Y-94579181D01*
X132078500Y-91124253D01*
X132098502Y-91056132D01*
X132152158Y-91009639D01*
X132222432Y-90999535D01*
X132287012Y-91029029D01*
X132299738Y-91041756D01*
X132393219Y-91149674D01*
X132400580Y-91156883D01*
X132564434Y-91292916D01*
X132572881Y-91298831D01*
X132756756Y-91406279D01*
X132766042Y-91410729D01*
X132965001Y-91486703D01*
X132974899Y-91489579D01*
X133078250Y-91510606D01*
X133092299Y-91509410D01*
X133096000Y-91499065D01*
X133096000Y-91498517D01*
X133604000Y-91498517D01*
X133608064Y-91512359D01*
X133621478Y-91514393D01*
X133628184Y-91513534D01*
X133638262Y-91511392D01*
X133842255Y-91450191D01*
X133851842Y-91446433D01*
X134043095Y-91352739D01*
X134051945Y-91347464D01*
X134225328Y-91223792D01*
X134233200Y-91217139D01*
X134384052Y-91066812D01*
X134390730Y-91058965D01*
X134515003Y-90886020D01*
X134520313Y-90877183D01*
X134614670Y-90686267D01*
X134618469Y-90676672D01*
X134680377Y-90472910D01*
X134682555Y-90462837D01*
X134683986Y-90451962D01*
X134681775Y-90437778D01*
X134668617Y-90434000D01*
X133622115Y-90434000D01*
X133606876Y-90438475D01*
X133605671Y-90439865D01*
X133604000Y-90447548D01*
X133604000Y-91498517D01*
X133096000Y-91498517D01*
X133096000Y-90052000D01*
X133116002Y-89983879D01*
X133169658Y-89937386D01*
X133222000Y-89926000D01*
X134668344Y-89926000D01*
X134681875Y-89922027D01*
X134683180Y-89912947D01*
X134641214Y-89745875D01*
X134637894Y-89736124D01*
X134552972Y-89540814D01*
X134548105Y-89531739D01*
X134432426Y-89352926D01*
X134426136Y-89344757D01*
X134282806Y-89187240D01*
X134275273Y-89180215D01*
X134108139Y-89048222D01*
X134099556Y-89042520D01*
X134062602Y-89022120D01*
X134012631Y-88971687D01*
X133997859Y-88902245D01*
X134022975Y-88835839D01*
X134050327Y-88809232D01*
X134107305Y-88768590D01*
X134229860Y-88681173D01*
X134242382Y-88668695D01*
X144453251Y-88668695D01*
X144466110Y-88891715D01*
X144467247Y-88896761D01*
X144467248Y-88896767D01*
X144484645Y-88973962D01*
X144515222Y-89109639D01*
X144599266Y-89316616D01*
X144715987Y-89507088D01*
X144862250Y-89675938D01*
X145034126Y-89818632D01*
X145227000Y-89931338D01*
X145435692Y-90011030D01*
X145440760Y-90012061D01*
X145440763Y-90012062D01*
X145535862Y-90031410D01*
X145654597Y-90055567D01*
X145659772Y-90055757D01*
X145659774Y-90055757D01*
X145872673Y-90063564D01*
X145872677Y-90063564D01*
X145877837Y-90063753D01*
X145882957Y-90063097D01*
X145882959Y-90063097D01*
X146094288Y-90036025D01*
X146094289Y-90036025D01*
X146099416Y-90035368D01*
X146104366Y-90033883D01*
X146308429Y-89972661D01*
X146308434Y-89972659D01*
X146313384Y-89971174D01*
X146513994Y-89872896D01*
X146695860Y-89743173D01*
X146854096Y-89585489D01*
X146897792Y-89524680D01*
X146984453Y-89404077D01*
X146985640Y-89404930D01*
X147032960Y-89361362D01*
X147102897Y-89349145D01*
X147168338Y-89376678D01*
X147196166Y-89408511D01*
X147253694Y-89502388D01*
X147259777Y-89510699D01*
X147399213Y-89671667D01*
X147406580Y-89678883D01*
X147570434Y-89814916D01*
X147578881Y-89820831D01*
X147762756Y-89928279D01*
X147772042Y-89932729D01*
X147971001Y-90008703D01*
X147980899Y-90011579D01*
X148084250Y-90032606D01*
X148098299Y-90031410D01*
X148102000Y-90021065D01*
X148102000Y-90020517D01*
X148610000Y-90020517D01*
X148614064Y-90034359D01*
X148627478Y-90036393D01*
X148634184Y-90035534D01*
X148644262Y-90033392D01*
X148848255Y-89972191D01*
X148857842Y-89968433D01*
X149049095Y-89874739D01*
X149057945Y-89869464D01*
X149231328Y-89745792D01*
X149239200Y-89739139D01*
X149390052Y-89588812D01*
X149396730Y-89580965D01*
X149521003Y-89408020D01*
X149526313Y-89399183D01*
X149620670Y-89208267D01*
X149624469Y-89198672D01*
X149686377Y-88994910D01*
X149688555Y-88984837D01*
X149689986Y-88973962D01*
X149687775Y-88959778D01*
X149674617Y-88956000D01*
X148628115Y-88956000D01*
X148612876Y-88960475D01*
X148611671Y-88961865D01*
X148610000Y-88969548D01*
X148610000Y-90020517D01*
X148102000Y-90020517D01*
X148102000Y-88429885D01*
X148610000Y-88429885D01*
X148614475Y-88445124D01*
X148615865Y-88446329D01*
X148623548Y-88448000D01*
X149674344Y-88448000D01*
X149687875Y-88444027D01*
X149689180Y-88434947D01*
X149647214Y-88267875D01*
X149643894Y-88258124D01*
X149558972Y-88062814D01*
X149554105Y-88053739D01*
X149438426Y-87874926D01*
X149432136Y-87866757D01*
X149288806Y-87709240D01*
X149281273Y-87702215D01*
X149114139Y-87570222D01*
X149105552Y-87564517D01*
X149068116Y-87543851D01*
X149018146Y-87493419D01*
X149003374Y-87423976D01*
X149028490Y-87357571D01*
X149055842Y-87330964D01*
X149231327Y-87205792D01*
X149239200Y-87199139D01*
X149390052Y-87048812D01*
X149396730Y-87040965D01*
X149521003Y-86868020D01*
X149526313Y-86859183D01*
X149620670Y-86668267D01*
X149624469Y-86658672D01*
X149686377Y-86454910D01*
X149688555Y-86444837D01*
X149689986Y-86433962D01*
X149687775Y-86419778D01*
X149674617Y-86416000D01*
X148628115Y-86416000D01*
X148612876Y-86420475D01*
X148611671Y-86421865D01*
X148610000Y-86429548D01*
X148610000Y-88429885D01*
X148102000Y-88429885D01*
X148102000Y-85889885D01*
X148610000Y-85889885D01*
X148614475Y-85905124D01*
X148615865Y-85906329D01*
X148623548Y-85908000D01*
X149674344Y-85908000D01*
X149687875Y-85904027D01*
X149689180Y-85894947D01*
X149647214Y-85727875D01*
X149643894Y-85718124D01*
X149558972Y-85522814D01*
X149554105Y-85513739D01*
X149438426Y-85334926D01*
X149432136Y-85326757D01*
X149288806Y-85169240D01*
X149281273Y-85162215D01*
X149114139Y-85030222D01*
X149105552Y-85024517D01*
X149068116Y-85003851D01*
X149018146Y-84953419D01*
X149003374Y-84883976D01*
X149028490Y-84817571D01*
X149055842Y-84790964D01*
X149231327Y-84665792D01*
X149239200Y-84659139D01*
X149390052Y-84508812D01*
X149396730Y-84500965D01*
X149521003Y-84328020D01*
X149526313Y-84319183D01*
X149620670Y-84128267D01*
X149624469Y-84118672D01*
X149686377Y-83914910D01*
X149688555Y-83904837D01*
X149689986Y-83893962D01*
X149687775Y-83879778D01*
X149674617Y-83876000D01*
X148628115Y-83876000D01*
X148612876Y-83880475D01*
X148611671Y-83881865D01*
X148610000Y-83889548D01*
X148610000Y-85889885D01*
X148102000Y-85889885D01*
X148102000Y-83494000D01*
X148122002Y-83425879D01*
X148175658Y-83379386D01*
X148228000Y-83368000D01*
X149674344Y-83368000D01*
X149687875Y-83364027D01*
X149689180Y-83354947D01*
X149647214Y-83187875D01*
X149643894Y-83178124D01*
X149558972Y-82982814D01*
X149554105Y-82973739D01*
X149438426Y-82794926D01*
X149432136Y-82786757D01*
X149288806Y-82629240D01*
X149281273Y-82622215D01*
X149114139Y-82490222D01*
X149105556Y-82484520D01*
X149068602Y-82464120D01*
X149018631Y-82413687D01*
X149003859Y-82344245D01*
X149028975Y-82277839D01*
X149056327Y-82251232D01*
X149079797Y-82234491D01*
X149235860Y-82123173D01*
X149243105Y-82115954D01*
X149390435Y-81969137D01*
X149394096Y-81965489D01*
X149401178Y-81955634D01*
X149521435Y-81788277D01*
X149524453Y-81784077D01*
X149529906Y-81773045D01*
X149621136Y-81588453D01*
X149621137Y-81588451D01*
X149623430Y-81583811D01*
X149688370Y-81370069D01*
X149717529Y-81148590D01*
X149717611Y-81145240D01*
X149719074Y-81085365D01*
X149719074Y-81085361D01*
X149719156Y-81082000D01*
X149700852Y-80859361D01*
X149646431Y-80642702D01*
X149557354Y-80437840D01*
X149476606Y-80313023D01*
X149438822Y-80254617D01*
X149438820Y-80254614D01*
X149436014Y-80250277D01*
X149285670Y-80085051D01*
X149281619Y-80081852D01*
X149281615Y-80081848D01*
X149114414Y-79949800D01*
X149114410Y-79949798D01*
X149110359Y-79946598D01*
X149068569Y-79923529D01*
X149018598Y-79873097D01*
X149003826Y-79803654D01*
X149028942Y-79737248D01*
X149056294Y-79710641D01*
X149231328Y-79585792D01*
X149239200Y-79579139D01*
X149390052Y-79428812D01*
X149396730Y-79420965D01*
X149521003Y-79248020D01*
X149526313Y-79239183D01*
X149620670Y-79048267D01*
X149624469Y-79038672D01*
X149686377Y-78834910D01*
X149688555Y-78824837D01*
X149689986Y-78813962D01*
X149687775Y-78799778D01*
X149674617Y-78796000D01*
X148228000Y-78796000D01*
X148159879Y-78775998D01*
X148113386Y-78722342D01*
X148102000Y-78670000D01*
X148102000Y-78269885D01*
X148610000Y-78269885D01*
X148614475Y-78285124D01*
X148615865Y-78286329D01*
X148623548Y-78288000D01*
X149674344Y-78288000D01*
X149687875Y-78284027D01*
X149689180Y-78274947D01*
X149647214Y-78107875D01*
X149643894Y-78098124D01*
X149558972Y-77902814D01*
X149554105Y-77893739D01*
X149438426Y-77714926D01*
X149432136Y-77706757D01*
X149288806Y-77549240D01*
X149281273Y-77542215D01*
X149114139Y-77410222D01*
X149105552Y-77404517D01*
X149068116Y-77383851D01*
X149018146Y-77333419D01*
X149003374Y-77263976D01*
X149028490Y-77197571D01*
X149055842Y-77170964D01*
X149231327Y-77045792D01*
X149239200Y-77039139D01*
X149390052Y-76888812D01*
X149396730Y-76880965D01*
X149521003Y-76708020D01*
X149526313Y-76699183D01*
X149620670Y-76508267D01*
X149624469Y-76498672D01*
X149686377Y-76294910D01*
X149688555Y-76284837D01*
X149689986Y-76273962D01*
X149687775Y-76259778D01*
X149674617Y-76256000D01*
X148628115Y-76256000D01*
X148612876Y-76260475D01*
X148611671Y-76261865D01*
X148610000Y-76269548D01*
X148610000Y-78269885D01*
X148102000Y-78269885D01*
X148102000Y-75729885D01*
X148610000Y-75729885D01*
X148614475Y-75745124D01*
X148615865Y-75746329D01*
X148623548Y-75748000D01*
X149674344Y-75748000D01*
X149687875Y-75744027D01*
X149689180Y-75734947D01*
X149647214Y-75567875D01*
X149643894Y-75558124D01*
X149558972Y-75362814D01*
X149554105Y-75353739D01*
X149438426Y-75174926D01*
X149432136Y-75166757D01*
X149288806Y-75009240D01*
X149281273Y-75002215D01*
X149114139Y-74870222D01*
X149105552Y-74864517D01*
X149068116Y-74843851D01*
X149018146Y-74793419D01*
X149003374Y-74723976D01*
X149028490Y-74657571D01*
X149055842Y-74630964D01*
X149231327Y-74505792D01*
X149239200Y-74499139D01*
X149390052Y-74348812D01*
X149396730Y-74340965D01*
X149521003Y-74168020D01*
X149526313Y-74159183D01*
X149620670Y-73968267D01*
X149624469Y-73958672D01*
X149686377Y-73754910D01*
X149688555Y-73744837D01*
X149689986Y-73733962D01*
X149687775Y-73719778D01*
X149674617Y-73716000D01*
X148628115Y-73716000D01*
X148612876Y-73720475D01*
X148611671Y-73721865D01*
X148610000Y-73729548D01*
X148610000Y-75729885D01*
X148102000Y-75729885D01*
X148102000Y-73189885D01*
X148610000Y-73189885D01*
X148614475Y-73205124D01*
X148615865Y-73206329D01*
X148623548Y-73208000D01*
X149674344Y-73208000D01*
X149687875Y-73204027D01*
X149689180Y-73194947D01*
X149647214Y-73027875D01*
X149643894Y-73018124D01*
X149558972Y-72822814D01*
X149554105Y-72813739D01*
X149438426Y-72634926D01*
X149432136Y-72626757D01*
X149288806Y-72469240D01*
X149281273Y-72462215D01*
X149114139Y-72330222D01*
X149105552Y-72324517D01*
X148919117Y-72221599D01*
X148909705Y-72217369D01*
X148708959Y-72146280D01*
X148698988Y-72143646D01*
X148627837Y-72130972D01*
X148614540Y-72132432D01*
X148610000Y-72146989D01*
X148610000Y-73189885D01*
X148102000Y-73189885D01*
X148102000Y-72145102D01*
X148098082Y-72131758D01*
X148083806Y-72129771D01*
X148045324Y-72135660D01*
X148035288Y-72138051D01*
X147832868Y-72204212D01*
X147823359Y-72208209D01*
X147634463Y-72306542D01*
X147625738Y-72312036D01*
X147455433Y-72439905D01*
X147447726Y-72446748D01*
X147370478Y-72527584D01*
X147308954Y-72563014D01*
X147238042Y-72559557D01*
X147180255Y-72518311D01*
X147161402Y-72484763D01*
X147119767Y-72373703D01*
X147116615Y-72365295D01*
X147029261Y-72248739D01*
X146912705Y-72161385D01*
X146776316Y-72110255D01*
X146714134Y-72103500D01*
X144917866Y-72103500D01*
X144855684Y-72110255D01*
X144719295Y-72161385D01*
X144602739Y-72248739D01*
X144515385Y-72365295D01*
X144464255Y-72501684D01*
X144457500Y-72563866D01*
X144457500Y-74360134D01*
X144464255Y-74422316D01*
X144515385Y-74558705D01*
X144602739Y-74675261D01*
X144719295Y-74762615D01*
X144727704Y-74765767D01*
X144727705Y-74765768D01*
X144836451Y-74806535D01*
X144893216Y-74849176D01*
X144917916Y-74915738D01*
X144902709Y-74985087D01*
X144883316Y-75011568D01*
X144775351Y-75124547D01*
X144756629Y-75144138D01*
X144753715Y-75148410D01*
X144753714Y-75148411D01*
X144715604Y-75204279D01*
X144630743Y-75328680D01*
X144536688Y-75531305D01*
X144476989Y-75746570D01*
X144453251Y-75968695D01*
X144453548Y-75973848D01*
X144453548Y-75973851D01*
X144461450Y-76110896D01*
X144466110Y-76191715D01*
X144467247Y-76196761D01*
X144467248Y-76196767D01*
X144473241Y-76223357D01*
X144515222Y-76409639D01*
X144576673Y-76560976D01*
X144581636Y-76573197D01*
X144599266Y-76616616D01*
X144715987Y-76807088D01*
X144719367Y-76810990D01*
X144730352Y-76823671D01*
X144862250Y-76975938D01*
X145034126Y-77118632D01*
X145104595Y-77159811D01*
X145107445Y-77161476D01*
X145156169Y-77213114D01*
X145169240Y-77282897D01*
X145142509Y-77348669D01*
X145102055Y-77382027D01*
X145089607Y-77388507D01*
X145085474Y-77391610D01*
X145085471Y-77391612D01*
X144915100Y-77519530D01*
X144910965Y-77522635D01*
X144907393Y-77526373D01*
X144775351Y-77664547D01*
X144756629Y-77684138D01*
X144753715Y-77688410D01*
X144753714Y-77688411D01*
X144715604Y-77744279D01*
X144630743Y-77868680D01*
X144536688Y-78071305D01*
X144476989Y-78286570D01*
X144453251Y-78508695D01*
X144453548Y-78513848D01*
X144453548Y-78513851D01*
X144461450Y-78650896D01*
X144466110Y-78731715D01*
X144467247Y-78736761D01*
X144467248Y-78736767D01*
X144476234Y-78776638D01*
X144515222Y-78949639D01*
X144576673Y-79100976D01*
X144581636Y-79113197D01*
X144599266Y-79156616D01*
X144715987Y-79347088D01*
X144719367Y-79350990D01*
X144730352Y-79363671D01*
X144862250Y-79515938D01*
X145034126Y-79658632D01*
X145104595Y-79699811D01*
X145107445Y-79701476D01*
X145156169Y-79753114D01*
X145169240Y-79822897D01*
X145142509Y-79888669D01*
X145102055Y-79922027D01*
X145089607Y-79928507D01*
X145085474Y-79931610D01*
X145085471Y-79931612D01*
X144915100Y-80059530D01*
X144910965Y-80062635D01*
X144884902Y-80089908D01*
X144775351Y-80204547D01*
X144756629Y-80224138D01*
X144753720Y-80228403D01*
X144753714Y-80228411D01*
X144715604Y-80284279D01*
X144630743Y-80408680D01*
X144536688Y-80611305D01*
X144476989Y-80826570D01*
X144453251Y-81048695D01*
X144453548Y-81053848D01*
X144453548Y-81053851D01*
X144461450Y-81190896D01*
X144466110Y-81271715D01*
X144467247Y-81276761D01*
X144467248Y-81276767D01*
X144473241Y-81303357D01*
X144515222Y-81489639D01*
X144576673Y-81640976D01*
X144581636Y-81653197D01*
X144599266Y-81696616D01*
X144640713Y-81764251D01*
X144713291Y-81882688D01*
X144715987Y-81887088D01*
X144719367Y-81890990D01*
X144730352Y-81903671D01*
X144862250Y-82055938D01*
X145034126Y-82198632D01*
X145104595Y-82239811D01*
X145107445Y-82241476D01*
X145156169Y-82293114D01*
X145169240Y-82362897D01*
X145142509Y-82428669D01*
X145102055Y-82462027D01*
X145089607Y-82468507D01*
X145085474Y-82471610D01*
X145085471Y-82471612D01*
X144915100Y-82599530D01*
X144910965Y-82602635D01*
X144907393Y-82606373D01*
X144775351Y-82744547D01*
X144756629Y-82764138D01*
X144753715Y-82768410D01*
X144753714Y-82768411D01*
X144715604Y-82824279D01*
X144630743Y-82948680D01*
X144536688Y-83151305D01*
X144476989Y-83366570D01*
X144453251Y-83588695D01*
X144453548Y-83593848D01*
X144453548Y-83593851D01*
X144461450Y-83730896D01*
X144466110Y-83811715D01*
X144467247Y-83816761D01*
X144467248Y-83816767D01*
X144473241Y-83843357D01*
X144515222Y-84029639D01*
X144576673Y-84180976D01*
X144581636Y-84193197D01*
X144599266Y-84236616D01*
X144715987Y-84427088D01*
X144719367Y-84430990D01*
X144730352Y-84443671D01*
X144862250Y-84595938D01*
X145034126Y-84738632D01*
X145104595Y-84779811D01*
X145107445Y-84781476D01*
X145156169Y-84833114D01*
X145169240Y-84902897D01*
X145142509Y-84968669D01*
X145102055Y-85002027D01*
X145089607Y-85008507D01*
X145085474Y-85011610D01*
X145085471Y-85011612D01*
X144915100Y-85139530D01*
X144910965Y-85142635D01*
X144907393Y-85146373D01*
X144775351Y-85284547D01*
X144756629Y-85304138D01*
X144753715Y-85308410D01*
X144753714Y-85308411D01*
X144715604Y-85364279D01*
X144630743Y-85488680D01*
X144536688Y-85691305D01*
X144476989Y-85906570D01*
X144453251Y-86128695D01*
X144453548Y-86133848D01*
X144453548Y-86133851D01*
X144461450Y-86270896D01*
X144466110Y-86351715D01*
X144467247Y-86356761D01*
X144467248Y-86356767D01*
X144473241Y-86383357D01*
X144515222Y-86569639D01*
X144576673Y-86720976D01*
X144592452Y-86759834D01*
X144599266Y-86776616D01*
X144715987Y-86967088D01*
X144862250Y-87135938D01*
X145034126Y-87278632D01*
X145104595Y-87319811D01*
X145107445Y-87321476D01*
X145156169Y-87373114D01*
X145169240Y-87442897D01*
X145142509Y-87508669D01*
X145102055Y-87542027D01*
X145089607Y-87548507D01*
X145085474Y-87551610D01*
X145085471Y-87551612D01*
X144915100Y-87679530D01*
X144910965Y-87682635D01*
X144756629Y-87844138D01*
X144630743Y-88028680D01*
X144536688Y-88231305D01*
X144476989Y-88446570D01*
X144453251Y-88668695D01*
X134242382Y-88668695D01*
X134388096Y-88523489D01*
X134412308Y-88489795D01*
X134515435Y-88346277D01*
X134518453Y-88342077D01*
X134557683Y-88262702D01*
X134615136Y-88146453D01*
X134615137Y-88146451D01*
X134617430Y-88141811D01*
X134653226Y-88023993D01*
X134680865Y-87933023D01*
X134680865Y-87933021D01*
X134682370Y-87928069D01*
X134711529Y-87706590D01*
X134713156Y-87640000D01*
X134694852Y-87417361D01*
X134640431Y-87200702D01*
X134551354Y-86995840D01*
X134468981Y-86868511D01*
X134432822Y-86812617D01*
X134432820Y-86812614D01*
X134430014Y-86808277D01*
X134279670Y-86643051D01*
X134275619Y-86639852D01*
X134275615Y-86639848D01*
X134108414Y-86507800D01*
X134108410Y-86507798D01*
X134104359Y-86504598D01*
X134063053Y-86481796D01*
X134013084Y-86431364D01*
X133998312Y-86361921D01*
X134023428Y-86295516D01*
X134050780Y-86268909D01*
X134107305Y-86228590D01*
X134229860Y-86141173D01*
X134388096Y-85983489D01*
X134447594Y-85900689D01*
X134515435Y-85806277D01*
X134518453Y-85802077D01*
X134557683Y-85722702D01*
X134615136Y-85606453D01*
X134615137Y-85606451D01*
X134617430Y-85601811D01*
X134653226Y-85483993D01*
X134680865Y-85393023D01*
X134680865Y-85393021D01*
X134682370Y-85388069D01*
X134711529Y-85166590D01*
X134713156Y-85100000D01*
X134694852Y-84877361D01*
X134640431Y-84660702D01*
X134551354Y-84455840D01*
X134468981Y-84328511D01*
X134432822Y-84272617D01*
X134432820Y-84272614D01*
X134430014Y-84268277D01*
X134279670Y-84103051D01*
X134275619Y-84099852D01*
X134275615Y-84099848D01*
X134108414Y-83967800D01*
X134108410Y-83967798D01*
X134104359Y-83964598D01*
X134063053Y-83941796D01*
X134013084Y-83891364D01*
X133998312Y-83821921D01*
X134023428Y-83755516D01*
X134050780Y-83728909D01*
X134107305Y-83688590D01*
X134229860Y-83601173D01*
X134388096Y-83443489D01*
X134434159Y-83379386D01*
X134515435Y-83266277D01*
X134518453Y-83262077D01*
X134557683Y-83182702D01*
X134615136Y-83066453D01*
X134615137Y-83066451D01*
X134617430Y-83061811D01*
X134653226Y-82943993D01*
X134680865Y-82853023D01*
X134680865Y-82853021D01*
X134682370Y-82848069D01*
X134711529Y-82626590D01*
X134713156Y-82560000D01*
X134694852Y-82337361D01*
X134640431Y-82120702D01*
X134551354Y-81915840D01*
X134448689Y-81757144D01*
X134432822Y-81732617D01*
X134432820Y-81732614D01*
X134430014Y-81728277D01*
X134279670Y-81563051D01*
X134275619Y-81559852D01*
X134275615Y-81559848D01*
X134108414Y-81427800D01*
X134108410Y-81427798D01*
X134104359Y-81424598D01*
X134063053Y-81401796D01*
X134013084Y-81351364D01*
X133998312Y-81281921D01*
X134023428Y-81215516D01*
X134050780Y-81188909D01*
X134112002Y-81145240D01*
X134229860Y-81061173D01*
X134388096Y-80903489D01*
X134416097Y-80864522D01*
X134515435Y-80726277D01*
X134518453Y-80722077D01*
X134555203Y-80647720D01*
X134615136Y-80526453D01*
X134615137Y-80526451D01*
X134617430Y-80521811D01*
X134682370Y-80308069D01*
X134711529Y-80086590D01*
X134713156Y-80020000D01*
X134694852Y-79797361D01*
X134640431Y-79580702D01*
X134551354Y-79375840D01*
X134468981Y-79248511D01*
X134432822Y-79192617D01*
X134432820Y-79192614D01*
X134430014Y-79188277D01*
X134279670Y-79023051D01*
X134275619Y-79019852D01*
X134275615Y-79019848D01*
X134108414Y-78887800D01*
X134108410Y-78887798D01*
X134104359Y-78884598D01*
X134063053Y-78861796D01*
X134013084Y-78811364D01*
X133998312Y-78741921D01*
X134023428Y-78675516D01*
X134050780Y-78648909D01*
X134107305Y-78608590D01*
X134229860Y-78521173D01*
X134388096Y-78363489D01*
X134447594Y-78280689D01*
X134515435Y-78186277D01*
X134518453Y-78182077D01*
X134557683Y-78102702D01*
X134615136Y-77986453D01*
X134615137Y-77986451D01*
X134617430Y-77981811D01*
X134653226Y-77863993D01*
X134680865Y-77773023D01*
X134680865Y-77773021D01*
X134682370Y-77768069D01*
X134711529Y-77546590D01*
X134713156Y-77480000D01*
X134694852Y-77257361D01*
X134640431Y-77040702D01*
X134551354Y-76835840D01*
X134468981Y-76708511D01*
X134432822Y-76652617D01*
X134432820Y-76652614D01*
X134430014Y-76648277D01*
X134279670Y-76483051D01*
X134275619Y-76479852D01*
X134275615Y-76479848D01*
X134108414Y-76347800D01*
X134108410Y-76347798D01*
X134104359Y-76344598D01*
X134063053Y-76321796D01*
X134013084Y-76271364D01*
X133998312Y-76201921D01*
X134023428Y-76135516D01*
X134050780Y-76108909D01*
X134107305Y-76068590D01*
X134229860Y-75981173D01*
X134388096Y-75823489D01*
X134447594Y-75740689D01*
X134515435Y-75646277D01*
X134518453Y-75642077D01*
X134557683Y-75562702D01*
X134615136Y-75446453D01*
X134615137Y-75446451D01*
X134617430Y-75441811D01*
X134653226Y-75323993D01*
X134680865Y-75233023D01*
X134680865Y-75233021D01*
X134682370Y-75228069D01*
X134711529Y-75006590D01*
X134712014Y-74986748D01*
X134713074Y-74943365D01*
X134713074Y-74943361D01*
X134713156Y-74940000D01*
X134694852Y-74717361D01*
X134640431Y-74500702D01*
X134551354Y-74295840D01*
X134473939Y-74176174D01*
X134432822Y-74112617D01*
X134432820Y-74112614D01*
X134430014Y-74108277D01*
X134279670Y-73943051D01*
X134275619Y-73939852D01*
X134275615Y-73939848D01*
X134108414Y-73807800D01*
X134108410Y-73807798D01*
X134104359Y-73804598D01*
X134063053Y-73781796D01*
X134013084Y-73731364D01*
X133998312Y-73661921D01*
X134023428Y-73595516D01*
X134050780Y-73568909D01*
X134094603Y-73537650D01*
X134229860Y-73441173D01*
X134388096Y-73283489D01*
X134447594Y-73200689D01*
X134515435Y-73106277D01*
X134518453Y-73102077D01*
X134617430Y-72901811D01*
X134682370Y-72688069D01*
X134711529Y-72466590D01*
X134712635Y-72421322D01*
X134713074Y-72403365D01*
X134713074Y-72403361D01*
X134713156Y-72400000D01*
X134694852Y-72177361D01*
X134640431Y-71960702D01*
X134551354Y-71755840D01*
X134458976Y-71613045D01*
X134432822Y-71572617D01*
X134432820Y-71572614D01*
X134430014Y-71568277D01*
X134426532Y-71564450D01*
X134282798Y-71406488D01*
X134251746Y-71342642D01*
X134260141Y-71272143D01*
X134305317Y-71217375D01*
X134331761Y-71203706D01*
X134438297Y-71163767D01*
X134446705Y-71160615D01*
X134563261Y-71073261D01*
X134650615Y-70956705D01*
X134701745Y-70820316D01*
X134708500Y-70758134D01*
X134708500Y-68961866D01*
X134701745Y-68899684D01*
X134650615Y-68763295D01*
X134569501Y-68655065D01*
X134544653Y-68588559D01*
X134559706Y-68519176D01*
X134609880Y-68468946D01*
X134670327Y-68453500D01*
X151437122Y-68453500D01*
X151505243Y-68473502D01*
X151551736Y-68527158D01*
X151561840Y-68597432D01*
X151532346Y-68662012D01*
X151496276Y-68690751D01*
X151465210Y-68707269D01*
X151333058Y-68777536D01*
X151329499Y-68780122D01*
X151329497Y-68780123D01*
X151164935Y-68899684D01*
X151105808Y-68942642D01*
X151102644Y-68945698D01*
X151102641Y-68945700D01*
X151013864Y-69031431D01*
X150903748Y-69137769D01*
X150730812Y-69359118D01*
X150728616Y-69362922D01*
X150728611Y-69362929D01*
X150639992Y-69516423D01*
X150590364Y-69602381D01*
X150485138Y-69862824D01*
X150484073Y-69867097D01*
X150484072Y-69867099D01*
X150450379Y-70002236D01*
X150417183Y-70135376D01*
X150387822Y-70414733D01*
X150397625Y-70695458D01*
X150398387Y-70699781D01*
X150398388Y-70699788D01*
X150422164Y-70834624D01*
X150446402Y-70972087D01*
X150533203Y-71239235D01*
X150535131Y-71243188D01*
X150535133Y-71243193D01*
X150537076Y-71247176D01*
X150656340Y-71491702D01*
X150658795Y-71495341D01*
X150658798Y-71495347D01*
X150705409Y-71564450D01*
X150813415Y-71724576D01*
X151001371Y-71933322D01*
X151216550Y-72113879D01*
X151454764Y-72262731D01*
X151588484Y-72322267D01*
X151699851Y-72371851D01*
X151711375Y-72376982D01*
X151981390Y-72454407D01*
X151985740Y-72455018D01*
X151985743Y-72455019D01*
X152086933Y-72469240D01*
X152259552Y-72493500D01*
X152470146Y-72493500D01*
X152472332Y-72493347D01*
X152472336Y-72493347D01*
X152675827Y-72479118D01*
X152675832Y-72479117D01*
X152680212Y-72478811D01*
X152954970Y-72420409D01*
X152959099Y-72418906D01*
X152959103Y-72418905D01*
X153214781Y-72325846D01*
X153214785Y-72325844D01*
X153218926Y-72324337D01*
X153466942Y-72192464D01*
X153514057Y-72158233D01*
X153690629Y-72029947D01*
X153690632Y-72029944D01*
X153694192Y-72027358D01*
X153896252Y-71832231D01*
X154069188Y-71610882D01*
X154196381Y-71390577D01*
X154247763Y-71341584D01*
X154317477Y-71328148D01*
X154383388Y-71354534D01*
X154424570Y-71412366D01*
X154431500Y-71453577D01*
X154431500Y-98732691D01*
X154411498Y-98800812D01*
X154357842Y-98847305D01*
X154287568Y-98857409D01*
X154222988Y-98827915D01*
X154192252Y-98787926D01*
X154182355Y-98767634D01*
X154143660Y-98688298D01*
X154141205Y-98684659D01*
X154141202Y-98684653D01*
X154047615Y-98545905D01*
X153986585Y-98455424D01*
X153969296Y-98436222D01*
X153875244Y-98331768D01*
X153798629Y-98246678D01*
X153583450Y-98066121D01*
X153345236Y-97917269D01*
X153088625Y-97803018D01*
X152933992Y-97758678D01*
X152822837Y-97726805D01*
X152822836Y-97726805D01*
X152818610Y-97725593D01*
X152814260Y-97724982D01*
X152814257Y-97724981D01*
X152711310Y-97710513D01*
X152540448Y-97686500D01*
X152329854Y-97686500D01*
X152327668Y-97686653D01*
X152327664Y-97686653D01*
X152124173Y-97700882D01*
X152124168Y-97700883D01*
X152119788Y-97701189D01*
X151845030Y-97759591D01*
X151840901Y-97761094D01*
X151840897Y-97761095D01*
X151585219Y-97854154D01*
X151585215Y-97854156D01*
X151581074Y-97855663D01*
X151333058Y-97987536D01*
X151329499Y-97990122D01*
X151329497Y-97990123D01*
X151116833Y-98144632D01*
X151105808Y-98152642D01*
X151102644Y-98155698D01*
X151102641Y-98155700D01*
X151032416Y-98223516D01*
X150903748Y-98347769D01*
X150761657Y-98529638D01*
X150743602Y-98552748D01*
X150730812Y-98569118D01*
X150728616Y-98572922D01*
X150728611Y-98572929D01*
X150616199Y-98767634D01*
X150590364Y-98812381D01*
X150485138Y-99072824D01*
X150484073Y-99077097D01*
X150484072Y-99077099D01*
X150424082Y-99317707D01*
X150417183Y-99345376D01*
X150416724Y-99349744D01*
X150416723Y-99349749D01*
X150397285Y-99534695D01*
X150387822Y-99624733D01*
X150387975Y-99629121D01*
X150387975Y-99629127D01*
X150395718Y-99850837D01*
X150397625Y-99905458D01*
X150398387Y-99909781D01*
X150398388Y-99909788D01*
X150422164Y-100044624D01*
X150446402Y-100182087D01*
X150533203Y-100449235D01*
X150535131Y-100453188D01*
X150535133Y-100453193D01*
X150578787Y-100542695D01*
X150656340Y-100701702D01*
X150658795Y-100705341D01*
X150658798Y-100705347D01*
X150682963Y-100741173D01*
X150813415Y-100934576D01*
X151001371Y-101143322D01*
X151216550Y-101323879D01*
X151454764Y-101472731D01*
X151478264Y-101483194D01*
X151483203Y-101485393D01*
X151537299Y-101531374D01*
X151557948Y-101599301D01*
X151538595Y-101667609D01*
X151485385Y-101714610D01*
X151431954Y-101726500D01*
X113357878Y-101726500D01*
X113289757Y-101706498D01*
X113243264Y-101652842D01*
X113233160Y-101582568D01*
X113262654Y-101517988D01*
X113298724Y-101489249D01*
X113458056Y-101404530D01*
X113461942Y-101402464D01*
X113566896Y-101326211D01*
X113685629Y-101239947D01*
X113685632Y-101239944D01*
X113689192Y-101237358D01*
X113891252Y-101042231D01*
X114064188Y-100820882D01*
X114066384Y-100817078D01*
X114066389Y-100817071D01*
X114202435Y-100581431D01*
X114204636Y-100577619D01*
X114309862Y-100317176D01*
X114321368Y-100271028D01*
X114376753Y-100048893D01*
X114376754Y-100048888D01*
X114377817Y-100044624D01*
X114384565Y-99980425D01*
X114406719Y-99769636D01*
X114406719Y-99769633D01*
X114407178Y-99765267D01*
X114407025Y-99760873D01*
X114397529Y-99488939D01*
X114397528Y-99488933D01*
X114397375Y-99484542D01*
X114373608Y-99349749D01*
X114349360Y-99212236D01*
X114348598Y-99207913D01*
X114261797Y-98940765D01*
X114255969Y-98928814D01*
X114177355Y-98767634D01*
X114138660Y-98688298D01*
X114136205Y-98684659D01*
X114136202Y-98684653D01*
X114042615Y-98545905D01*
X113981585Y-98455424D01*
X113964296Y-98436222D01*
X113870244Y-98331768D01*
X113793629Y-98246678D01*
X113578450Y-98066121D01*
X113340236Y-97917269D01*
X113083625Y-97803018D01*
X112928992Y-97758678D01*
X112817837Y-97726805D01*
X112817836Y-97726805D01*
X112813610Y-97725593D01*
X112809260Y-97724982D01*
X112809257Y-97724981D01*
X112706310Y-97710513D01*
X112535448Y-97686500D01*
X112324854Y-97686500D01*
X112322668Y-97686653D01*
X112322664Y-97686653D01*
X112119173Y-97700882D01*
X112119168Y-97700883D01*
X112114788Y-97701189D01*
X111840030Y-97759591D01*
X111835901Y-97761094D01*
X111835897Y-97761095D01*
X111580219Y-97854154D01*
X111580215Y-97854156D01*
X111576074Y-97855663D01*
X111328058Y-97987536D01*
X111324499Y-97990122D01*
X111324497Y-97990123D01*
X111111833Y-98144632D01*
X111100808Y-98152642D01*
X111097644Y-98155698D01*
X111097641Y-98155700D01*
X111027416Y-98223516D01*
X110898748Y-98347769D01*
X110756657Y-98529638D01*
X110738602Y-98552748D01*
X110725812Y-98569118D01*
X110634992Y-98726423D01*
X110598619Y-98789423D01*
X110547237Y-98838416D01*
X110477523Y-98851852D01*
X110411612Y-98825466D01*
X110370430Y-98767634D01*
X110363500Y-98726423D01*
X110363500Y-71447309D01*
X110383502Y-71379188D01*
X110437158Y-71332695D01*
X110507432Y-71322591D01*
X110572012Y-71352085D01*
X110602748Y-71392074D01*
X110651340Y-71491702D01*
X110653795Y-71495341D01*
X110653798Y-71495347D01*
X110700409Y-71564450D01*
X110808415Y-71724576D01*
X110996371Y-71933322D01*
X111211550Y-72113879D01*
X111449764Y-72262731D01*
X111583484Y-72322267D01*
X111694851Y-72371851D01*
X111706375Y-72376982D01*
X111976390Y-72454407D01*
X111980740Y-72455018D01*
X111980743Y-72455019D01*
X112081933Y-72469240D01*
X112254552Y-72493500D01*
X112465146Y-72493500D01*
X112467332Y-72493347D01*
X112467336Y-72493347D01*
X112670827Y-72479118D01*
X112670832Y-72479117D01*
X112675212Y-72478811D01*
X112949970Y-72420409D01*
X112954099Y-72418906D01*
X112954103Y-72418905D01*
X113209781Y-72325846D01*
X113209785Y-72325844D01*
X113213926Y-72324337D01*
X113461942Y-72192464D01*
X113509057Y-72158233D01*
X113685629Y-72029947D01*
X113685632Y-72029944D01*
X113689192Y-72027358D01*
X113891252Y-71832231D01*
X114064188Y-71610882D01*
X114066384Y-71607078D01*
X114066389Y-71607071D01*
X114191381Y-71390577D01*
X114204636Y-71367619D01*
X114309862Y-71107176D01*
X114343544Y-70972087D01*
X114376753Y-70838893D01*
X114376754Y-70838888D01*
X114377817Y-70834624D01*
X114378544Y-70827715D01*
X114406719Y-70559636D01*
X114406719Y-70559633D01*
X114407178Y-70555267D01*
X114397375Y-70274542D01*
X114373608Y-70139749D01*
X114349360Y-70002236D01*
X114348598Y-69997913D01*
X114261797Y-69730765D01*
X114138660Y-69478298D01*
X114136205Y-69474659D01*
X114136202Y-69474653D01*
X114055935Y-69355653D01*
X113981585Y-69245424D01*
X113793629Y-69036678D01*
X113578450Y-68856121D01*
X113340236Y-68707269D01*
X113311797Y-68694607D01*
X113257701Y-68648626D01*
X113237052Y-68580699D01*
X113256405Y-68512391D01*
X113309615Y-68465390D01*
X113363046Y-68453500D01*
X132029673Y-68453500D01*
X132097794Y-68473502D01*
G37*
%TD.AperFunction*%
%TD*%
M02*
