%TF.GenerationSoftware,KiCad,Pcbnew,(6.0.8)*%
%TF.CreationDate,2022-10-22T10:51:26-05:00*%
%TF.ProjectId,jtag_sniff_pcb,6a746167-5f73-46e6-9966-665f7063622e,rev?*%
%TF.SameCoordinates,Original*%
%TF.FileFunction,Copper,L1,Top*%
%TF.FilePolarity,Positive*%
%FSLAX46Y46*%
G04 Gerber Fmt 4.6, Leading zero omitted, Abs format (unit mm)*
G04 Created by KiCad (PCBNEW (6.0.8)) date 2022-10-22 10:51:26*
%MOMM*%
%LPD*%
G01*
G04 APERTURE LIST*
%TA.AperFunction,ComponentPad*%
%ADD10R,1.700000X1.700000*%
%TD*%
%TA.AperFunction,ComponentPad*%
%ADD11O,1.700000X1.700000*%
%TD*%
%TA.AperFunction,ViaPad*%
%ADD12C,0.800000*%
%TD*%
%TA.AperFunction,Conductor*%
%ADD13C,0.250000*%
%TD*%
G04 APERTURE END LIST*
D10*
%TO.P,J3,1,Pin_1*%
%TO.N,VCC*%
X133350000Y-69860000D03*
D11*
%TO.P,J3,2,Pin_2*%
%TO.N,/TCK*%
X133350000Y-72400000D03*
%TO.P,J3,3,Pin_3*%
%TO.N,/TRST*%
X133350000Y-74940000D03*
%TO.P,J3,4,Pin_4*%
%TO.N,/TDO*%
X133350000Y-77480000D03*
%TO.P,J3,5,Pin_5*%
%TO.N,/ASEBRK*%
X133350000Y-80020000D03*
%TO.P,J3,6,Pin_6*%
%TO.N,/TMS*%
X133350000Y-82560000D03*
%TO.P,J3,7,Pin_7*%
%TO.N,/TDI*%
X133350000Y-85100000D03*
%TO.P,J3,8,Pin_8*%
%TO.N,/RESET*%
X133350000Y-87640000D03*
%TO.P,J3,9,Pin_9*%
%TO.N,GND*%
X133350000Y-90180000D03*
%TD*%
D10*
%TO.P,J1,1,Pin_1*%
%TO.N,/TCK*%
X122936000Y-97028000D03*
D11*
%TO.P,J1,2,Pin_2*%
%TO.N,/TRST*%
X122936000Y-99568000D03*
%TO.P,J1,3,Pin_3*%
%TO.N,/TDO*%
X125476000Y-97028000D03*
%TO.P,J1,4,Pin_4*%
%TO.N,/ASEBRK*%
X125476000Y-99568000D03*
%TO.P,J1,5,Pin_5*%
%TO.N,/TMS*%
X128016000Y-97028000D03*
%TO.P,J1,6,Pin_6*%
%TO.N,/TDI*%
X128016000Y-99568000D03*
%TO.P,J1,7,Pin_7*%
%TO.N,/RESET*%
X130556000Y-97028000D03*
%TO.P,J1,8,Pin_8*%
%TO.N,unconnected-(J1-Pad8)*%
X130556000Y-99568000D03*
%TO.P,J1,9,Pin_9*%
%TO.N,unconnected-(J1-Pad9)*%
X133096000Y-97028000D03*
%TO.P,J1,10,Pin_10*%
%TO.N,GND*%
X133096000Y-99568000D03*
%TD*%
D10*
%TO.P,J2,1,Pin_1*%
%TO.N,/TCK*%
X145816000Y-73462000D03*
D11*
%TO.P,J2,2,Pin_2*%
%TO.N,/TRST*%
X145816000Y-76002000D03*
%TO.P,J2,3,Pin_3*%
%TO.N,/TDO*%
X145816000Y-78542000D03*
%TO.P,J2,4,Pin_4*%
%TO.N,/ASEBRK*%
X145816000Y-81082000D03*
%TO.P,J2,5,Pin_5*%
%TO.N,/TMS*%
X145816000Y-83622000D03*
%TO.P,J2,6,Pin_6*%
%TO.N,/TDI*%
X145816000Y-86162000D03*
%TO.P,J2,7,Pin_7*%
%TO.N,/RESET*%
X145816000Y-88702000D03*
%TO.P,J2,8,Pin_8*%
%TO.N,GND*%
X148356000Y-73462000D03*
%TO.P,J2,9,Pin_9*%
X148356000Y-76002000D03*
%TO.P,J2,10,Pin_10*%
X148356000Y-78542000D03*
%TO.P,J2,11,Pin_11*%
%TO.N,VCC*%
X148356000Y-81082000D03*
%TO.P,J2,12,Pin_12*%
%TO.N,GND*%
X148356000Y-83622000D03*
%TO.P,J2,13,Pin_13*%
X148356000Y-86162000D03*
%TO.P,J2,14,Pin_14*%
X148356000Y-88702000D03*
%TD*%
D10*
%TO.P,J4,1,Pin_1*%
%TO.N,/TCK*%
X119378000Y-73462000D03*
D11*
%TO.P,J4,2,Pin_2*%
%TO.N,/TRST*%
X119378000Y-76002000D03*
%TO.P,J4,3,Pin_3*%
%TO.N,/TDO*%
X119378000Y-78542000D03*
%TO.P,J4,4,Pin_4*%
%TO.N,/ASEBRK*%
X119378000Y-81082000D03*
%TO.P,J4,5,Pin_5*%
%TO.N,/TMS*%
X119378000Y-83622000D03*
%TO.P,J4,6,Pin_6*%
%TO.N,/TDI*%
X119378000Y-86162000D03*
%TO.P,J4,7,Pin_7*%
%TO.N,/RESET*%
X119378000Y-88702000D03*
%TO.P,J4,8,Pin_8*%
%TO.N,GND*%
X121918000Y-73462000D03*
%TO.P,J4,9,Pin_9*%
X121918000Y-76002000D03*
%TO.P,J4,10,Pin_10*%
X121918000Y-78542000D03*
%TO.P,J4,11,Pin_11*%
%TO.N,VCC*%
X121918000Y-81082000D03*
%TO.P,J4,12,Pin_12*%
%TO.N,GND*%
X121918000Y-83622000D03*
%TO.P,J4,13,Pin_13*%
X121918000Y-86162000D03*
%TO.P,J4,14,Pin_14*%
X121918000Y-88702000D03*
%TD*%
D12*
%TO.N,/RESET*%
X131445000Y-87630000D03*
%TO.N,/TDI*%
X130175000Y-84987000D03*
%TO.N,/TMS*%
X128905000Y-82447000D03*
%TO.N,/ASEBRK*%
X127635000Y-79907000D03*
%TO.N,/TDO*%
X126365000Y-77367000D03*
%TO.N,/TRST*%
X125095000Y-74827000D03*
%TO.N,/TCK*%
X123825000Y-72287000D03*
%TD*%
D13*
%TO.N,/RESET*%
X131548000Y-87527000D02*
X120553000Y-87527000D01*
%TO.N,/TDI*%
X130278000Y-84987000D02*
X120553000Y-84987000D01*
%TO.N,/TMS*%
X129008000Y-82447000D02*
X120553000Y-82447000D01*
%TO.N,VCC*%
X133731701Y-81280000D02*
X127508000Y-81280000D01*
X121918000Y-81082000D02*
X122116000Y-81280000D01*
X122116000Y-81280000D02*
X127508000Y-81280000D01*
%TO.N,/ASEBRK*%
X133257000Y-79907000D02*
X126643000Y-79907000D01*
X119378000Y-81082000D02*
X120553000Y-79907000D01*
X120553000Y-79907000D02*
X126643000Y-79907000D01*
%TO.N,/TDO*%
X133257000Y-77367000D02*
X125881000Y-77367000D01*
X119378000Y-78542000D02*
X120553000Y-77367000D01*
X120553000Y-77367000D02*
X125881000Y-77367000D01*
%TO.N,/TRST*%
X133257000Y-74827000D02*
X125119000Y-74827000D01*
X119378000Y-76002000D02*
X120553000Y-74827000D01*
X120553000Y-74827000D02*
X125119000Y-74827000D01*
%TO.N,/TCK*%
X123293000Y-72287000D02*
X120553000Y-72287000D01*
%TO.N,VCC*%
X148356000Y-81082000D02*
X149531000Y-79907000D01*
X149531000Y-79907000D02*
X149531000Y-72823000D01*
X149531000Y-72823000D02*
X146568000Y-69860000D01*
X146568000Y-69860000D02*
X133350000Y-69860000D01*
X148356000Y-81082000D02*
X146991000Y-82447000D01*
X146991000Y-82447000D02*
X134898701Y-82447000D01*
X134898701Y-82447000D02*
X133731701Y-81280000D01*
%TO.N,/TCK*%
X133350000Y-72400000D02*
X134412000Y-73462000D01*
X134412000Y-73462000D02*
X145816000Y-73462000D01*
%TO.N,/TRST*%
X133350000Y-74940000D02*
X134412000Y-76002000D01*
X134412000Y-76002000D02*
X145816000Y-76002000D01*
%TO.N,/TDO*%
X145816000Y-78542000D02*
X134412000Y-78542000D01*
X134412000Y-78542000D02*
X133350000Y-77480000D01*
%TO.N,/ASEBRK*%
X145816000Y-81082000D02*
X134412000Y-81082000D01*
X134412000Y-81082000D02*
X133350000Y-80020000D01*
%TO.N,/TMS*%
X145816000Y-83622000D02*
X134412000Y-83622000D01*
X134412000Y-83622000D02*
X133350000Y-82560000D01*
%TO.N,/TDI*%
X133350000Y-85100000D02*
X134412000Y-86162000D01*
X134412000Y-86162000D02*
X145816000Y-86162000D01*
%TO.N,/TCK*%
X133257000Y-72287000D02*
X123293000Y-72287000D01*
X120553000Y-72287000D02*
X119378000Y-73462000D01*
X133375000Y-72405000D02*
X133257000Y-72287000D01*
%TO.N,/TRST*%
X133375000Y-74945000D02*
X133257000Y-74827000D01*
%TO.N,/TDO*%
X133375000Y-77485000D02*
X133257000Y-77367000D01*
%TO.N,/ASEBRK*%
X133375000Y-80025000D02*
X133257000Y-79907000D01*
%TO.N,/TMS*%
X120553000Y-82447000D02*
X119378000Y-83622000D01*
X133257000Y-82447000D02*
X129008000Y-82447000D01*
X133375000Y-82565000D02*
X133257000Y-82447000D01*
%TO.N,/TDI*%
X133257000Y-84987000D02*
X130278000Y-84987000D01*
X133375000Y-85105000D02*
X133257000Y-84987000D01*
X120553000Y-84987000D02*
X119378000Y-86162000D01*
%TO.N,/RESET*%
X120553000Y-87527000D02*
X119378000Y-88702000D01*
X133375000Y-87645000D02*
X133257000Y-87527000D01*
X134432000Y-88702000D02*
X133375000Y-87645000D01*
X145816000Y-88702000D02*
X134432000Y-88702000D01*
X133257000Y-87527000D02*
X131548000Y-87527000D01*
%TD*%
%TA.AperFunction,Conductor*%
%TO.N,GND*%
G36*
X132097794Y-68473502D02*
G01*
X132144287Y-68527158D01*
X132154391Y-68597432D01*
X132130499Y-68655065D01*
X132049385Y-68763295D01*
X131998255Y-68899684D01*
X131991500Y-68961866D01*
X131991500Y-70758134D01*
X131998255Y-70820316D01*
X132049385Y-70956705D01*
X132136739Y-71073261D01*
X132253295Y-71160615D01*
X132261704Y-71163767D01*
X132261705Y-71163768D01*
X132370451Y-71204535D01*
X132427216Y-71247176D01*
X132451916Y-71313738D01*
X132436709Y-71383087D01*
X132417316Y-71409568D01*
X132331124Y-71499763D01*
X132290629Y-71542138D01*
X132252177Y-71598506D01*
X132197268Y-71643507D01*
X132148091Y-71653500D01*
X124533200Y-71653500D01*
X124465079Y-71633498D01*
X124445853Y-71617157D01*
X124445580Y-71617460D01*
X124440668Y-71613037D01*
X124436253Y-71608134D01*
X124281752Y-71495882D01*
X124275724Y-71493198D01*
X124275722Y-71493197D01*
X124113319Y-71420891D01*
X124113318Y-71420891D01*
X124107288Y-71418206D01*
X124013888Y-71398353D01*
X123926944Y-71379872D01*
X123926939Y-71379872D01*
X123920487Y-71378500D01*
X123729513Y-71378500D01*
X123723061Y-71379872D01*
X123723056Y-71379872D01*
X123636112Y-71398353D01*
X123542712Y-71418206D01*
X123536682Y-71420891D01*
X123536681Y-71420891D01*
X123374278Y-71493197D01*
X123374276Y-71493198D01*
X123368248Y-71495882D01*
X123213747Y-71608134D01*
X123209332Y-71613037D01*
X123204420Y-71617460D01*
X123203295Y-71616211D01*
X123149986Y-71649051D01*
X123116800Y-71653500D01*
X120631767Y-71653500D01*
X120620584Y-71652973D01*
X120613091Y-71651298D01*
X120605165Y-71651547D01*
X120605164Y-71651547D01*
X120545001Y-71653438D01*
X120541043Y-71653500D01*
X120513144Y-71653500D01*
X120509154Y-71654004D01*
X120497320Y-71654936D01*
X120453111Y-71656326D01*
X120445497Y-71658538D01*
X120445492Y-71658539D01*
X120433659Y-71661977D01*
X120414296Y-71665988D01*
X120394203Y-71668526D01*
X120386836Y-71671443D01*
X120386831Y-71671444D01*
X120353092Y-71684802D01*
X120341865Y-71688646D01*
X120299407Y-71700982D01*
X120292581Y-71705019D01*
X120281972Y-71711293D01*
X120264224Y-71719988D01*
X120245383Y-71727448D01*
X120238967Y-71732110D01*
X120238966Y-71732110D01*
X120209613Y-71753436D01*
X120199693Y-71759952D01*
X120168465Y-71778420D01*
X120168462Y-71778422D01*
X120161638Y-71782458D01*
X120147317Y-71796779D01*
X120132284Y-71809619D01*
X120115893Y-71821528D01*
X120110842Y-71827634D01*
X120087702Y-71855605D01*
X120079712Y-71864384D01*
X119877501Y-72066595D01*
X119815189Y-72100621D01*
X119788406Y-72103500D01*
X118479866Y-72103500D01*
X118417684Y-72110255D01*
X118281295Y-72161385D01*
X118164739Y-72248739D01*
X118077385Y-72365295D01*
X118026255Y-72501684D01*
X118019500Y-72563866D01*
X118019500Y-74360134D01*
X118026255Y-74422316D01*
X118077385Y-74558705D01*
X118164739Y-74675261D01*
X118281295Y-74762615D01*
X118289704Y-74765767D01*
X118289705Y-74765768D01*
X118398451Y-74806535D01*
X118455216Y-74849176D01*
X118479916Y-74915738D01*
X118464709Y-74985087D01*
X118445316Y-75011568D01*
X118318629Y-75144138D01*
X118192743Y-75328680D01*
X118178898Y-75358507D01*
X118108696Y-75509745D01*
X118098688Y-75531305D01*
X118038989Y-75746570D01*
X118015251Y-75968695D01*
X118028110Y-76191715D01*
X118029247Y-76196761D01*
X118029248Y-76196767D01*
X118035241Y-76223357D01*
X118077222Y-76409639D01*
X118115461Y-76503811D01*
X118143636Y-76573197D01*
X118161266Y-76616616D01*
X118172838Y-76635500D01*
X118275291Y-76802688D01*
X118277987Y-76807088D01*
X118424250Y-76975938D01*
X118596126Y-77118632D01*
X118666595Y-77159811D01*
X118669445Y-77161476D01*
X118718169Y-77213114D01*
X118731240Y-77282897D01*
X118704509Y-77348669D01*
X118664055Y-77382027D01*
X118651607Y-77388507D01*
X118647474Y-77391610D01*
X118647471Y-77391612D01*
X118477100Y-77519530D01*
X118472965Y-77522635D01*
X118318629Y-77684138D01*
X118192743Y-77868680D01*
X118178898Y-77898507D01*
X118108696Y-78049745D01*
X118098688Y-78071305D01*
X118038989Y-78286570D01*
X118015251Y-78508695D01*
X118028110Y-78731715D01*
X118029247Y-78736761D01*
X118029248Y-78736767D01*
X118040031Y-78784614D01*
X118077222Y-78949639D01*
X118115461Y-79043811D01*
X118143636Y-79113197D01*
X118161266Y-79156616D01*
X118172838Y-79175500D01*
X118275291Y-79342688D01*
X118277987Y-79347088D01*
X118424250Y-79515938D01*
X118496540Y-79575954D01*
X118579220Y-79644596D01*
X118596126Y-79658632D01*
X118666595Y-79699811D01*
X118669445Y-79701476D01*
X118718169Y-79753114D01*
X118731240Y-79822897D01*
X118704509Y-79888669D01*
X118664055Y-79922027D01*
X118651607Y-79928507D01*
X118647474Y-79931610D01*
X118647471Y-79931612D01*
X118501146Y-80041476D01*
X118472965Y-80062635D01*
X118318629Y-80224138D01*
X118315720Y-80228403D01*
X118315714Y-80228411D01*
X118278939Y-80282321D01*
X118192743Y-80408680D01*
X118098688Y-80611305D01*
X118038989Y-80826570D01*
X118015251Y-81048695D01*
X118015548Y-81053848D01*
X118015548Y-81053851D01*
X118021011Y-81148590D01*
X118028110Y-81271715D01*
X118029247Y-81276761D01*
X118029248Y-81276767D01*
X118049119Y-81364939D01*
X118077222Y-81489639D01*
X118161266Y-81696616D01*
X118277987Y-81887088D01*
X118424250Y-82055938D01*
X118596126Y-82198632D01*
X118666595Y-82239811D01*
X118669445Y-82241476D01*
X118718169Y-82293114D01*
X118731240Y-82362897D01*
X118704509Y-82428669D01*
X118664055Y-82462027D01*
X118651607Y-82468507D01*
X118647474Y-82471610D01*
X118647471Y-82471612D01*
X118622685Y-82490222D01*
X118472965Y-82602635D01*
X118318629Y-82764138D01*
X118192743Y-82948680D01*
X118176899Y-82982814D01*
X118108696Y-83129745D01*
X118098688Y-83151305D01*
X118038989Y-83366570D01*
X118015251Y-83588695D01*
X118028110Y-83811715D01*
X118029247Y-83816761D01*
X118029248Y-83816767D01*
X118035241Y-83843357D01*
X118077222Y-84029639D01*
X118134896Y-84171674D01*
X118143636Y-84193197D01*
X118161266Y-84236616D01*
X118172838Y-84255500D01*
X118275291Y-84422688D01*
X118277987Y-84427088D01*
X118424250Y-84595938D01*
X118596126Y-84738632D01*
X118666595Y-84779811D01*
X118669445Y-84781476D01*
X118718169Y-84833114D01*
X118731240Y-84902897D01*
X118704509Y-84968669D01*
X118664055Y-85002027D01*
X118651607Y-85008507D01*
X118647474Y-85011610D01*
X118647471Y-85011612D01*
X118477100Y-85139530D01*
X118472965Y-85142635D01*
X118318629Y-85304138D01*
X118192743Y-85488680D01*
X118178898Y-85518507D01*
X118108696Y-85669745D01*
X118098688Y-85691305D01*
X118038989Y-85906570D01*
X118015251Y-86128695D01*
X118028110Y-86351715D01*
X118029247Y-86356761D01*
X118029248Y-86356767D01*
X118035241Y-86383357D01*
X118077222Y-86569639D01*
X118134896Y-86711674D01*
X118154452Y-86759834D01*
X118161266Y-86776616D01*
X118172838Y-86795500D01*
X118275291Y-86962688D01*
X118277987Y-86967088D01*
X118424250Y-87135938D01*
X118596126Y-87278632D01*
X118666595Y-87319811D01*
X118669445Y-87321476D01*
X118718169Y-87373114D01*
X118731240Y-87442897D01*
X118704509Y-87508669D01*
X118664055Y-87542027D01*
X118651607Y-87548507D01*
X118647474Y-87551610D01*
X118647471Y-87551612D01*
X118477100Y-87679530D01*
X118472965Y-87682635D01*
X118318629Y-87844138D01*
X118192743Y-88028680D01*
X118178898Y-88058507D01*
X118112203Y-88202190D01*
X118098688Y-88231305D01*
X118038989Y-88446570D01*
X118015251Y-88668695D01*
X118028110Y-88891715D01*
X118029247Y-88896761D01*
X118029248Y-88896767D01*
X118046645Y-88973962D01*
X118077222Y-89109639D01*
X118161266Y-89316616D01*
X118163965Y-89321020D01*
X118275291Y-89502688D01*
X118277987Y-89507088D01*
X118424250Y-89675938D01*
X118596126Y-89818632D01*
X118789000Y-89931338D01*
X118997692Y-90011030D01*
X119002760Y-90012061D01*
X119002763Y-90012062D01*
X119097862Y-90031410D01*
X119216597Y-90055567D01*
X119221772Y-90055757D01*
X119221774Y-90055757D01*
X119434673Y-90063564D01*
X119434677Y-90063564D01*
X119439837Y-90063753D01*
X119444957Y-90063097D01*
X119444959Y-90063097D01*
X119656288Y-90036025D01*
X119656289Y-90036025D01*
X119661416Y-90035368D01*
X119666366Y-90033883D01*
X119870429Y-89972661D01*
X119870434Y-89972659D01*
X119875384Y-89971174D01*
X120075994Y-89872896D01*
X120257860Y-89743173D01*
X120286664Y-89714470D01*
X120412435Y-89589137D01*
X120416096Y-89585489D01*
X120454716Y-89531744D01*
X120546453Y-89404077D01*
X120547640Y-89404930D01*
X120594960Y-89361362D01*
X120664897Y-89349145D01*
X120730338Y-89376678D01*
X120758166Y-89408511D01*
X120815694Y-89502388D01*
X120821777Y-89510699D01*
X120961213Y-89671667D01*
X120968580Y-89678883D01*
X121132434Y-89814916D01*
X121140881Y-89820831D01*
X121324756Y-89928279D01*
X121334042Y-89932729D01*
X121533001Y-90008703D01*
X121542899Y-90011579D01*
X121646250Y-90032606D01*
X121660299Y-90031410D01*
X121664000Y-90021065D01*
X121664000Y-90020517D01*
X122172000Y-90020517D01*
X122176064Y-90034359D01*
X122189478Y-90036393D01*
X122196184Y-90035534D01*
X122206262Y-90033392D01*
X122410255Y-89972191D01*
X122419842Y-89968433D01*
X122611095Y-89874739D01*
X122619945Y-89869464D01*
X122793328Y-89745792D01*
X122801200Y-89739139D01*
X122952052Y-89588812D01*
X122958730Y-89580965D01*
X123083003Y-89408020D01*
X123088313Y-89399183D01*
X123182670Y-89208267D01*
X123186469Y-89198672D01*
X123248377Y-88994910D01*
X123250555Y-88984837D01*
X123251986Y-88973962D01*
X123249775Y-88959778D01*
X123236617Y-88956000D01*
X122190115Y-88956000D01*
X122174876Y-88960475D01*
X122173671Y-88961865D01*
X122172000Y-88969548D01*
X122172000Y-90020517D01*
X121664000Y-90020517D01*
X121664000Y-88286500D01*
X121684002Y-88218379D01*
X121737658Y-88171886D01*
X121790000Y-88160500D01*
X122046000Y-88160500D01*
X122114121Y-88180502D01*
X122160614Y-88234158D01*
X122172000Y-88286500D01*
X122172000Y-88429885D01*
X122176475Y-88445124D01*
X122177865Y-88446329D01*
X122185548Y-88448000D01*
X123236344Y-88448000D01*
X123249875Y-88444027D01*
X123251180Y-88434947D01*
X123221603Y-88317196D01*
X123224407Y-88246255D01*
X123265120Y-88188091D01*
X123330815Y-88161172D01*
X123343807Y-88160500D01*
X130644060Y-88160500D01*
X130712181Y-88180502D01*
X130737694Y-88202189D01*
X130833747Y-88308866D01*
X130988248Y-88421118D01*
X130994276Y-88423802D01*
X130994278Y-88423803D01*
X131156681Y-88496109D01*
X131162712Y-88498794D01*
X131256113Y-88518647D01*
X131343056Y-88537128D01*
X131343061Y-88537128D01*
X131349513Y-88538500D01*
X131540487Y-88538500D01*
X131546939Y-88537128D01*
X131546944Y-88537128D01*
X131633887Y-88518647D01*
X131727288Y-88498794D01*
X131733319Y-88496109D01*
X131895722Y-88423803D01*
X131895724Y-88423802D01*
X131901752Y-88421118D01*
X131972581Y-88369658D01*
X132022269Y-88333557D01*
X132089137Y-88309699D01*
X132158288Y-88325779D01*
X132203762Y-88369658D01*
X132247285Y-88440680D01*
X132247290Y-88440687D01*
X132249987Y-88445088D01*
X132396250Y-88613938D01*
X132568126Y-88756632D01*
X132588590Y-88768590D01*
X132641955Y-88799774D01*
X132690679Y-88851412D01*
X132703750Y-88921195D01*
X132677019Y-88986967D01*
X132636562Y-89020327D01*
X132628457Y-89024546D01*
X132619738Y-89030036D01*
X132449433Y-89157905D01*
X132441726Y-89164748D01*
X132294590Y-89318717D01*
X132288104Y-89326727D01*
X132168098Y-89502649D01*
X132163000Y-89511623D01*
X132073338Y-89704783D01*
X132069775Y-89714470D01*
X132014389Y-89914183D01*
X132015912Y-89922607D01*
X132028292Y-89926000D01*
X134668344Y-89926000D01*
X134681875Y-89922027D01*
X134683180Y-89912947D01*
X134641214Y-89745875D01*
X134637894Y-89736124D01*
X134552972Y-89540814D01*
X134548108Y-89531744D01*
X134546940Y-89529938D01*
X134546692Y-89529103D01*
X134545661Y-89527180D01*
X134546058Y-89526967D01*
X134526735Y-89461877D01*
X134546533Y-89393697D01*
X134600049Y-89347043D01*
X134652734Y-89335500D01*
X144540274Y-89335500D01*
X144608395Y-89355502D01*
X144647707Y-89395665D01*
X144715987Y-89507088D01*
X144862250Y-89675938D01*
X145034126Y-89818632D01*
X145227000Y-89931338D01*
X145435692Y-90011030D01*
X145440760Y-90012061D01*
X145440763Y-90012062D01*
X145535862Y-90031410D01*
X145654597Y-90055567D01*
X145659772Y-90055757D01*
X145659774Y-90055757D01*
X145872673Y-90063564D01*
X145872677Y-90063564D01*
X145877837Y-90063753D01*
X145882957Y-90063097D01*
X145882959Y-90063097D01*
X146094288Y-90036025D01*
X146094289Y-90036025D01*
X146099416Y-90035368D01*
X146104366Y-90033883D01*
X146308429Y-89972661D01*
X146308434Y-89972659D01*
X146313384Y-89971174D01*
X146513994Y-89872896D01*
X146695860Y-89743173D01*
X146724664Y-89714470D01*
X146850435Y-89589137D01*
X146854096Y-89585489D01*
X146892716Y-89531744D01*
X146984453Y-89404077D01*
X146985640Y-89404930D01*
X147032960Y-89361362D01*
X147102897Y-89349145D01*
X147168338Y-89376678D01*
X147196166Y-89408511D01*
X147253694Y-89502388D01*
X147259777Y-89510699D01*
X147399213Y-89671667D01*
X147406580Y-89678883D01*
X147570434Y-89814916D01*
X147578881Y-89820831D01*
X147762756Y-89928279D01*
X147772042Y-89932729D01*
X147971001Y-90008703D01*
X147980899Y-90011579D01*
X148084250Y-90032606D01*
X148098299Y-90031410D01*
X148102000Y-90021065D01*
X148102000Y-90020517D01*
X148610000Y-90020517D01*
X148614064Y-90034359D01*
X148627478Y-90036393D01*
X148634184Y-90035534D01*
X148644262Y-90033392D01*
X148848255Y-89972191D01*
X148857842Y-89968433D01*
X149049095Y-89874739D01*
X149057945Y-89869464D01*
X149231328Y-89745792D01*
X149239200Y-89739139D01*
X149390052Y-89588812D01*
X149396730Y-89580965D01*
X149521003Y-89408020D01*
X149526313Y-89399183D01*
X149620670Y-89208267D01*
X149624469Y-89198672D01*
X149686377Y-88994910D01*
X149688555Y-88984837D01*
X149689986Y-88973962D01*
X149687775Y-88959778D01*
X149674617Y-88956000D01*
X148628115Y-88956000D01*
X148612876Y-88960475D01*
X148611671Y-88961865D01*
X148610000Y-88969548D01*
X148610000Y-90020517D01*
X148102000Y-90020517D01*
X148102000Y-88429885D01*
X148610000Y-88429885D01*
X148614475Y-88445124D01*
X148615865Y-88446329D01*
X148623548Y-88448000D01*
X149674344Y-88448000D01*
X149687875Y-88444027D01*
X149689180Y-88434947D01*
X149647214Y-88267875D01*
X149643894Y-88258124D01*
X149558972Y-88062814D01*
X149554105Y-88053739D01*
X149438426Y-87874926D01*
X149432136Y-87866757D01*
X149288806Y-87709240D01*
X149281273Y-87702215D01*
X149114139Y-87570222D01*
X149105552Y-87564517D01*
X149068116Y-87543851D01*
X149018146Y-87493419D01*
X149003374Y-87423976D01*
X149028490Y-87357571D01*
X149055842Y-87330964D01*
X149231327Y-87205792D01*
X149239200Y-87199139D01*
X149390052Y-87048812D01*
X149396730Y-87040965D01*
X149521003Y-86868020D01*
X149526313Y-86859183D01*
X149620670Y-86668267D01*
X149624469Y-86658672D01*
X149686377Y-86454910D01*
X149688555Y-86444837D01*
X149689986Y-86433962D01*
X149687775Y-86419778D01*
X149674617Y-86416000D01*
X148628115Y-86416000D01*
X148612876Y-86420475D01*
X148611671Y-86421865D01*
X148610000Y-86429548D01*
X148610000Y-88429885D01*
X148102000Y-88429885D01*
X148102000Y-85889885D01*
X148610000Y-85889885D01*
X148614475Y-85905124D01*
X148615865Y-85906329D01*
X148623548Y-85908000D01*
X149674344Y-85908000D01*
X149687875Y-85904027D01*
X149689180Y-85894947D01*
X149647214Y-85727875D01*
X149643894Y-85718124D01*
X149558972Y-85522814D01*
X149554105Y-85513739D01*
X149438426Y-85334926D01*
X149432136Y-85326757D01*
X149288806Y-85169240D01*
X149281273Y-85162215D01*
X149114139Y-85030222D01*
X149105552Y-85024517D01*
X149068116Y-85003851D01*
X149018146Y-84953419D01*
X149003374Y-84883976D01*
X149028490Y-84817571D01*
X149055842Y-84790964D01*
X149231327Y-84665792D01*
X149239200Y-84659139D01*
X149390052Y-84508812D01*
X149396730Y-84500965D01*
X149521003Y-84328020D01*
X149526313Y-84319183D01*
X149620670Y-84128267D01*
X149624469Y-84118672D01*
X149686377Y-83914910D01*
X149688555Y-83904837D01*
X149689986Y-83893962D01*
X149687775Y-83879778D01*
X149674617Y-83876000D01*
X148628115Y-83876000D01*
X148612876Y-83880475D01*
X148611671Y-83881865D01*
X148610000Y-83889548D01*
X148610000Y-85889885D01*
X148102000Y-85889885D01*
X148102000Y-83494000D01*
X148122002Y-83425879D01*
X148175658Y-83379386D01*
X148228000Y-83368000D01*
X149674344Y-83368000D01*
X149687875Y-83364027D01*
X149689180Y-83354947D01*
X149647214Y-83187875D01*
X149643894Y-83178124D01*
X149558972Y-82982814D01*
X149554105Y-82973739D01*
X149438426Y-82794926D01*
X149432136Y-82786757D01*
X149288806Y-82629240D01*
X149281273Y-82622215D01*
X149114139Y-82490222D01*
X149105556Y-82484520D01*
X149068602Y-82464120D01*
X149018631Y-82413687D01*
X149003859Y-82344245D01*
X149028975Y-82277839D01*
X149056327Y-82251232D01*
X149079797Y-82234491D01*
X149235860Y-82123173D01*
X149394096Y-81965489D01*
X149453594Y-81882689D01*
X149521435Y-81788277D01*
X149524453Y-81784077D01*
X149623430Y-81583811D01*
X149688370Y-81370069D01*
X149717529Y-81148590D01*
X149719156Y-81082000D01*
X149700852Y-80859361D01*
X149672821Y-80747766D01*
X149675625Y-80676825D01*
X149705930Y-80627975D01*
X149923253Y-80410652D01*
X149931539Y-80403112D01*
X149938018Y-80399000D01*
X149984644Y-80349348D01*
X149987398Y-80346507D01*
X150007135Y-80326770D01*
X150009615Y-80323573D01*
X150017320Y-80314551D01*
X150042159Y-80288100D01*
X150047586Y-80282321D01*
X150051405Y-80275375D01*
X150051407Y-80275372D01*
X150057348Y-80264566D01*
X150068199Y-80248047D01*
X150075758Y-80238301D01*
X150080614Y-80232041D01*
X150083759Y-80224772D01*
X150083762Y-80224768D01*
X150098174Y-80191463D01*
X150103391Y-80180813D01*
X150124695Y-80142060D01*
X150129733Y-80122437D01*
X150136137Y-80103734D01*
X150141033Y-80092420D01*
X150141033Y-80092419D01*
X150144181Y-80085145D01*
X150145420Y-80077322D01*
X150145423Y-80077312D01*
X150151099Y-80041476D01*
X150153505Y-80029856D01*
X150162528Y-79994711D01*
X150162528Y-79994710D01*
X150164500Y-79987030D01*
X150164500Y-79966776D01*
X150166051Y-79947065D01*
X150167980Y-79934886D01*
X150169220Y-79927057D01*
X150165059Y-79883038D01*
X150164500Y-79871181D01*
X150164500Y-72901768D01*
X150165027Y-72890585D01*
X150166702Y-72883092D01*
X150164562Y-72815001D01*
X150164500Y-72811044D01*
X150164500Y-72783144D01*
X150163996Y-72779153D01*
X150163063Y-72767311D01*
X150161923Y-72731036D01*
X150161674Y-72723111D01*
X150159462Y-72715497D01*
X150159461Y-72715492D01*
X150156023Y-72703659D01*
X150152012Y-72684295D01*
X150150467Y-72672064D01*
X150149474Y-72664203D01*
X150146557Y-72656836D01*
X150146556Y-72656831D01*
X150133198Y-72623092D01*
X150129354Y-72611865D01*
X150119230Y-72577022D01*
X150117018Y-72569407D01*
X150106707Y-72551972D01*
X150098012Y-72534224D01*
X150090552Y-72515383D01*
X150064564Y-72479613D01*
X150058048Y-72469693D01*
X150039580Y-72438465D01*
X150039578Y-72438462D01*
X150035542Y-72431638D01*
X150021221Y-72417317D01*
X150008380Y-72402283D01*
X150006721Y-72400000D01*
X149996472Y-72385893D01*
X149962395Y-72357702D01*
X149953616Y-72349712D01*
X147071652Y-69467747D01*
X147064112Y-69459461D01*
X147060000Y-69452982D01*
X147010348Y-69406356D01*
X147007507Y-69403602D01*
X146987770Y-69383865D01*
X146984573Y-69381385D01*
X146975551Y-69373680D01*
X146949100Y-69348841D01*
X146943321Y-69343414D01*
X146936375Y-69339595D01*
X146936372Y-69339593D01*
X146925566Y-69333652D01*
X146909047Y-69322801D01*
X146908583Y-69322441D01*
X146893041Y-69310386D01*
X146885772Y-69307241D01*
X146885768Y-69307238D01*
X146852463Y-69292826D01*
X146841813Y-69287609D01*
X146803060Y-69266305D01*
X146783437Y-69261267D01*
X146764734Y-69254863D01*
X146753420Y-69249967D01*
X146753419Y-69249967D01*
X146746145Y-69246819D01*
X146738322Y-69245580D01*
X146738312Y-69245577D01*
X146702476Y-69239901D01*
X146690856Y-69237495D01*
X146655711Y-69228472D01*
X146655710Y-69228472D01*
X146648030Y-69226500D01*
X146627776Y-69226500D01*
X146608065Y-69224949D01*
X146595886Y-69223020D01*
X146588057Y-69221780D01*
X146580165Y-69222526D01*
X146544039Y-69225941D01*
X146532181Y-69226500D01*
X134834500Y-69226500D01*
X134766379Y-69206498D01*
X134719886Y-69152842D01*
X134708500Y-69100500D01*
X134708500Y-68961866D01*
X134701745Y-68899684D01*
X134650615Y-68763295D01*
X134569501Y-68655065D01*
X134544653Y-68588559D01*
X134559706Y-68519176D01*
X134609880Y-68468946D01*
X134670327Y-68453500D01*
X151437122Y-68453500D01*
X151505243Y-68473502D01*
X151551736Y-68527158D01*
X151561840Y-68597432D01*
X151532346Y-68662012D01*
X151496276Y-68690751D01*
X151465210Y-68707269D01*
X151333058Y-68777536D01*
X151329499Y-68780122D01*
X151329497Y-68780123D01*
X151164935Y-68899684D01*
X151105808Y-68942642D01*
X151102644Y-68945698D01*
X151102641Y-68945700D01*
X151013864Y-69031431D01*
X150903748Y-69137769D01*
X150819639Y-69245424D01*
X150746067Y-69339593D01*
X150730812Y-69359118D01*
X150728616Y-69362922D01*
X150728611Y-69362929D01*
X150639992Y-69516423D01*
X150590364Y-69602381D01*
X150485138Y-69862824D01*
X150484073Y-69867097D01*
X150484072Y-69867099D01*
X150450379Y-70002236D01*
X150417183Y-70135376D01*
X150387822Y-70414733D01*
X150387975Y-70419121D01*
X150387975Y-70419127D01*
X150394973Y-70619500D01*
X150397625Y-70695458D01*
X150398387Y-70699781D01*
X150398388Y-70699788D01*
X150422164Y-70834624D01*
X150446402Y-70972087D01*
X150533203Y-71239235D01*
X150535131Y-71243188D01*
X150535133Y-71243193D01*
X150537076Y-71247176D01*
X150656340Y-71491702D01*
X150658795Y-71495341D01*
X150658798Y-71495347D01*
X150690359Y-71542138D01*
X150813415Y-71724576D01*
X151001371Y-71933322D01*
X151216550Y-72113879D01*
X151454764Y-72262731D01*
X151588484Y-72322267D01*
X151685126Y-72365295D01*
X151711375Y-72376982D01*
X151981390Y-72454407D01*
X151985740Y-72455018D01*
X151985743Y-72455019D01*
X152088690Y-72469487D01*
X152259552Y-72493500D01*
X152470146Y-72493500D01*
X152472332Y-72493347D01*
X152472336Y-72493347D01*
X152675827Y-72479118D01*
X152675832Y-72479117D01*
X152680212Y-72478811D01*
X152954970Y-72420409D01*
X152959099Y-72418906D01*
X152959103Y-72418905D01*
X153214781Y-72325846D01*
X153214785Y-72325844D01*
X153218926Y-72324337D01*
X153466942Y-72192464D01*
X153514057Y-72158233D01*
X153690629Y-72029947D01*
X153690632Y-72029944D01*
X153694192Y-72027358D01*
X153702564Y-72019274D01*
X153794947Y-71930060D01*
X153896252Y-71832231D01*
X154064049Y-71617460D01*
X154066481Y-71614347D01*
X154066482Y-71614346D01*
X154069188Y-71610882D01*
X154196381Y-71390577D01*
X154247763Y-71341584D01*
X154317477Y-71328148D01*
X154383388Y-71354534D01*
X154424570Y-71412366D01*
X154431500Y-71453577D01*
X154431500Y-98732691D01*
X154411498Y-98800812D01*
X154357842Y-98847305D01*
X154287568Y-98857409D01*
X154222988Y-98827915D01*
X154192252Y-98787926D01*
X154182355Y-98767634D01*
X154143660Y-98688298D01*
X154141205Y-98684659D01*
X154141202Y-98684653D01*
X154023830Y-98510642D01*
X153986585Y-98455424D01*
X153969296Y-98436222D01*
X153875244Y-98331767D01*
X153798629Y-98246678D01*
X153583450Y-98066121D01*
X153345236Y-97917269D01*
X153088625Y-97803018D01*
X152933992Y-97758678D01*
X152822837Y-97726805D01*
X152822836Y-97726805D01*
X152818610Y-97725593D01*
X152814260Y-97724982D01*
X152814257Y-97724981D01*
X152711310Y-97710513D01*
X152540448Y-97686500D01*
X152329854Y-97686500D01*
X152327668Y-97686653D01*
X152327664Y-97686653D01*
X152124173Y-97700882D01*
X152124168Y-97700883D01*
X152119788Y-97701189D01*
X151845030Y-97759591D01*
X151840901Y-97761094D01*
X151840897Y-97761095D01*
X151585219Y-97854154D01*
X151585215Y-97854156D01*
X151581074Y-97855663D01*
X151333058Y-97987536D01*
X151329499Y-97990122D01*
X151329497Y-97990123D01*
X151116833Y-98144632D01*
X151105808Y-98152642D01*
X151102644Y-98155698D01*
X151102641Y-98155700D01*
X151032416Y-98223516D01*
X150903748Y-98347769D01*
X150776498Y-98510642D01*
X150743602Y-98552748D01*
X150730812Y-98569118D01*
X150728616Y-98572922D01*
X150728611Y-98572929D01*
X150616199Y-98767634D01*
X150590364Y-98812381D01*
X150485138Y-99072824D01*
X150484073Y-99077097D01*
X150484072Y-99077099D01*
X150424082Y-99317707D01*
X150417183Y-99345376D01*
X150416724Y-99349744D01*
X150416723Y-99349749D01*
X150397285Y-99534695D01*
X150387822Y-99624733D01*
X150387975Y-99629121D01*
X150387975Y-99629127D01*
X150395718Y-99850837D01*
X150397625Y-99905458D01*
X150398387Y-99909781D01*
X150398388Y-99909788D01*
X150422164Y-100044624D01*
X150446402Y-100182087D01*
X150533203Y-100449235D01*
X150535131Y-100453188D01*
X150535133Y-100453193D01*
X150578787Y-100542695D01*
X150656340Y-100701702D01*
X150658795Y-100705341D01*
X150658798Y-100705347D01*
X150682963Y-100741173D01*
X150813415Y-100934576D01*
X151001371Y-101143322D01*
X151216550Y-101323879D01*
X151454764Y-101472731D01*
X151478264Y-101483194D01*
X151483203Y-101485393D01*
X151537299Y-101531374D01*
X151557948Y-101599301D01*
X151538595Y-101667609D01*
X151485385Y-101714610D01*
X151431954Y-101726500D01*
X113357878Y-101726500D01*
X113289757Y-101706498D01*
X113243264Y-101652842D01*
X113233160Y-101582568D01*
X113262654Y-101517988D01*
X113298724Y-101489249D01*
X113458056Y-101404530D01*
X113461942Y-101402464D01*
X113566896Y-101326211D01*
X113685629Y-101239947D01*
X113685632Y-101239944D01*
X113689192Y-101237358D01*
X113891252Y-101042231D01*
X114064188Y-100820882D01*
X114066384Y-100817078D01*
X114066389Y-100817071D01*
X114202435Y-100581431D01*
X114204636Y-100577619D01*
X114309862Y-100317176D01*
X114321368Y-100271028D01*
X114376753Y-100048893D01*
X114376754Y-100048888D01*
X114377817Y-100044624D01*
X114384565Y-99980425D01*
X114406719Y-99769636D01*
X114406719Y-99769633D01*
X114407178Y-99765267D01*
X114407025Y-99760873D01*
X114399127Y-99534695D01*
X121573251Y-99534695D01*
X121573548Y-99539848D01*
X121573548Y-99539851D01*
X121578442Y-99624733D01*
X121586110Y-99757715D01*
X121587247Y-99762761D01*
X121587248Y-99762767D01*
X121600597Y-99822000D01*
X121635222Y-99975639D01*
X121719266Y-100182616D01*
X121769863Y-100265183D01*
X121833291Y-100368688D01*
X121835987Y-100373088D01*
X121982250Y-100541938D01*
X122154126Y-100684632D01*
X122347000Y-100797338D01*
X122555692Y-100877030D01*
X122560760Y-100878061D01*
X122560763Y-100878062D01*
X122655862Y-100897410D01*
X122774597Y-100921567D01*
X122779772Y-100921757D01*
X122779774Y-100921757D01*
X122992673Y-100929564D01*
X122992677Y-100929564D01*
X122997837Y-100929753D01*
X123002957Y-100929097D01*
X123002959Y-100929097D01*
X123214288Y-100902025D01*
X123214289Y-100902025D01*
X123219416Y-100901368D01*
X123224366Y-100899883D01*
X123428429Y-100838661D01*
X123428434Y-100838659D01*
X123433384Y-100837174D01*
X123633994Y-100738896D01*
X123815860Y-100609173D01*
X123847525Y-100577619D01*
X123970435Y-100455137D01*
X123974096Y-100451489D01*
X124033594Y-100368689D01*
X124104453Y-100270077D01*
X124105776Y-100271028D01*
X124152645Y-100227857D01*
X124222580Y-100215625D01*
X124288026Y-100243144D01*
X124315875Y-100274994D01*
X124375987Y-100373088D01*
X124522250Y-100541938D01*
X124694126Y-100684632D01*
X124887000Y-100797338D01*
X125095692Y-100877030D01*
X125100760Y-100878061D01*
X125100763Y-100878062D01*
X125195862Y-100897410D01*
X125314597Y-100921567D01*
X125319772Y-100921757D01*
X125319774Y-100921757D01*
X125532673Y-100929564D01*
X125532677Y-100929564D01*
X125537837Y-100929753D01*
X125542957Y-100929097D01*
X125542959Y-100929097D01*
X125754288Y-100902025D01*
X125754289Y-100902025D01*
X125759416Y-100901368D01*
X125764366Y-100899883D01*
X125968429Y-100838661D01*
X125968434Y-100838659D01*
X125973384Y-100837174D01*
X126173994Y-100738896D01*
X126355860Y-100609173D01*
X126387525Y-100577619D01*
X126510435Y-100455137D01*
X126514096Y-100451489D01*
X126573594Y-100368689D01*
X126644453Y-100270077D01*
X126645776Y-100271028D01*
X126692645Y-100227857D01*
X126762580Y-100215625D01*
X126828026Y-100243144D01*
X126855875Y-100274994D01*
X126915987Y-100373088D01*
X127062250Y-100541938D01*
X127234126Y-100684632D01*
X127427000Y-100797338D01*
X127635692Y-100877030D01*
X127640760Y-100878061D01*
X127640763Y-100878062D01*
X127735862Y-100897410D01*
X127854597Y-100921567D01*
X127859772Y-100921757D01*
X127859774Y-100921757D01*
X128072673Y-100929564D01*
X128072677Y-100929564D01*
X128077837Y-100929753D01*
X128082957Y-100929097D01*
X128082959Y-100929097D01*
X128294288Y-100902025D01*
X128294289Y-100902025D01*
X128299416Y-100901368D01*
X128304366Y-100899883D01*
X128508429Y-100838661D01*
X128508434Y-100838659D01*
X128513384Y-100837174D01*
X128713994Y-100738896D01*
X128895860Y-100609173D01*
X128927525Y-100577619D01*
X129050435Y-100455137D01*
X129054096Y-100451489D01*
X129113594Y-100368689D01*
X129184453Y-100270077D01*
X129185776Y-100271028D01*
X129232645Y-100227857D01*
X129302580Y-100215625D01*
X129368026Y-100243144D01*
X129395875Y-100274994D01*
X129455987Y-100373088D01*
X129602250Y-100541938D01*
X129774126Y-100684632D01*
X129967000Y-100797338D01*
X130175692Y-100877030D01*
X130180760Y-100878061D01*
X130180763Y-100878062D01*
X130275862Y-100897410D01*
X130394597Y-100921567D01*
X130399772Y-100921757D01*
X130399774Y-100921757D01*
X130612673Y-100929564D01*
X130612677Y-100929564D01*
X130617837Y-100929753D01*
X130622957Y-100929097D01*
X130622959Y-100929097D01*
X130834288Y-100902025D01*
X130834289Y-100902025D01*
X130839416Y-100901368D01*
X130844366Y-100899883D01*
X131048429Y-100838661D01*
X131048434Y-100838659D01*
X131053384Y-100837174D01*
X131253994Y-100738896D01*
X131435860Y-100609173D01*
X131467525Y-100577619D01*
X131590435Y-100455137D01*
X131594096Y-100451489D01*
X131653594Y-100368689D01*
X131724453Y-100270077D01*
X131725640Y-100270930D01*
X131772960Y-100227362D01*
X131842897Y-100215145D01*
X131908338Y-100242678D01*
X131936166Y-100274511D01*
X131993694Y-100368388D01*
X131999777Y-100376699D01*
X132139213Y-100537667D01*
X132146580Y-100544883D01*
X132310434Y-100680916D01*
X132318881Y-100686831D01*
X132502756Y-100794279D01*
X132512042Y-100798729D01*
X132711001Y-100874703D01*
X132720899Y-100877579D01*
X132824250Y-100898606D01*
X132838299Y-100897410D01*
X132842000Y-100887065D01*
X132842000Y-100886517D01*
X133350000Y-100886517D01*
X133354064Y-100900359D01*
X133367478Y-100902393D01*
X133374184Y-100901534D01*
X133384262Y-100899392D01*
X133588255Y-100838191D01*
X133597842Y-100834433D01*
X133789095Y-100740739D01*
X133797945Y-100735464D01*
X133971328Y-100611792D01*
X133979200Y-100605139D01*
X134130052Y-100454812D01*
X134136730Y-100446965D01*
X134261003Y-100274020D01*
X134266313Y-100265183D01*
X134360670Y-100074267D01*
X134364469Y-100064672D01*
X134426377Y-99860910D01*
X134428555Y-99850837D01*
X134429986Y-99839962D01*
X134427775Y-99825778D01*
X134414617Y-99822000D01*
X133368115Y-99822000D01*
X133352876Y-99826475D01*
X133351671Y-99827865D01*
X133350000Y-99835548D01*
X133350000Y-100886517D01*
X132842000Y-100886517D01*
X132842000Y-99440000D01*
X132862002Y-99371879D01*
X132915658Y-99325386D01*
X132968000Y-99314000D01*
X134414344Y-99314000D01*
X134427875Y-99310027D01*
X134429180Y-99300947D01*
X134387214Y-99133875D01*
X134383894Y-99124124D01*
X134298972Y-98928814D01*
X134294105Y-98919739D01*
X134178426Y-98740926D01*
X134172136Y-98732757D01*
X134028806Y-98575240D01*
X134021273Y-98568215D01*
X133854139Y-98436222D01*
X133845556Y-98430520D01*
X133808602Y-98410120D01*
X133758631Y-98359687D01*
X133743859Y-98290245D01*
X133768975Y-98223839D01*
X133796327Y-98197232D01*
X133858840Y-98152642D01*
X133975860Y-98069173D01*
X134134096Y-97911489D01*
X134264453Y-97730077D01*
X134278731Y-97701189D01*
X134361136Y-97534453D01*
X134361137Y-97534451D01*
X134363430Y-97529811D01*
X134428370Y-97316069D01*
X134457529Y-97094590D01*
X134459156Y-97028000D01*
X134440852Y-96805361D01*
X134386431Y-96588702D01*
X134297354Y-96383840D01*
X134176014Y-96196277D01*
X134025670Y-96031051D01*
X134021619Y-96027852D01*
X134021615Y-96027848D01*
X133854414Y-95895800D01*
X133854410Y-95895798D01*
X133850359Y-95892598D01*
X133654789Y-95784638D01*
X133649920Y-95782914D01*
X133649916Y-95782912D01*
X133449087Y-95711795D01*
X133449083Y-95711794D01*
X133444212Y-95710069D01*
X133439119Y-95709162D01*
X133439116Y-95709161D01*
X133229373Y-95671800D01*
X133229367Y-95671799D01*
X133224284Y-95670894D01*
X133150452Y-95669992D01*
X133006081Y-95668228D01*
X133006079Y-95668228D01*
X133000911Y-95668165D01*
X132780091Y-95701955D01*
X132567756Y-95771357D01*
X132369607Y-95874507D01*
X132365474Y-95877610D01*
X132365471Y-95877612D01*
X132195100Y-96005530D01*
X132190965Y-96008635D01*
X132187393Y-96012373D01*
X132079729Y-96125037D01*
X132036629Y-96170138D01*
X131929201Y-96327621D01*
X131874293Y-96372621D01*
X131803768Y-96380792D01*
X131740021Y-96349538D01*
X131719324Y-96325054D01*
X131638822Y-96200617D01*
X131638820Y-96200614D01*
X131636014Y-96196277D01*
X131485670Y-96031051D01*
X131481619Y-96027852D01*
X131481615Y-96027848D01*
X131314414Y-95895800D01*
X131314410Y-95895798D01*
X131310359Y-95892598D01*
X131114789Y-95784638D01*
X131109920Y-95782914D01*
X131109916Y-95782912D01*
X130909087Y-95711795D01*
X130909083Y-95711794D01*
X130904212Y-95710069D01*
X130899119Y-95709162D01*
X130899116Y-95709161D01*
X130689373Y-95671800D01*
X130689367Y-95671799D01*
X130684284Y-95670894D01*
X130610452Y-95669992D01*
X130466081Y-95668228D01*
X130466079Y-95668228D01*
X130460911Y-95668165D01*
X130240091Y-95701955D01*
X130027756Y-95771357D01*
X129829607Y-95874507D01*
X129825474Y-95877610D01*
X129825471Y-95877612D01*
X129655100Y-96005530D01*
X129650965Y-96008635D01*
X129647393Y-96012373D01*
X129539729Y-96125037D01*
X129496629Y-96170138D01*
X129389201Y-96327621D01*
X129334293Y-96372621D01*
X129263768Y-96380792D01*
X129200021Y-96349538D01*
X129179324Y-96325054D01*
X129098822Y-96200617D01*
X129098820Y-96200614D01*
X129096014Y-96196277D01*
X128945670Y-96031051D01*
X128941619Y-96027852D01*
X128941615Y-96027848D01*
X128774414Y-95895800D01*
X128774410Y-95895798D01*
X128770359Y-95892598D01*
X128574789Y-95784638D01*
X128569920Y-95782914D01*
X128569916Y-95782912D01*
X128369087Y-95711795D01*
X128369083Y-95711794D01*
X128364212Y-95710069D01*
X128359119Y-95709162D01*
X128359116Y-95709161D01*
X128149373Y-95671800D01*
X128149367Y-95671799D01*
X128144284Y-95670894D01*
X128070452Y-95669992D01*
X127926081Y-95668228D01*
X127926079Y-95668228D01*
X127920911Y-95668165D01*
X127700091Y-95701955D01*
X127487756Y-95771357D01*
X127289607Y-95874507D01*
X127285474Y-95877610D01*
X127285471Y-95877612D01*
X127115100Y-96005530D01*
X127110965Y-96008635D01*
X127107393Y-96012373D01*
X126999729Y-96125037D01*
X126956629Y-96170138D01*
X126849201Y-96327621D01*
X126794293Y-96372621D01*
X126723768Y-96380792D01*
X126660021Y-96349538D01*
X126639324Y-96325054D01*
X126558822Y-96200617D01*
X126558820Y-96200614D01*
X126556014Y-96196277D01*
X126405670Y-96031051D01*
X126401619Y-96027852D01*
X126401615Y-96027848D01*
X126234414Y-95895800D01*
X126234410Y-95895798D01*
X126230359Y-95892598D01*
X126034789Y-95784638D01*
X126029920Y-95782914D01*
X126029916Y-95782912D01*
X125829087Y-95711795D01*
X125829083Y-95711794D01*
X125824212Y-95710069D01*
X125819119Y-95709162D01*
X125819116Y-95709161D01*
X125609373Y-95671800D01*
X125609367Y-95671799D01*
X125604284Y-95670894D01*
X125530452Y-95669992D01*
X125386081Y-95668228D01*
X125386079Y-95668228D01*
X125380911Y-95668165D01*
X125160091Y-95701955D01*
X124947756Y-95771357D01*
X124749607Y-95874507D01*
X124745474Y-95877610D01*
X124745471Y-95877612D01*
X124575100Y-96005530D01*
X124570965Y-96008635D01*
X124514537Y-96067684D01*
X124490283Y-96093064D01*
X124428759Y-96128494D01*
X124357846Y-96125037D01*
X124300060Y-96083791D01*
X124281207Y-96050243D01*
X124239767Y-95939703D01*
X124236615Y-95931295D01*
X124149261Y-95814739D01*
X124032705Y-95727385D01*
X123896316Y-95676255D01*
X123834134Y-95669500D01*
X122037866Y-95669500D01*
X121975684Y-95676255D01*
X121839295Y-95727385D01*
X121722739Y-95814739D01*
X121635385Y-95931295D01*
X121584255Y-96067684D01*
X121577500Y-96129866D01*
X121577500Y-97926134D01*
X121584255Y-97988316D01*
X121635385Y-98124705D01*
X121722739Y-98241261D01*
X121839295Y-98328615D01*
X121847704Y-98331767D01*
X121847705Y-98331768D01*
X121956451Y-98372535D01*
X122013216Y-98415176D01*
X122037916Y-98481738D01*
X122022709Y-98551087D01*
X122003316Y-98577568D01*
X121876629Y-98710138D01*
X121750743Y-98894680D01*
X121729351Y-98940765D01*
X121668052Y-99072824D01*
X121656688Y-99097305D01*
X121596989Y-99312570D01*
X121573251Y-99534695D01*
X114399127Y-99534695D01*
X114397529Y-99488939D01*
X114397528Y-99488933D01*
X114397375Y-99484542D01*
X114373608Y-99349749D01*
X114349360Y-99212236D01*
X114348598Y-99207913D01*
X114261797Y-98940765D01*
X114255969Y-98928814D01*
X114177355Y-98767634D01*
X114138660Y-98688298D01*
X114136205Y-98684659D01*
X114136202Y-98684653D01*
X114018830Y-98510642D01*
X113981585Y-98455424D01*
X113964296Y-98436222D01*
X113870244Y-98331767D01*
X113793629Y-98246678D01*
X113578450Y-98066121D01*
X113340236Y-97917269D01*
X113083625Y-97803018D01*
X112928992Y-97758678D01*
X112817837Y-97726805D01*
X112817836Y-97726805D01*
X112813610Y-97725593D01*
X112809260Y-97724982D01*
X112809257Y-97724981D01*
X112706310Y-97710513D01*
X112535448Y-97686500D01*
X112324854Y-97686500D01*
X112322668Y-97686653D01*
X112322664Y-97686653D01*
X112119173Y-97700882D01*
X112119168Y-97700883D01*
X112114788Y-97701189D01*
X111840030Y-97759591D01*
X111835901Y-97761094D01*
X111835897Y-97761095D01*
X111580219Y-97854154D01*
X111580215Y-97854156D01*
X111576074Y-97855663D01*
X111328058Y-97987536D01*
X111324499Y-97990122D01*
X111324497Y-97990123D01*
X111111833Y-98144632D01*
X111100808Y-98152642D01*
X111097644Y-98155698D01*
X111097641Y-98155700D01*
X111027416Y-98223516D01*
X110898748Y-98347769D01*
X110771498Y-98510642D01*
X110738602Y-98552748D01*
X110725812Y-98569118D01*
X110634992Y-98726423D01*
X110598619Y-98789423D01*
X110547237Y-98838416D01*
X110477523Y-98851852D01*
X110411612Y-98825466D01*
X110370430Y-98767634D01*
X110363500Y-98726423D01*
X110363500Y-90447966D01*
X132018257Y-90447966D01*
X132048565Y-90582446D01*
X132051645Y-90592275D01*
X132131770Y-90789603D01*
X132136413Y-90798794D01*
X132247694Y-90980388D01*
X132253777Y-90988699D01*
X132393213Y-91149667D01*
X132400580Y-91156883D01*
X132564434Y-91292916D01*
X132572881Y-91298831D01*
X132756756Y-91406279D01*
X132766042Y-91410729D01*
X132965001Y-91486703D01*
X132974899Y-91489579D01*
X133078250Y-91510606D01*
X133092299Y-91509410D01*
X133096000Y-91499065D01*
X133096000Y-91498517D01*
X133604000Y-91498517D01*
X133608064Y-91512359D01*
X133621478Y-91514393D01*
X133628184Y-91513534D01*
X133638262Y-91511392D01*
X133842255Y-91450191D01*
X133851842Y-91446433D01*
X134043095Y-91352739D01*
X134051945Y-91347464D01*
X134225328Y-91223792D01*
X134233200Y-91217139D01*
X134384052Y-91066812D01*
X134390730Y-91058965D01*
X134515003Y-90886020D01*
X134520313Y-90877183D01*
X134614670Y-90686267D01*
X134618469Y-90676672D01*
X134680377Y-90472910D01*
X134682555Y-90462837D01*
X134683986Y-90451962D01*
X134681775Y-90437778D01*
X134668617Y-90434000D01*
X133622115Y-90434000D01*
X133606876Y-90438475D01*
X133605671Y-90439865D01*
X133604000Y-90447548D01*
X133604000Y-91498517D01*
X133096000Y-91498517D01*
X133096000Y-90452115D01*
X133091525Y-90436876D01*
X133090135Y-90435671D01*
X133082452Y-90434000D01*
X132033225Y-90434000D01*
X132019694Y-90437973D01*
X132018257Y-90447966D01*
X110363500Y-90447966D01*
X110363500Y-71447309D01*
X110383502Y-71379188D01*
X110437158Y-71332695D01*
X110507432Y-71322591D01*
X110572012Y-71352085D01*
X110602748Y-71392074D01*
X110651340Y-71491702D01*
X110653795Y-71495341D01*
X110653798Y-71495347D01*
X110685359Y-71542138D01*
X110808415Y-71724576D01*
X110996371Y-71933322D01*
X111211550Y-72113879D01*
X111449764Y-72262731D01*
X111583484Y-72322267D01*
X111680126Y-72365295D01*
X111706375Y-72376982D01*
X111976390Y-72454407D01*
X111980740Y-72455018D01*
X111980743Y-72455019D01*
X112083690Y-72469487D01*
X112254552Y-72493500D01*
X112465146Y-72493500D01*
X112467332Y-72493347D01*
X112467336Y-72493347D01*
X112670827Y-72479118D01*
X112670832Y-72479117D01*
X112675212Y-72478811D01*
X112949970Y-72420409D01*
X112954099Y-72418906D01*
X112954103Y-72418905D01*
X113209781Y-72325846D01*
X113209785Y-72325844D01*
X113213926Y-72324337D01*
X113461942Y-72192464D01*
X113509057Y-72158233D01*
X113685629Y-72029947D01*
X113685632Y-72029944D01*
X113689192Y-72027358D01*
X113697564Y-72019274D01*
X113789947Y-71930060D01*
X113891252Y-71832231D01*
X114059049Y-71617460D01*
X114061481Y-71614347D01*
X114061482Y-71614346D01*
X114064188Y-71610882D01*
X114066384Y-71607078D01*
X114066389Y-71607071D01*
X114191381Y-71390577D01*
X114204636Y-71367619D01*
X114309862Y-71107176D01*
X114343544Y-70972087D01*
X114376753Y-70838893D01*
X114376754Y-70838888D01*
X114377817Y-70834624D01*
X114378544Y-70827715D01*
X114406719Y-70559636D01*
X114406719Y-70559633D01*
X114407178Y-70555267D01*
X114405419Y-70504886D01*
X114397529Y-70278939D01*
X114397528Y-70278933D01*
X114397375Y-70274542D01*
X114373608Y-70139749D01*
X114349360Y-70002236D01*
X114348598Y-69997913D01*
X114261797Y-69730765D01*
X114138660Y-69478298D01*
X114136205Y-69474659D01*
X114136202Y-69474653D01*
X114047680Y-69343414D01*
X113981585Y-69245424D01*
X113975777Y-69238973D01*
X113796566Y-69039940D01*
X113793629Y-69036678D01*
X113578450Y-68856121D01*
X113340236Y-68707269D01*
X113311797Y-68694607D01*
X113257701Y-68648626D01*
X113237052Y-68580699D01*
X113256405Y-68512391D01*
X113309615Y-68465390D01*
X113363046Y-68453500D01*
X132029673Y-68453500D01*
X132097794Y-68473502D01*
G37*
%TD.AperFunction*%
%TA.AperFunction,Conductor*%
G36*
X122114121Y-85640502D02*
G01*
X122160614Y-85694158D01*
X122172000Y-85746500D01*
X122172000Y-85889885D01*
X122176475Y-85905124D01*
X122177865Y-85906329D01*
X122185548Y-85908000D01*
X123236344Y-85908000D01*
X123249875Y-85904027D01*
X123251180Y-85894947D01*
X123221603Y-85777196D01*
X123224407Y-85706255D01*
X123265120Y-85648091D01*
X123330815Y-85621172D01*
X123343807Y-85620500D01*
X129466800Y-85620500D01*
X129534921Y-85640502D01*
X129554147Y-85656843D01*
X129554420Y-85656540D01*
X129559332Y-85660963D01*
X129563747Y-85665866D01*
X129569086Y-85669745D01*
X129605632Y-85696297D01*
X129718248Y-85778118D01*
X129724276Y-85780802D01*
X129724278Y-85780803D01*
X129886681Y-85853109D01*
X129892712Y-85855794D01*
X129986113Y-85875647D01*
X130073056Y-85894128D01*
X130073061Y-85894128D01*
X130079513Y-85895500D01*
X130270487Y-85895500D01*
X130276939Y-85894128D01*
X130276944Y-85894128D01*
X130363887Y-85875647D01*
X130457288Y-85855794D01*
X130463319Y-85853109D01*
X130625722Y-85780803D01*
X130625724Y-85780802D01*
X130631752Y-85778118D01*
X130744369Y-85696297D01*
X130780914Y-85669745D01*
X130786253Y-85665866D01*
X130790668Y-85660963D01*
X130795580Y-85656540D01*
X130796705Y-85657789D01*
X130850014Y-85624949D01*
X130883200Y-85620500D01*
X132010221Y-85620500D01*
X132078342Y-85640502D01*
X132126964Y-85699096D01*
X132133266Y-85714616D01*
X132169802Y-85774237D01*
X132243773Y-85894947D01*
X132249987Y-85905088D01*
X132396250Y-86073938D01*
X132568126Y-86216632D01*
X132588590Y-86228590D01*
X132641445Y-86259476D01*
X132690169Y-86311114D01*
X132703240Y-86380897D01*
X132676509Y-86446669D01*
X132636055Y-86480027D01*
X132623607Y-86486507D01*
X132619474Y-86489610D01*
X132619471Y-86489612D01*
X132519602Y-86564596D01*
X132444965Y-86620635D01*
X132441393Y-86624373D01*
X132300481Y-86771829D01*
X132290629Y-86782138D01*
X132252177Y-86838506D01*
X132197268Y-86883507D01*
X132148091Y-86893500D01*
X132017867Y-86893500D01*
X131943806Y-86869436D01*
X131907094Y-86842763D01*
X131907093Y-86842762D01*
X131901752Y-86838882D01*
X131895724Y-86836198D01*
X131895722Y-86836197D01*
X131733319Y-86763891D01*
X131733318Y-86763891D01*
X131727288Y-86761206D01*
X131633887Y-86741353D01*
X131546944Y-86722872D01*
X131546939Y-86722872D01*
X131540487Y-86721500D01*
X131349513Y-86721500D01*
X131343061Y-86722872D01*
X131343056Y-86722872D01*
X131256113Y-86741353D01*
X131162712Y-86761206D01*
X131156682Y-86763891D01*
X131156681Y-86763891D01*
X130994278Y-86836197D01*
X130994276Y-86836198D01*
X130988248Y-86838882D01*
X130982907Y-86842762D01*
X130982906Y-86842763D01*
X130946194Y-86869436D01*
X130872133Y-86893500D01*
X123274175Y-86893500D01*
X123206054Y-86873498D01*
X123159561Y-86819842D01*
X123149457Y-86749568D01*
X123161217Y-86711674D01*
X123182672Y-86668263D01*
X123186469Y-86658672D01*
X123248377Y-86454910D01*
X123250555Y-86444837D01*
X123251986Y-86433962D01*
X123249775Y-86419778D01*
X123236617Y-86416000D01*
X122190115Y-86416000D01*
X122174876Y-86420475D01*
X122173671Y-86421865D01*
X122172000Y-86429548D01*
X122172000Y-86767500D01*
X122151998Y-86835621D01*
X122098342Y-86882114D01*
X122046000Y-86893500D01*
X121790000Y-86893500D01*
X121721879Y-86873498D01*
X121675386Y-86819842D01*
X121664000Y-86767500D01*
X121664000Y-85746500D01*
X121684002Y-85678379D01*
X121737658Y-85631886D01*
X121790000Y-85620500D01*
X122046000Y-85620500D01*
X122114121Y-85640502D01*
G37*
%TD.AperFunction*%
%TA.AperFunction,Conductor*%
G36*
X128264921Y-83100502D02*
G01*
X128284147Y-83116843D01*
X128284420Y-83116540D01*
X128289332Y-83120963D01*
X128293747Y-83125866D01*
X128299086Y-83129745D01*
X128335632Y-83156297D01*
X128448248Y-83238118D01*
X128454276Y-83240802D01*
X128454278Y-83240803D01*
X128616681Y-83313109D01*
X128622712Y-83315794D01*
X128716112Y-83335647D01*
X128803056Y-83354128D01*
X128803061Y-83354128D01*
X128809513Y-83355500D01*
X129000487Y-83355500D01*
X129006939Y-83354128D01*
X129006944Y-83354128D01*
X129093888Y-83335647D01*
X129187288Y-83315794D01*
X129193319Y-83313109D01*
X129355722Y-83240803D01*
X129355724Y-83240802D01*
X129361752Y-83238118D01*
X129474369Y-83156297D01*
X129510914Y-83129745D01*
X129516253Y-83125866D01*
X129520668Y-83120963D01*
X129525580Y-83116540D01*
X129526705Y-83117789D01*
X129580014Y-83084949D01*
X129613200Y-83080500D01*
X132010221Y-83080500D01*
X132078342Y-83100502D01*
X132126964Y-83159096D01*
X132133266Y-83174616D01*
X132169802Y-83234237D01*
X132243773Y-83354947D01*
X132249987Y-83365088D01*
X132396250Y-83533938D01*
X132568126Y-83676632D01*
X132588590Y-83688590D01*
X132641445Y-83719476D01*
X132690169Y-83771114D01*
X132703240Y-83840897D01*
X132676509Y-83906669D01*
X132636055Y-83940027D01*
X132623607Y-83946507D01*
X132619474Y-83949610D01*
X132619471Y-83949612D01*
X132519602Y-84024596D01*
X132444965Y-84080635D01*
X132441393Y-84084373D01*
X132300481Y-84231829D01*
X132290629Y-84242138D01*
X132252177Y-84298506D01*
X132197268Y-84343507D01*
X132148091Y-84353500D01*
X130883200Y-84353500D01*
X130815079Y-84333498D01*
X130795853Y-84317157D01*
X130795580Y-84317460D01*
X130790668Y-84313037D01*
X130786253Y-84308134D01*
X130741339Y-84275502D01*
X130637094Y-84199763D01*
X130637093Y-84199762D01*
X130631752Y-84195882D01*
X130625724Y-84193198D01*
X130625722Y-84193197D01*
X130463319Y-84120891D01*
X130463318Y-84120891D01*
X130457288Y-84118206D01*
X130363888Y-84098353D01*
X130276944Y-84079872D01*
X130276939Y-84079872D01*
X130270487Y-84078500D01*
X130079513Y-84078500D01*
X130073061Y-84079872D01*
X130073056Y-84079872D01*
X129986112Y-84098353D01*
X129892712Y-84118206D01*
X129886682Y-84120891D01*
X129886681Y-84120891D01*
X129724278Y-84193197D01*
X129724276Y-84193198D01*
X129718248Y-84195882D01*
X129712907Y-84199762D01*
X129712906Y-84199763D01*
X129608661Y-84275502D01*
X129563747Y-84308134D01*
X129559332Y-84313037D01*
X129554420Y-84317460D01*
X129553295Y-84316211D01*
X129499986Y-84349051D01*
X129466800Y-84353500D01*
X123274175Y-84353500D01*
X123206054Y-84333498D01*
X123159561Y-84279842D01*
X123149457Y-84209568D01*
X123161217Y-84171674D01*
X123182672Y-84128263D01*
X123186469Y-84118672D01*
X123248377Y-83914910D01*
X123250555Y-83904837D01*
X123251986Y-83893962D01*
X123249775Y-83879778D01*
X123236617Y-83876000D01*
X122190115Y-83876000D01*
X122174876Y-83880475D01*
X122173671Y-83881865D01*
X122172000Y-83889548D01*
X122172000Y-84227500D01*
X122151998Y-84295621D01*
X122098342Y-84342114D01*
X122046000Y-84353500D01*
X121790000Y-84353500D01*
X121721879Y-84333498D01*
X121675386Y-84279842D01*
X121664000Y-84227500D01*
X121664000Y-83494000D01*
X121684002Y-83425879D01*
X121737658Y-83379386D01*
X121790000Y-83368000D01*
X123236344Y-83368000D01*
X123249875Y-83364027D01*
X123251180Y-83354947D01*
X123221603Y-83237196D01*
X123224407Y-83166255D01*
X123265120Y-83108091D01*
X123330815Y-83081172D01*
X123343807Y-83080500D01*
X128196800Y-83080500D01*
X128264921Y-83100502D01*
G37*
%TD.AperFunction*%
%TA.AperFunction,Conductor*%
G36*
X122114121Y-78020502D02*
G01*
X122160614Y-78074158D01*
X122172000Y-78126500D01*
X122172000Y-78269885D01*
X122176475Y-78285124D01*
X122177865Y-78286329D01*
X122185548Y-78288000D01*
X123236344Y-78288000D01*
X123249875Y-78284027D01*
X123251180Y-78274947D01*
X123221603Y-78157196D01*
X123224407Y-78086255D01*
X123265120Y-78028091D01*
X123330815Y-78001172D01*
X123343807Y-78000500D01*
X125656800Y-78000500D01*
X125724921Y-78020502D01*
X125744147Y-78036843D01*
X125744420Y-78036540D01*
X125749332Y-78040963D01*
X125753747Y-78045866D01*
X125759086Y-78049745D01*
X125795632Y-78076297D01*
X125908248Y-78158118D01*
X125914276Y-78160802D01*
X125914278Y-78160803D01*
X126076681Y-78233109D01*
X126082712Y-78235794D01*
X126176113Y-78255647D01*
X126263056Y-78274128D01*
X126263061Y-78274128D01*
X126269513Y-78275500D01*
X126460487Y-78275500D01*
X126466939Y-78274128D01*
X126466944Y-78274128D01*
X126553887Y-78255647D01*
X126647288Y-78235794D01*
X126653319Y-78233109D01*
X126815722Y-78160803D01*
X126815724Y-78160802D01*
X126821752Y-78158118D01*
X126934369Y-78076297D01*
X126970914Y-78049745D01*
X126976253Y-78045866D01*
X126980668Y-78040963D01*
X126985580Y-78036540D01*
X126986705Y-78037789D01*
X127040014Y-78004949D01*
X127073200Y-78000500D01*
X132010221Y-78000500D01*
X132078342Y-78020502D01*
X132126964Y-78079096D01*
X132133266Y-78094616D01*
X132169802Y-78154237D01*
X132243773Y-78274947D01*
X132249987Y-78285088D01*
X132396250Y-78453938D01*
X132568126Y-78596632D01*
X132588590Y-78608590D01*
X132641445Y-78639476D01*
X132690169Y-78691114D01*
X132703240Y-78760897D01*
X132676509Y-78826669D01*
X132636055Y-78860027D01*
X132623607Y-78866507D01*
X132619474Y-78869610D01*
X132619471Y-78869612D01*
X132519602Y-78944596D01*
X132444965Y-79000635D01*
X132441393Y-79004373D01*
X132300481Y-79151829D01*
X132290629Y-79162138D01*
X132252177Y-79218506D01*
X132197268Y-79263507D01*
X132148091Y-79273500D01*
X128343200Y-79273500D01*
X128275079Y-79253498D01*
X128255853Y-79237157D01*
X128255580Y-79237460D01*
X128250668Y-79233037D01*
X128246253Y-79228134D01*
X128201339Y-79195502D01*
X128097094Y-79119763D01*
X128097093Y-79119762D01*
X128091752Y-79115882D01*
X128085724Y-79113198D01*
X128085722Y-79113197D01*
X127923319Y-79040891D01*
X127923318Y-79040891D01*
X127917288Y-79038206D01*
X127823888Y-79018353D01*
X127736944Y-78999872D01*
X127736939Y-78999872D01*
X127730487Y-78998500D01*
X127539513Y-78998500D01*
X127533061Y-78999872D01*
X127533056Y-78999872D01*
X127446112Y-79018353D01*
X127352712Y-79038206D01*
X127346682Y-79040891D01*
X127346681Y-79040891D01*
X127184278Y-79113197D01*
X127184276Y-79113198D01*
X127178248Y-79115882D01*
X127172907Y-79119762D01*
X127172906Y-79119763D01*
X127068661Y-79195502D01*
X127023747Y-79228134D01*
X127019332Y-79233037D01*
X127014420Y-79237460D01*
X127013295Y-79236211D01*
X126959986Y-79269051D01*
X126926800Y-79273500D01*
X123274175Y-79273500D01*
X123206054Y-79253498D01*
X123159561Y-79199842D01*
X123149457Y-79129568D01*
X123161217Y-79091674D01*
X123182672Y-79048263D01*
X123186469Y-79038672D01*
X123248377Y-78834910D01*
X123250555Y-78824837D01*
X123251986Y-78813962D01*
X123249775Y-78799778D01*
X123236617Y-78796000D01*
X121790000Y-78796000D01*
X121721879Y-78775998D01*
X121675386Y-78722342D01*
X121664000Y-78670000D01*
X121664000Y-78126500D01*
X121684002Y-78058379D01*
X121737658Y-78011886D01*
X121790000Y-78000500D01*
X122046000Y-78000500D01*
X122114121Y-78020502D01*
G37*
%TD.AperFunction*%
%TA.AperFunction,Conductor*%
G36*
X148552121Y-73228002D02*
G01*
X148598614Y-73281658D01*
X148610000Y-73334000D01*
X148610000Y-78670000D01*
X148589998Y-78738121D01*
X148536342Y-78784614D01*
X148484000Y-78796000D01*
X148228000Y-78796000D01*
X148159879Y-78775998D01*
X148113386Y-78722342D01*
X148102000Y-78670000D01*
X148102000Y-73334000D01*
X148122002Y-73265879D01*
X148175658Y-73219386D01*
X148228000Y-73208000D01*
X148484000Y-73208000D01*
X148552121Y-73228002D01*
G37*
%TD.AperFunction*%
%TA.AperFunction,Conductor*%
G36*
X122114121Y-75480502D02*
G01*
X122160614Y-75534158D01*
X122172000Y-75586500D01*
X122172000Y-75729885D01*
X122176475Y-75745124D01*
X122177865Y-75746329D01*
X122185548Y-75748000D01*
X123236344Y-75748000D01*
X123249875Y-75744027D01*
X123251180Y-75734947D01*
X123221603Y-75617196D01*
X123224407Y-75546255D01*
X123265120Y-75488091D01*
X123330815Y-75461172D01*
X123343807Y-75460500D01*
X124386800Y-75460500D01*
X124454921Y-75480502D01*
X124474147Y-75496843D01*
X124474420Y-75496540D01*
X124479332Y-75500963D01*
X124483747Y-75505866D01*
X124489086Y-75509745D01*
X124525632Y-75536297D01*
X124638248Y-75618118D01*
X124644276Y-75620802D01*
X124644278Y-75620803D01*
X124806681Y-75693109D01*
X124812712Y-75695794D01*
X124906113Y-75715647D01*
X124993056Y-75734128D01*
X124993061Y-75734128D01*
X124999513Y-75735500D01*
X125190487Y-75735500D01*
X125196939Y-75734128D01*
X125196944Y-75734128D01*
X125283887Y-75715647D01*
X125377288Y-75695794D01*
X125383319Y-75693109D01*
X125545722Y-75620803D01*
X125545724Y-75620802D01*
X125551752Y-75618118D01*
X125664369Y-75536297D01*
X125700914Y-75509745D01*
X125706253Y-75505866D01*
X125710668Y-75500963D01*
X125715580Y-75496540D01*
X125716705Y-75497789D01*
X125770014Y-75464949D01*
X125803200Y-75460500D01*
X132010221Y-75460500D01*
X132078342Y-75480502D01*
X132126964Y-75539096D01*
X132133266Y-75554616D01*
X132169802Y-75614237D01*
X132243773Y-75734947D01*
X132249987Y-75745088D01*
X132396250Y-75913938D01*
X132568126Y-76056632D01*
X132588590Y-76068590D01*
X132641445Y-76099476D01*
X132690169Y-76151114D01*
X132703240Y-76220897D01*
X132676509Y-76286669D01*
X132636055Y-76320027D01*
X132623607Y-76326507D01*
X132619474Y-76329610D01*
X132619471Y-76329612D01*
X132519602Y-76404596D01*
X132444965Y-76460635D01*
X132441393Y-76464373D01*
X132300481Y-76611829D01*
X132290629Y-76622138D01*
X132252177Y-76678506D01*
X132197268Y-76723507D01*
X132148091Y-76733500D01*
X127073200Y-76733500D01*
X127005079Y-76713498D01*
X126985853Y-76697157D01*
X126985580Y-76697460D01*
X126980668Y-76693037D01*
X126976253Y-76688134D01*
X126931339Y-76655502D01*
X126827094Y-76579763D01*
X126827093Y-76579762D01*
X126821752Y-76575882D01*
X126815724Y-76573198D01*
X126815722Y-76573197D01*
X126653319Y-76500891D01*
X126653318Y-76500891D01*
X126647288Y-76498206D01*
X126553887Y-76478353D01*
X126466944Y-76459872D01*
X126466939Y-76459872D01*
X126460487Y-76458500D01*
X126269513Y-76458500D01*
X126263061Y-76459872D01*
X126263056Y-76459872D01*
X126176113Y-76478353D01*
X126082712Y-76498206D01*
X126076682Y-76500891D01*
X126076681Y-76500891D01*
X125914278Y-76573197D01*
X125914276Y-76573198D01*
X125908248Y-76575882D01*
X125902907Y-76579762D01*
X125902906Y-76579763D01*
X125798661Y-76655502D01*
X125753747Y-76688134D01*
X125749332Y-76693037D01*
X125744420Y-76697460D01*
X125743295Y-76696211D01*
X125689986Y-76729051D01*
X125656800Y-76733500D01*
X123274175Y-76733500D01*
X123206054Y-76713498D01*
X123159561Y-76659842D01*
X123149457Y-76589568D01*
X123161217Y-76551674D01*
X123182672Y-76508263D01*
X123186469Y-76498672D01*
X123248377Y-76294910D01*
X123250555Y-76284837D01*
X123251986Y-76273962D01*
X123249775Y-76259778D01*
X123236617Y-76256000D01*
X122190115Y-76256000D01*
X122174876Y-76260475D01*
X122173671Y-76261865D01*
X122172000Y-76269548D01*
X122172000Y-76607500D01*
X122151998Y-76675621D01*
X122098342Y-76722114D01*
X122046000Y-76733500D01*
X121790000Y-76733500D01*
X121721879Y-76713498D01*
X121675386Y-76659842D01*
X121664000Y-76607500D01*
X121664000Y-75586500D01*
X121684002Y-75518379D01*
X121737658Y-75471886D01*
X121790000Y-75460500D01*
X122046000Y-75460500D01*
X122114121Y-75480502D01*
G37*
%TD.AperFunction*%
%TA.AperFunction,Conductor*%
G36*
X132078342Y-72940502D02*
G01*
X132126964Y-72999096D01*
X132127090Y-72999405D01*
X132133266Y-73014616D01*
X132135965Y-73019020D01*
X132243271Y-73194128D01*
X132249987Y-73205088D01*
X132396250Y-73373938D01*
X132568126Y-73516632D01*
X132638595Y-73557811D01*
X132641445Y-73559476D01*
X132690169Y-73611114D01*
X132703240Y-73680897D01*
X132676509Y-73746669D01*
X132636055Y-73780027D01*
X132623607Y-73786507D01*
X132619474Y-73789610D01*
X132619471Y-73789612D01*
X132449100Y-73917530D01*
X132444965Y-73920635D01*
X132441393Y-73924373D01*
X132331124Y-74039763D01*
X132290629Y-74082138D01*
X132252177Y-74138506D01*
X132197268Y-74183507D01*
X132148091Y-74193500D01*
X125803200Y-74193500D01*
X125735079Y-74173498D01*
X125715853Y-74157157D01*
X125715580Y-74157460D01*
X125710668Y-74153037D01*
X125706253Y-74148134D01*
X125551752Y-74035882D01*
X125545724Y-74033198D01*
X125545722Y-74033197D01*
X125383319Y-73960891D01*
X125383318Y-73960891D01*
X125377288Y-73958206D01*
X125283887Y-73938353D01*
X125196944Y-73919872D01*
X125196939Y-73919872D01*
X125190487Y-73918500D01*
X124999513Y-73918500D01*
X124993061Y-73919872D01*
X124993056Y-73919872D01*
X124906113Y-73938353D01*
X124812712Y-73958206D01*
X124806682Y-73960891D01*
X124806681Y-73960891D01*
X124644278Y-74033197D01*
X124644276Y-74033198D01*
X124638248Y-74035882D01*
X124483747Y-74148134D01*
X124479332Y-74153037D01*
X124474420Y-74157460D01*
X124473295Y-74156211D01*
X124419986Y-74189051D01*
X124386800Y-74193500D01*
X123274175Y-74193500D01*
X123206054Y-74173498D01*
X123159561Y-74119842D01*
X123149457Y-74049568D01*
X123161217Y-74011674D01*
X123182672Y-73968263D01*
X123186469Y-73958672D01*
X123248377Y-73754910D01*
X123250555Y-73744837D01*
X123251986Y-73733962D01*
X123249775Y-73719778D01*
X123236617Y-73716000D01*
X122190115Y-73716000D01*
X122174876Y-73720475D01*
X122173671Y-73721865D01*
X122172000Y-73729548D01*
X122172000Y-74067500D01*
X122151998Y-74135621D01*
X122098342Y-74182114D01*
X122046000Y-74193500D01*
X121790000Y-74193500D01*
X121721879Y-74173498D01*
X121675386Y-74119842D01*
X121664000Y-74067500D01*
X121664000Y-73334000D01*
X121684002Y-73265879D01*
X121737658Y-73219386D01*
X121790000Y-73208000D01*
X123236344Y-73208000D01*
X123249875Y-73204027D01*
X123250293Y-73201120D01*
X123279787Y-73136539D01*
X123339513Y-73098156D01*
X123410510Y-73098157D01*
X123426259Y-73103946D01*
X123542712Y-73155794D01*
X123636112Y-73175647D01*
X123723056Y-73194128D01*
X123723061Y-73194128D01*
X123729513Y-73195500D01*
X123920487Y-73195500D01*
X123926939Y-73194128D01*
X123926944Y-73194128D01*
X124013888Y-73175647D01*
X124107288Y-73155794D01*
X124150536Y-73136539D01*
X124275722Y-73080803D01*
X124275724Y-73080802D01*
X124281752Y-73078118D01*
X124436253Y-72965866D01*
X124440668Y-72960963D01*
X124445580Y-72956540D01*
X124446705Y-72957789D01*
X124500014Y-72924949D01*
X124533200Y-72920500D01*
X132010221Y-72920500D01*
X132078342Y-72940502D01*
G37*
%TD.AperFunction*%
%TD*%
M02*
